<svg width="268" height="170" fill="none" xmlns="http://www.w3.org/2000/svg">
  <title>Stack of money</title>
  <path d="M1 0h266v170H1z"/>
  <path d="M58.153 16l2.998 2.407 3.697-1.003-1.499 3.61 2.199 3.21-3.898-.301-2.298 3.009-1-3.711-3.597-1.304 3.298-2.106.1-3.811zM5.196 114.887l1.9 3.41 3.896.3-2.598 2.809.9 3.71-3.498-1.504-3.298 2.006.4-3.811L0 119.3l3.797-.803 1.4-3.61zM256.015 138.957l1.899 3.409 3.897.301-2.598 2.808.899 3.711-3.497-1.504-3.298 2.006.4-3.811-2.898-2.508 3.797-.802 1.399-3.61zM263.503 114.084l.899 3.711 3.598 1.304-3.198 2.106-.2 3.811-2.898-2.407-3.697 1.003 1.399-3.61-2.099-3.21 3.798.301 2.398-3.009zM214.544 28.837l.899 3.711 3.598 1.304-3.198 2.106-.2 3.811-2.898-2.407-3.697 1.003 1.399-3.61-2.099-3.21 3.798.301 2.398-3.009zM12.684 55.916l.9 3.71 3.597 1.305-3.198 2.106-.2 3.81-2.897-2.406-3.698 1.003 1.4-3.61-2.1-3.21 3.798.3 2.398-3.008zM261.811 34.454l-.399 3.81 2.998 2.508-3.798.802-1.399 3.61-1.999-3.41-3.797-.2 2.498-2.908-.899-3.71 3.498 1.503 3.297-2.005zM238.727 21.115l1.299 3.61 3.698 1.003-2.998 2.307.2 3.911-3.198-2.206-3.598 1.404 1.1-3.71-2.399-3.01 3.798-.1 2.098-3.21z" fill="#006AFF"/>
  <path d="M203.652 83.796H42.763c-1.099 0-1.998.903-1.998 2.006v66.192c0 1.103.9 2.006 1.998 2.006h160.889a2.008 2.008 0 0 0 1.998-2.006V85.802a2.008 2.008 0 0 0-1.998-2.006z" fill="#fff" stroke="#3E4348" stroke-width="2" stroke-miterlimit="10" stroke-linecap="round" stroke-linejoin="round"/>
  <path d="M195.657 87.808h-144.9c-3.297 0-5.995 2.708-5.995 6.017v50.146c0 3.309 2.698 6.017 5.996 6.017h144.899c3.298 0 5.996-2.708 5.996-6.017V93.826c0-3.31-2.598-6.018-5.996-6.018z" stroke="#3E4348" stroke-width="2" stroke-miterlimit="10" stroke-linecap="round" stroke-linejoin="round"/>
  <path d="M193.759 142.968H52.757c-4.397 0-7.895-4.012-7.895-8.023v8.926c0 3.41 2.698 6.117 6.096 6.117h144.699c3.398 0 6.096-2.707 6.096-6.117v-8.926c-.1 4.413-3.597 8.023-7.994 8.023zM195.657 87.808h-144.8c-3.397 0-6.095 2.708-6.095 6.118v8.926c0-4.413 3.598-8.023 7.895-8.023h141.002c4.397 0 7.894 3.61 7.894 8.023v-8.926a5.902 5.902 0 0 0-5.896-6.118z" fill="#006AFF" stroke="#3E4348" stroke-width="2" stroke-miterlimit="10" stroke-linecap="round" stroke-linejoin="round"/>
  <path d="M55.754 130.933h22.984M171.674 137.953H148.69" stroke="#3E4348" stroke-width="2" stroke-miterlimit="10" stroke-linecap="round" stroke-linejoin="round"/>
  <path d="M194.658 137.953h-18.987" stroke="#006AFF" stroke-width="2" stroke-miterlimit="10" stroke-linecap="round" stroke-linejoin="round"/>
  <path d="M170.775 111.978l1.798-.802 1.199 1.604 1.999.201.2 2.006 1.599 1.103-.8 1.906.8 1.805-1.599 1.203-.2 1.906-1.999.301-1.199 1.504-1.798-.702-1.799.702-1.199-1.504-1.899-.301-.3-1.906-1.499-1.203.7-1.805-.7-1.906 1.499-1.103.3-2.006 1.899-.201 1.199-1.604 1.799.802z" fill="#006AFF" stroke="#3E4348" stroke-width="2" stroke-miterlimit="10" stroke-linecap="round" stroke-linejoin="round"/>
  <path d="M171.174 120.904a2.503 2.503 0 0 0 2.499-2.507 2.503 2.503 0 0 0-2.499-2.507 2.503 2.503 0 0 0-2.498 2.507 2.503 2.503 0 0 0 2.498 2.507zM113.714 149.988c17.109 0 30.979-13.919 30.979-31.09 0-17.17-13.87-31.09-30.979-31.09s-30.978 13.92-30.978 31.09c0 17.171 13.87 31.09 30.978 31.09z" fill="#006AFF" stroke="#3E4348" stroke-width="2" stroke-miterlimit="10" stroke-linecap="round" stroke-linejoin="round"/>
  <path d="M113.214 149.988c14.074 0 25.483-13.919 25.483-31.09 0-17.17-11.409-31.09-25.483-31.09-14.073 0-25.482 13.92-25.482 31.09 0 17.171 11.409 31.09 25.482 31.09z" fill="#fff" stroke="#3E4348" stroke-width="2" stroke-miterlimit="10" stroke-linecap="round" stroke-linejoin="round"/>
  <path d="M112.715 110.875a1 1 0 0 0 .999-1.003 1 1 0 0 0-.999-1.003 1 1 0 0 0-.999 1.003 1 1 0 0 0 .999 1.003z" fill="#2E3B4E"/>
  <path d="M132.901 138.455c-.6.602-2.498 3.109-2.498 3.109-1 1.003-1.999-.401-2.998-1.003-1-.601-3.398-4.312-3.998-5.616 1-.602 2.199-1.905 2.898-3.209.6-1.304 2.898-6.319 2.898-11.734 0-5.416-.599-9.227-.599-10.23 0-1.003.599-4.814.3-6.318-.3-1.605-.3-1.304.299-.602.6.602 2.199 4.112 2.199 6.017 0 1.906-.6 5.115 1.299 7.322 1.899 2.206 4.097 5.415 2.898 8.926-1.299 3.51-3.198 4.112-2.199 5.415 1 1.304 1.899 2.508 1.599 4.814-1.199 1.204-2.098 3.109-2.098 3.109zM97.725 135.346c-1.798-.301-3.497-2.206-5.096 1.304-.6-1.003-1.3-1.605-1.899-3.209-.6-1.605-3.298-10.932-3.298-10.932s0-3.009 2.299-2.808c1.799.2 1.599-1.605 1.099-2.808-.5-1.304-2.398-4.413 1.4-6.018 2.997-1.304 4.096-1.905 4.096-1.905s-1-1.906.6-3.511c1-1.002 1.299-1.303 1.299-3.811 0-2.507 2.098-6.117 7.595-6.318-1.299 1.304-2.199 3.811-2.499 7.622-.299 3.811 1.999 7.422.3 8.224-3.198 1.605-.999 5.115-4.796 7.622 0 0 0 3.209 2.498 4.814.3 0 .3 1.304.3 1.304s-1.399 7.722-1.399 9.728c.199-.1-.8.903-2.499.702z" fill="#006AFF"/>
  <path d="M123.307 134.945s-1.299 3.911-1.299 6.72c0 2.808-.999 3.811-2.898 4.111-1.898.301-4.397.602-7.894-2.206-3.498-2.908-9.793-8.224-10.193-11.734-.3-3.51.6-5.115.6-7.923" stroke="#3E4348" stroke-width="2" stroke-miterlimit="10" stroke-linecap="round" stroke-linejoin="round"/>
  <path d="M101.423 127.523s1.699.803 2.598 2.407c.999 1.605 7.595 9.829 12.091 10.531 4.397.602 6.296-1.304 6.696-3.209M103.421 122.308s-.999 1.906-2.198 1.003c-2.698-2.106-2.199-4.413-2.199-4.413" stroke="#3E4348" stroke-width="2" stroke-miterlimit="10" stroke-linecap="round" stroke-linejoin="round"/>
  <path d="M101.423 116.491s-2.099 2.608-4.397 2.909c-2.199.301-3.198 3.51-.6 5.114 2.598 1.605 3.198 3.21 2.199 4.814-1 1.605-3.498 3.811-1 6.018M93.529 132.739s-1.3-1.304 0-3.51M89.73 130.231s0-3.811 2.5-4.112M105.92 95.23c-1.999 0-6.496.2-7.295 4.413-.2 1.304-.1 4.413-1.2 4.814-2.297.702-1.898 2.808-.998 4.413-9.994 1.604-6.696 6.117-5.397 8.223.3.502 1.2 2.909-.999 2.207-1-.301-1.599-.101-1.999.301M94.228 116.492s-.3-2.207 1.898-2.508M103.721 102.25s-1.299.301-1.899 2.206M103.721 110.574s-1.299.301-1.899 2.207M129.403 134.544s2.998 0 2.998 4.012M123.008 126.721s-1 1.605-4.797 0M124.407 124.515s-1-2.006-2.299-.301c-.899 1.103-.899-1.304-2.698-.702-1.898.601-3.497.501-3.897.301-.8-.301-2.099-.301-2.298.501M117.312 117.494s-1 .802-.6 1.505c.3.802 1.3 1.002 1.3 1.002M120.809 120.002s2.498-1.304 1.899-3.21c-.6-1.905-2.498-7.02-.999-9.527 0 0 5.196-4.313 6.895 0M110.017 110.273s1.399-1.805 3.198-1.805c1.798 0 2.198 2.307 2.198 2.307" stroke="#3E4348" stroke-width="2" stroke-miterlimit="10" stroke-linecap="round" stroke-linejoin="round"/>
  <path d="M124.707 110.875c.551 0 .999-.449.999-1.003 0-.554-.448-1.003-.999-1.003-.552 0-1 .449-1 1.003 0 .554.448 1.003 1 1.003z" fill="#2E3B4E"/>
  <path d="M122.008 110.273s1.399-1.805 3.198-1.805 2.199 2.307 2.199 2.307M116.013 105.259s-2.199-1.304-4.098-1.003c-1.898.301-2.898 1.906-2.898 1.906" stroke="#3E4348" stroke-width="2" stroke-miterlimit="10" stroke-linecap="round" stroke-linejoin="round"/>
  <path d="M103.421 99.04s1.899-7.02 11.692-7.02c6.995 0 10.193 2.508 12.192 7.121 2.098 4.814 1.699 6.218 1.399 8.425-.3 2.206 0 6.719.3 8.625.299 1.905-.7 11.332-3.198 15.845-2.498 4.514-4.897 2.909-7.595 2.909-3.398.1-9.094-3.711-9.393-4.914" stroke="#3E4348" stroke-width="2" stroke-miterlimit="10" stroke-linecap="round" stroke-linejoin="round"/>
  <path d="M134.899 133.44c-.099-.401-.199-.902-.399-1.404-.6-1.303-2.399-1.705-1-3.209 1.899-1.905 3.498-7.02.6-10.53-1.999-2.407-2.998-3.21-2.898-6.319.3-7.622-2.898-10.229-2.898-10.229M123.407 135.045s1.699 4.513 5.497 7.121M103.421 122.308s1 4.212 2.998 5.215M115.713 114.084s-.6 1.304-2.199 1.605M111.616 121.907s-1.599.602-1.599 2.207" stroke="#3E4348" stroke-width="2" stroke-miterlimit="10" stroke-linecap="round" stroke-linejoin="round"/>
  <path d="M113.214 149.988c14.074 0 25.483-13.919 25.483-31.09 0-17.17-11.409-31.09-25.483-31.09-14.073 0-25.482 13.92-25.482 31.09 0 17.171 11.409 31.09 25.482 31.09zM66.747 125.919c4.967 0 8.993-4.042 8.993-9.027 0-4.985-4.026-9.026-8.993-9.026-4.967 0-8.994 4.041-8.994 9.026 0 4.985 4.027 9.027 8.994 9.027z" stroke="#3E4348" stroke-width="2" stroke-miterlimit="10" stroke-linecap="round" stroke-linejoin="round"/>
  <path d="M66.247 120.904a4.505 4.505 0 0 0 4.497-4.513c0-2.492-2.013-4.513-4.497-4.513-2.483 0-4.497 2.021-4.497 4.513a4.505 4.505 0 0 0 4.497 4.513z" fill="#006AFF" stroke="#2E3B4E" stroke-width="2" stroke-miterlimit="10"/>
  <path d="M52.257 101.046c0 .201.2.301.5.401.6.201 1.598.301 1.598 1.204 0 .602-.5 1.103-1.399 1.103-.7 0-1.199-.301-1.499-.702l.5-.301c.2.401.6.502 1 .502s.699-.201.699-.502-.4-.401-.8-.501c-.6-.101-1.299-.301-1.299-1.104 0-.702.6-1.002 1.3-1.002.5 0 .999.2 1.398.702l-.5.3c-.199-.3-.499-.401-.899-.401-.3-.1-.6 0-.6.301zM57.653 103.353l.3.301-.4.401-.3-.401c-.2.1-.5.2-.8.2-1.098 0-1.798-.802-1.798-1.905 0-1.003.7-1.805 1.799-1.805 1.1 0 1.799.802 1.799 1.805 0 .501-.2 1.003-.6 1.404zm-1.2-2.708c-.699 0-1.098.501-1.098 1.203 0 .703.4 1.204 1.099 1.204.1 0 .2 0 .3-.1l-.4-.502.4-.301.4.502c.2-.201.3-.502.3-.903.1-.501-.3-1.103-1-1.103zM59.352 101.748l.8-1.003h-1.5v-.601h2.299v.401l-.7.902c.5.101.9.502.9 1.104 0 .601-.4 1.203-1.4 1.203-.599 0-.999-.301-1.298-.802l.5-.301c.1.301.399.501.699.501.4 0 .7-.2.7-.702 0-.301-.2-.602-.5-.602-.1 0-.2 0-.3.101l-.2-.201zM61.45 100.846l1-.702h.6v3.61h-.7v-2.808l-.6.401-.3-.501zM65.947 102.952v.802h-.7v-.802H63.75v-.502l1.499-2.306h.7v2.206h.399v.602h-.4zm-.7-.602v-1.404l-.899 1.404h.9zM66.447 100.846l1-.702h.599v3.61h-.7v-2.808l-.6.401-.299-.501zM68.845 103.052l.6-.301c.1.301.3.502.7.502.4 0 .699-.201.699-.702 0-.402-.3-.602-.7-.602-.3 0-.5.1-.7.301l-.499-.201.1-1.905h2.099v.601h-1.6l-.1.803c.2-.101.4-.201.7-.201.7 0 1.2.501 1.2 1.204 0 .601-.4 1.203-1.3 1.203-.6 0-.999-.201-1.199-.702zM72.043 103.052c.2.1.4.201.6.201.6 0 .9-.401.9-1.003-.1.2-.4.301-.8.301-.7 0-1.1-.502-1.1-1.204s.5-1.304 1.3-1.304c.799 0 1.299.602 1.299 1.806 0 .601-.1 1.003-.4 1.404-.3.401-.7.501-1.2.501-.3 0-.699-.1-.899-.2l.3-.502zm.9-2.407c-.4 0-.6.301-.6.702 0 .401.2.702.6.702.4 0 .6-.2.6-.601 0-.502-.2-.803-.6-.803zM74.541 103.754c0-.602.4-1.003 1-1.604.4-.402.7-.602.7-1.003 0-.301-.2-.502-.6-.502-.3 0-.6.201-.7.502l-.5-.301c.2-.401.7-.803 1.3-.803.7 0 1.199.402 1.199 1.104 0 .501-.2.802-.6 1.003-.4.3-.9.601-1.1.902h1.7v.602H74.54v.1zM79.638 100.846c-.2-.101-.4-.201-.6-.201-.6 0-.9.401-.9 1.003.1-.201.4-.301.8-.301.7 0 1.2.501 1.2 1.204 0 .702-.5 1.303-1.3 1.303s-1.299-.601-1.299-1.805c0-.602.1-1.103.4-1.404.3-.301.7-.501 1.2-.501.299 0 .599.1.898.2l-.4.502zm-.9 2.407c.4 0 .6-.301.6-.702 0-.402-.2-.703-.6-.703-.4 0-.6.201-.6.602 0 .401.2.803.6.803zM80.337 103.052l.6-.301c.1.301.3.502.7.502.4 0 .699-.201.699-.702 0-.402-.3-.602-.7-.602-.3 0-.5.1-.7.301l-.399-.201.1-1.905h2.099v.601h-1.6l-.1.803c.2-.101.4-.201.7-.201.7 0 1.2.501 1.2 1.204 0 .601-.4 1.203-1.3 1.203-.7 0-1.099-.201-1.299-.702zM155.885 130.03c0 .201.2.301.5.401.599.201 1.598.301 1.598 1.204 0 .602-.499 1.103-1.399 1.103-.699 0-1.199-.301-1.499-.702l.5-.401c.2.401.6.501.999.501.4 0 .7-.2.7-.501s-.4-.401-.8-.502c-.599-.1-1.299-.3-1.299-1.103 0-.702.6-1.003 1.299-1.003.5 0 1 .201 1.4.702l-.5.301c-.2-.301-.5-.401-.9-.401-.299 0-.599.201-.599.401zM161.281 132.337l.3.301-.4.401-.3-.401c-.199.1-.499.2-.799.2-1.099 0-1.799-.802-1.799-1.905 0-1.003.7-1.806 1.799-1.806s1.799.803 1.799 1.806c-.1.501-.3 1.003-.6 1.404zm-1.199-2.608c-.7 0-1.099.502-1.099 1.204s.399 1.203 1.099 1.203c.1 0 .2 0 .3-.1l-.4-.502.4-.3.399.501c.2-.201.3-.501.3-.903 0-.601-.399-1.103-.999-1.103zM162.88 130.832l.799-1.003h-1.498v-.601h2.298v.401l-.7.902c.5.101.9.502.9 1.104 0 .601-.4 1.203-1.399 1.203-.6 0-1-.301-1.299-.802l.499-.301c.1.301.4.501.7.501.4 0 .699-.2.699-.702 0-.301-.2-.602-.499-.602-.1 0-.2 0-.3.101l-.2-.201zM164.979 129.829l.999-.702h.599v3.611h-.699v-2.808l-.6.401-.299-.502zM169.475 131.936v.802h-.699v-.802h-1.499v-.502l1.499-2.307h.699v2.207h.4v.602h-.4zm-.599-.602v-1.404l-.999 1.404h.999zM170.075 129.829l.999-.702h.6v3.611h-.7v-2.808l-.599.401-.3-.502zM172.373 132.036l.6-.301c.1.301.3.501.7.501.399 0 .699-.2.699-.702 0-.401-.3-.601-.699-.601-.3 0-.5.1-.7.301l-.4-.201.1-1.906h2.099v.602h-1.599l-.1.803c.2-.101.4-.201.699-.201.7 0 1.2.501 1.2 1.203 0 .602-.4 1.304-1.299 1.304-.7-.1-1.1-.301-1.3-.802zM175.671 132.036c.2.1.4.201.6.201.599 0 .899-.402.899-1.003-.1.2-.4.301-.799.301-.7 0-1.1-.502-1.1-1.204s.5-1.304 1.3-1.304c.799 0 1.299.602 1.299 1.806 0 .601-.1 1.002-.4 1.404-.3.401-.7.501-1.199.501-.3 0-.7-.1-.9-.2l.3-.502zm.8-2.407c-.4 0-.6.301-.6.702 0 .401.2.702.6.702.399 0 .599-.2.599-.602 0-.501-.2-.802-.599-.802zM178.169 132.738c0-.602.4-1.003 1-1.605.399-.401.699-.601.699-1.002 0-.301-.2-.502-.599-.502-.3 0-.6.201-.7.502l-.5-.301c.2-.401.7-.803 1.3-.803.699 0 1.199.402 1.199 1.104 0 .501-.2.802-.6 1.002-.4.301-.899.602-1.099.903h1.699v.602h-2.399v.1zM183.166 129.829c-.2-.1-.4-.2-.6-.2-.599 0-.899.401-.899 1.003.1-.201.4-.301.799-.301.7 0 1.2.501 1.2 1.203 0 .702-.5 1.304-1.3 1.304-.799 0-1.299-.602-1.299-1.805 0-.602.1-1.103.4-1.404.3-.301.7-.502 1.199-.502.3 0 .6.101.9.201l-.4.501zm-.8 2.407c.4 0 .6-.3.6-.702 0-.401-.2-.702-.6-.702-.399 0-.599.201-.599.602-.1.401.1.802.599.802zM183.865 132.036l.6-.301c.1.301.3.501.7.501.399 0 .699-.2.699-.702 0-.401-.3-.601-.699-.601-.3 0-.5.1-.7.301l-.4-.201.1-1.906h2.099v.602h-1.599l-.1.803c.2-.101.4-.201.699-.201.7 0 1.2.501 1.2 1.203 0 .602-.4 1.304-1.299 1.304-.6-.1-1-.301-1.3-.802z" fill="#006AFF"/>
  <path d="M51.758 145.977c-.6 0-1-.402-1-1.003v-.803c0-.601.4-1.003 1-1.003.8 0 1-.1 1.1-.2l-.1-.1v-2.106h-1c-.6 0-1-.402-1-1.003v-1.003c0-.602.4-1.003 1-1.003 1.999 0 2.498-1.103 2.498-1.103.2-.402.5-.602.9-.602h2.598c.6 0 1 .401 1 1.003v4.011c0 1.204.299 2.006.899 2.006h.2c.2 0 .499.1.599.201.2.2.3.501.3.802v1.003c0 .602-.4 1.003-1 1.003h-7.994v-.1z" fill="#fff"/>
  <path d="M57.753 136.951v4.011c0 2.808 1.4 3.009 1.899 3.009h.1v1.003h-7.995v-.802c.6 0 2.199 0 1.999-1.304v-2.507c.2-.602-1.4-.602-1.999-.602v-1.003c2.798 0 3.398-1.805 3.398-1.805h2.598zm0-2.006h-2.598c-.9 0-1.699.401-1.899 1.304-.1.1-.5.501-1.599.501s-1.998.903-1.998 2.006v1.003c0 1.103.9 2.006 1.998 2.006v.401c-1.099 0-1.998.902-1.998 2.006v.802c0 1.103.9 2.006 1.998 2.006h7.995c1.099 0 1.998-.903 1.998-2.006v-1.003c0-.602-.2-1.203-.7-1.605-.399-.301-.799-.401-1.198-.401-.1-.2-.1-.501-.1-1.003v-4.011c.1-1.104-.8-2.006-1.899-2.006z" fill="#2E3B4E"/>
  <path d="M66.048 145.676c-3.697 0-6.096-1.906-6.096-4.814 0-1.805.8-4.814 6.096-4.814 3.697 0 6.096 1.905 6.096 4.814 0 1.805-.8 4.814-6.096 4.814zm-.1-6.82c-.1.401-.1 1.404-.1 2.006 0 .501 0 1.304.1 1.805.1-.401.2-.903.2-1.805-.1-.602-.1-1.605-.2-2.006z" fill="#fff"/>
  <path d="M66.047 137.051c2.798 0 5.097 1.203 5.097 3.811 0 2.908-2.299 3.811-5.097 3.811-2.798 0-5.096-1.204-5.096-3.811 0-2.909 2.298-3.811 5.096-3.811zm-.1 7.02c.8 0 1.1-1.404 1.1-3.209 0-1.805 0-3.21-1.1-3.21-1.099 0-1.099 1.405-1.099 3.21-.1 1.805-.1 3.209 1.1 3.209zm.1-9.026c-1.698 0-7.095.401-7.095 5.817 0 3.51 2.798 5.817 7.095 5.817 1.7 0 7.095-.402 7.095-5.817 0-3.41-2.798-5.817-7.095-5.817z" fill="#2E3B4E"/>
  <path d="M78.84 145.676c-3.698 0-6.097-1.906-6.097-4.814 0-1.805.8-4.814 6.096-4.814 3.698 0 6.096 1.905 6.096 4.814 0 1.805-.8 4.814-6.096 4.814zm-.2-6.82c-.1.401-.1 1.404-.1 2.006 0 .501 0 1.304.1 1.805.1-.401.2-.903.2-1.805 0-.602 0-1.605-.2-2.006z" fill="#fff"/>
  <path d="M78.838 137.051c2.798 0 5.097 1.203 5.097 3.811 0 2.908-2.299 3.811-5.097 3.811-2.798 0-5.096-1.204-5.096-3.811 0-2.909 2.298-3.811 5.096-3.811zm-.2 7.02c.8 0 1.1-1.404 1.1-3.209 0-1.805 0-3.21-1.1-3.21-1.099 0-1.099 1.405-1.099 3.21s0 3.209 1.1 3.209zm.2-9.026c-1.698 0-7.095.401-7.095 5.817 0 3.51 2.798 5.817 7.095 5.817 1.7 0 7.096-.402 7.096-5.817 0-3.41-2.898-5.817-7.096-5.817z" fill="#2E3B4E"/>
  <path d="M187.663 99.843h-33.977c-.599 0-.999.401-.999 1.003v5.014c0 .602.4 1.003.999 1.003h33.977c.599 0 .999-.401.999-1.003v-5.014c0-.602-.4-1.003-.999-1.003z" stroke="#2E3B4E" stroke-width="2" stroke-miterlimit="10"/>
  <path d="M212.645 75.773H51.757c-1.1 0-1.998.903-1.998 2.006v66.192c0 1.103.899 2.006 1.998 2.006h160.888c1.1 0 1.999-.903 1.999-2.006V77.779a2.008 2.008 0 0 0-1.999-2.006z" fill="#fff" stroke="#3E4348" stroke-width="2" stroke-miterlimit="10" stroke-linecap="round" stroke-linejoin="round"/>
  <path d="M204.651 79.785h-144.9c-3.297 0-5.995 2.708-5.995 6.018v50.145c0 3.31 2.698 6.017 5.996 6.017H204.65c3.298 0 5.996-2.707 5.996-6.017V85.803c0-3.31-2.598-6.018-5.996-6.018z" stroke="#3E4348" stroke-width="2" stroke-miterlimit="10" stroke-linecap="round" stroke-linejoin="round"/>
  <path d="M202.752 134.945H61.75c-4.397 0-7.894-4.011-7.894-8.023v8.926c0 3.41 2.698 6.117 6.096 6.117H204.65c3.398 0 6.096-2.707 6.096-6.117v-8.926c-.1 4.413-3.598 8.023-7.995 8.023zM204.651 79.785h-144.8c-3.397 0-6.095 2.708-6.095 6.118v8.926c0-4.413 3.597-8.023 7.894-8.023h141.002c4.397 0 7.895 3.61 7.895 8.023v-8.926a5.902 5.902 0 0 0-5.896-6.118z" fill="#006AFF" stroke="#3E4348" stroke-width="2" stroke-miterlimit="10" stroke-linecap="round" stroke-linejoin="round"/>
  <path d="M64.748 122.91h22.984M180.668 129.931h-22.984" stroke="#3E4348" stroke-width="2" stroke-miterlimit="10" stroke-linecap="round" stroke-linejoin="round"/>
  <path d="M203.652 129.931h-18.987" stroke="#006AFF" stroke-width="2" stroke-miterlimit="10" stroke-linecap="round" stroke-linejoin="round"/>
  <path d="M179.768 103.955l1.799-.802 1.199 1.604 1.999.201.2 2.006 1.599 1.103-.8 1.906.8 1.805-1.599 1.203-.2 1.906-1.999.301-1.199 1.504-1.799-.702-1.798.702-1.2-1.504-1.898-.301-.3-1.906-1.499-1.203.699-1.805-.699-1.906 1.499-1.103.3-2.006 1.898-.201 1.2-1.604 1.798.802z" fill="#006AFF" stroke="#3E4348" stroke-width="2" stroke-miterlimit="10" stroke-linecap="round" stroke-linejoin="round"/>
  <path d="M180.168 112.881a2.503 2.503 0 0 0 2.498-2.508 2.503 2.503 0 0 0-2.498-2.507 2.503 2.503 0 0 0-2.498 2.507 2.503 2.503 0 0 0 2.498 2.508zM122.708 141.965c17.109 0 30.978-13.919 30.978-31.09 0-17.17-13.869-31.09-30.978-31.09s-30.979 13.92-30.979 31.09c0 17.171 13.87 31.09 30.979 31.09z" fill="#006AFF" stroke="#3E4348" stroke-width="2" stroke-miterlimit="10" stroke-linecap="round" stroke-linejoin="round"/>
  <path d="M122.208 141.965c14.074 0 25.483-13.919 25.483-31.09 0-17.17-11.409-31.09-25.483-31.09-14.073 0-25.482 13.92-25.482 31.09 0 17.171 11.409 31.09 25.482 31.09z" fill="#fff" stroke="#3E4348" stroke-width="2" stroke-miterlimit="10" stroke-linecap="round" stroke-linejoin="round"/>
  <path d="M121.709 102.852c.551 0 .999-.449.999-1.003 0-.554-.448-1.003-.999-1.003-.552 0-1 .449-1 1.003 0 .554.448 1.003 1 1.003z" fill="#2E3B4E"/>
  <path d="M141.895 130.432c-.6.602-2.499 3.109-2.499 3.109-.999 1.003-1.998-.401-2.998-1.003-.999-.602-3.397-4.313-3.997-5.616.999-.602 2.199-1.906 2.898-3.21.6-1.303 2.898-6.318 2.898-11.734 0-5.415-.599-9.226-.599-10.229 0-1.003.599-4.814.299-6.319-.299-1.604-.299-1.303.3-.601.6.601 2.199 4.112 2.199 6.017 0 1.906-.6 5.115 1.299 7.321 1.898 2.207 4.097 5.416 2.898 8.926-1.299 3.51-3.198 4.112-2.199 5.416 1 1.304 1.899 2.507 1.599 4.814-1.199 1.203-2.098 3.109-2.098 3.109zM106.719 127.323c-1.799-.301-3.498-2.207-5.096 1.303-.6-1.002-1.3-1.604-1.9-3.209-.599-1.605-3.297-10.932-3.297-10.932s0-3.008 2.299-2.808c1.798.201 1.598-1.604 1.099-2.808-.5-1.304-2.398-4.413 1.399-6.017 2.998-1.304 4.097-1.906 4.097-1.906s-.999-1.905.6-3.51c.999-1.003 1.299-1.304 1.299-3.811 0-2.507 2.098-6.118 7.594-6.318-1.299 1.303-2.198 3.81-2.498 7.622-.3 3.81 1.999 7.421.3 8.224-3.198 1.604-.999 5.114-4.797 7.622 0 0 0 3.209 2.499 4.814.299 0 .299 1.303.299 1.303s-1.399 7.723-1.399 9.729c.2-.101-.799.902-2.498.702z" fill="#006AFF"/>
  <path d="M132.301 126.922s-1.299 3.911-1.299 6.719c0 2.909-.999 3.811-2.898 4.112-1.899.301-4.397.602-7.894-2.206-3.498-2.809-9.794-8.224-10.193-11.734-.3-3.511.599-5.115.599-7.923" stroke="#3E4348" stroke-width="2" stroke-miterlimit="10" stroke-linecap="round" stroke-linejoin="round"/>
  <path d="M110.416 119.5s1.699.802 2.599 2.407c.999 1.605 7.594 9.828 12.091 10.531 4.397.601 6.296-1.304 6.696-3.21M112.415 114.285s-.999 1.905-2.198 1.003c-2.699-2.106-2.199-4.413-2.199-4.413" stroke="#3E4348" stroke-width="2" stroke-miterlimit="10" stroke-linecap="round" stroke-linejoin="round"/>
  <path d="M110.416 108.468s-2.098 2.607-4.396 2.908c-2.199.301-3.198 3.51-.6 5.115 2.598 1.605 3.198 3.209 2.198 4.814-.999 1.605-3.497 3.811-.999 6.017M102.522 124.715s-1.3-1.304 0-3.51M98.725 122.208s0-3.811 2.498-4.112M114.914 87.206c-1.999 0-6.496.2-7.295 4.413-.2 1.304-.1 4.413-1.199 4.814-2.299.702-1.899 2.808-1 4.413-9.993 1.604-6.695 6.117-5.396 8.223.3.502 1.199 2.909-1 2.207-.999-.301-1.598-.1-1.998.301M103.221 108.468s-.299-2.206 1.899-2.507M112.715 94.227s-1.299.3-1.899 2.206M112.715 102.551s-1.299.301-1.899 2.206M138.397 126.521s2.998 0 2.998 4.011M132.001 118.698s-.999 1.604-4.796 0M133.4 116.491s-.999-2.006-2.298-.301c-.899 1.104-.899-1.303-2.698-.702-1.899.602-3.498.502-3.897.301-.8-.301-2.099-.301-2.299.502M126.306 109.471s-1 .802-.6 1.504c.3.802 1.3 1.003 1.3 1.003M129.803 111.978s2.498-1.303 1.899-3.209c-.6-1.906-2.499-7.02-1-9.528 0 0 5.197-4.312 6.896 0M119.011 102.25s1.399-1.805 3.197-1.805c1.799 0 2.199 2.307 2.199 2.307" stroke="#3E4348" stroke-width="2" stroke-miterlimit="10" stroke-linecap="round" stroke-linejoin="round"/>
  <path d="M133.7 102.852c.552 0 1-.449 1-1.003 0-.554-.448-1.003-1-1.003a1 1 0 0 0-.999 1.003 1 1 0 0 0 .999 1.003z" fill="#2E3B4E"/>
  <path d="M131.002 102.25s1.399-1.805 3.198-1.805 2.198 2.307 2.198 2.307M125.006 97.236s-2.198-1.304-4.097-1.003c-1.898.3-2.898 1.905-2.898 1.905" stroke="#3E4348" stroke-width="2" stroke-miterlimit="10" stroke-linecap="round" stroke-linejoin="round"/>
  <path d="M112.415 91.017s1.899-7.02 11.692-7.02c6.995 0 10.193 2.507 12.191 7.12 2.099 4.815 1.699 6.219 1.4 8.425-.3 2.207 0 6.72.299 8.625.3 1.906-.699 11.333-3.197 15.846-2.499 4.513-4.897 2.908-7.595 2.908-3.398.101-9.094-3.71-9.394-4.914" stroke="#3E4348" stroke-width="2" stroke-miterlimit="10" stroke-linecap="round" stroke-linejoin="round"/>
  <path d="M143.893 125.417c-.1-.401-.2-.903-.4-1.404-.599-1.304-2.398-1.705-.999-3.209 1.899-1.906 3.498-7.021.6-10.531-1.999-2.407-2.998-3.209-2.898-6.318.3-7.622-2.898-10.23-2.898-10.23M132.401 127.021s1.699 4.514 5.496 7.121M112.415 114.285s.999 4.212 2.998 5.215M124.707 106.061s-.6 1.304-2.199 1.605M120.609 113.884s-1.598.602-1.598 2.206" stroke="#3E4348" stroke-width="2" stroke-miterlimit="10" stroke-linecap="round" stroke-linejoin="round"/>
  <path d="M122.208 141.965c14.074 0 25.483-13.919 25.483-31.09 0-17.17-11.409-31.09-25.483-31.09-14.073 0-25.482 13.92-25.482 31.09 0 17.171 11.409 31.09 25.482 31.09zM75.74 117.896c4.968 0 8.994-4.042 8.994-9.027 0-4.985-4.026-9.026-8.993-9.026-4.968 0-8.994 4.041-8.994 9.026 0 4.985 4.026 9.027 8.993 9.027z" stroke="#3E4348" stroke-width="2" stroke-miterlimit="10" stroke-linecap="round" stroke-linejoin="round"/>
  <path d="M75.24 112.881a4.505 4.505 0 0 0 4.498-4.513c0-2.492-2.014-4.513-4.497-4.513-2.484 0-4.497 2.021-4.497 4.513a4.505 4.505 0 0 0 4.497 4.513z" fill="#006AFF" stroke="#2E3B4E" stroke-width="2" stroke-miterlimit="10"/>
  <path d="M61.25 93.023c0 .2.2.301.5.401.6.201 1.6.301 1.6 1.204 0 .602-.5 1.103-1.4 1.103-.7 0-1.2-.3-1.499-.702l.5-.3c.2.4.6.5 1 .5.399 0 .699-.2.699-.5 0-.302-.4-.402-.8-.502-.6-.1-1.299-.301-1.299-1.103 0-.703.6-1.003 1.3-1.003.499 0 .998.2 1.398.702l-.5.3c-.2-.3-.5-.4-.899-.4-.3-.1-.6 0-.6.3zM66.647 95.33l.3.3-.4.402-.3-.401c-.2.1-.5.2-.8.2-1.099 0-1.798-.802-1.798-1.905 0-1.003.7-1.805 1.799-1.805s1.799.802 1.799 1.805c0 .501-.2 1.003-.6 1.404zm-1.2-2.708c-.699 0-1.099.502-1.099 1.204s.4 1.203 1.1 1.203c.1 0 .2 0 .3-.1l-.4-.502.4-.3.4.5c.2-.2.299-.5.299-.902.1-.501-.3-1.103-1-1.103zM68.346 93.725l.8-1.003h-1.5v-.601h2.299v.4l-.7.903c.5.1.9.502.9 1.104 0 .601-.4 1.203-1.4 1.203-.6 0-.999-.3-1.299-.802l.5-.301c.1.3.4.501.7.501.4 0 .699-.2.699-.702 0-.3-.2-.602-.5-.602-.1 0-.2 0-.3.1l-.2-.2zM70.444 92.823l1-.702h.6v3.61h-.7v-2.808l-.6.401-.3-.501zM74.941 94.929v.802h-.7v-.802h-1.498v-.502l1.499-2.306h.7v2.206h.399v.602h-.4zm-.7-.602v-1.404l-.899 1.404h.9zM75.44 92.823l1-.702h.6v3.61h-.7v-2.808l-.6.401-.3-.501zM77.84 95.029l.599-.3c.1.3.3.5.7.5.399 0 .699-.2.699-.701 0-.402-.3-.602-.7-.602-.3 0-.5.1-.7.3l-.499-.2.1-1.905h2.099v.601h-1.6l-.1.803c.2-.1.4-.2.7-.2.7 0 1.2.5 1.2 1.203 0 .601-.4 1.203-1.3 1.203-.6 0-.999-.2-1.199-.702zM81.037 95.03c.2.1.4.2.6.2.6 0 .899-.401.899-1.003-.1.2-.4.3-.8.3-.7 0-1.099-.5-1.099-1.203 0-.702.5-1.303 1.3-1.303.799 0 1.298.601 1.298 1.805 0 .602-.1 1.003-.4 1.404-.3.401-.699.501-1.198.501-.3 0-.7-.1-.9-.2l.3-.502zm.9-2.408c-.4 0-.6.301-.6.702 0 .401.2.702.6.702.399 0 .599-.2.599-.601 0-.502-.2-.803-.6-.803zM83.535 95.731c0-.602.4-1.003 1-1.604.4-.402.699-.602.699-1.003 0-.301-.2-.502-.6-.502-.3 0-.6.2-.7.502l-.499-.301c.2-.401.7-.802 1.3-.802.699 0 1.198.4 1.198 1.103 0 .501-.2.802-.6 1.003-.399.3-.898.601-1.098.902h1.698v.602h-2.398v.1zM88.632 92.823c-.2-.1-.4-.2-.6-.2-.6 0-.9.4-.9 1.002.1-.2.4-.3.8-.3.7 0 1.2.5 1.2 1.203 0 .702-.5 1.303-1.3 1.303s-1.299-.601-1.299-1.805c0-.602.1-1.103.4-1.404.3-.3.7-.501 1.199-.501.3 0 .6.1.9.2l-.4.502zm-.9 2.407c.4 0 .6-.301.6-.702 0-.402-.2-.703-.6-.703-.4 0-.6.201-.6.602 0 .401.2.803.6.803zM89.331 95.029l.6-.3c.1.3.3.5.7.5.399 0 .699-.2.699-.701 0-.402-.3-.602-.7-.602-.3 0-.5.1-.7.3l-.399-.2.1-1.905h2.099v.601h-1.6l-.1.803c.2-.1.4-.2.7-.2.7 0 1.2.5 1.2 1.203 0 .601-.4 1.203-1.3 1.203-.7 0-1.099-.2-1.299-.702zM164.879 122.007c0 .201.199.301.499.401.6.201 1.599.301 1.599 1.204 0 .602-.5 1.103-1.399 1.103-.699 0-1.199-.301-1.499-.702l.5-.401c.2.401.599.501.999.501s.7-.2.7-.501-.4-.401-.8-.501c-.599-.101-1.299-.301-1.299-1.104 0-.702.6-1.003 1.299-1.003.5 0 .999.201 1.399.702l-.499.301c-.2-.301-.5-.401-.9-.401-.3 0-.599.201-.599.401zM170.275 124.314l.3.301-.4.401-.3-.401c-.2.1-.499.2-.799.2-1.1 0-1.799-.802-1.799-1.905 0-1.003.699-1.806 1.799-1.806 1.099 0 1.798.803 1.798 1.806-.099.501-.299 1.003-.599 1.404zm-1.199-2.608c-.7 0-1.099.502-1.099 1.204s.399 1.203 1.099 1.203c.1 0 .2 0 .3-.1l-.4-.502.4-.3.399.501c.2-.201.3-.501.3-.903 0-.601-.4-1.103-.999-1.103zM171.874 122.809l.799-1.003h-1.499v-.602h2.299v.401l-.7.903c.5.1.9.501.9 1.103s-.4 1.204-1.399 1.204c-.6 0-1-.301-1.3-.803l.5-.301c.1.301.4.502.7.502.399 0 .699-.201.699-.702 0-.301-.2-.602-.5-.602-.099 0-.199 0-.299.1l-.2-.2zM173.972 121.807l1-.703h.599v3.611h-.699v-2.808l-.6.401-.3-.501zM178.469 123.913v.802h-.699v-.802h-1.499v-.502l1.499-2.307h.699v2.207h.4v.602h-.4zm-.599-.602v-1.404l-1 1.404h1zM179.069 121.807l.999-.703h.6v3.611h-.7v-2.808l-.599.401-.3-.501zM181.367 124.013l.6-.301c.1.301.3.502.699.502.4 0 .7-.201.7-.703 0-.401-.3-.601-.7-.601-.3 0-.499.1-.699.301l-.4-.201.1-1.906h2.098v.602h-1.598l-.1.803c.2-.101.399-.201.699-.201.7 0 1.199.501 1.199 1.203 0 .602-.399 1.304-1.299 1.304-.699-.1-1.099-.301-1.299-.802zM184.665 124.013c.2.1.4.201.599.201.6 0 .9-.401.9-1.003-.1.2-.4.301-.8.301-.699 0-1.099-.502-1.099-1.204s.5-1.304 1.299-1.304c.8 0 1.299.602 1.299 1.806 0 .601-.1 1.003-.399 1.404-.3.401-.7.501-1.2.501-.299 0-.699-.1-.899-.2l.3-.502zm.799-2.407c-.399 0-.599.301-.599.702 0 .401.2.702.599.702.4 0 .6-.2.6-.602 0-.501-.2-.802-.6-.802zM187.163 124.715c0-.602.4-1.003.999-1.604.4-.402.7-.602.7-1.003 0-.301-.2-.502-.6-.502a.752.752 0 0 0-.699.502l-.5-.301c.2-.401.7-.803 1.299-.803.7 0 1.199.402 1.199 1.104 0 .501-.199.802-.599 1.003-.4.3-.899.601-1.099.902h1.698v.602h-2.398v.1zM192.16 121.807c-.2-.101-.4-.201-.6-.201-.599 0-.899.401-.899 1.003.1-.201.399-.301.799-.301.7 0 1.199.501 1.199 1.203 0 .702-.499 1.304-1.299 1.304-.799 0-1.299-.602-1.299-1.805 0-.602.1-1.103.4-1.404.3-.301.699-.502 1.199-.502.3 0 .6.101.899.201l-.399.502zm-.8 2.407c.4 0 .6-.301.6-.703 0-.401-.2-.702-.6-.702-.399 0-.599.201-.599.602-.1.401.1.803.599.803zM192.859 124.013l.6-.301c.1.301.3.502.699.502.4 0 .7-.201.7-.703 0-.401-.3-.601-.7-.601-.299 0-.499.1-.699.301l-.4-.201.1-1.906h2.099v.602h-1.599l-.1.803c.2-.101.399-.201.699-.201.7 0 1.199.501 1.199 1.203 0 .602-.399 1.304-1.299 1.304-.599-.1-.999-.301-1.299-.802z" fill="#006AFF"/>
  <path d="M60.752 137.954c-.6 0-1-.401-1-1.003v-.803c0-.601.4-1.002 1-1.002.8 0 .999-.101 1.099-.201l-.1-.1v-2.106h-1c-.599 0-.999-.402-.999-1.003v-1.003c0-.602.4-1.003 1-1.003 1.998 0 2.498-1.103 2.498-1.103.2-.402.5-.602.9-.602h2.597c.6 0 1 .401 1 1.003v4.011c0 1.204.3 2.006.9 2.006h.199c.2 0 .5.101.6.201.2.2.3.501.3.802v1.003c0 .602-.4 1.003-1 1.003h-7.994v-.1z" fill="#fff"/>
  <path d="M66.747 128.928v4.011c0 2.808 1.399 3.009 1.898 3.009h.1v1.003h-7.994v-.802c.6 0 2.198 0 1.998-1.304v-2.507c.2-.602-1.399-.602-1.998-.602v-1.003c2.798 0 3.398-1.805 3.398-1.805h2.598zm0-2.006h-2.598c-.9 0-1.7.401-1.9 1.304-.099.1-.499.501-1.598.501-1.1 0-1.999.903-1.999 2.006v1.003c0 1.103.9 2.006 1.999 2.006v.401c-1.1 0-1.999.902-1.999 2.006v.802c0 1.103.9 2.006 1.999 2.006h7.994c1.1 0 2-.903 2-2.006v-1.003c0-.602-.2-1.203-.7-1.605-.4-.3-.8-.401-1.2-.401-.1-.2-.1-.501-.1-1.003v-4.011c.1-1.104-.799-2.006-1.898-2.006z" fill="#2E3B4E"/>
  <path d="M75.042 137.653c-3.698 0-6.096-1.905-6.096-4.814 0-1.805.8-4.814 6.096-4.814 3.697 0 6.095 1.906 6.095 4.814 0 1.806-.799 4.814-6.095 4.814zm-.1-6.819c-.1.401-.1 1.404-.1 2.005 0 .502 0 1.304.1 1.806.1-.402.2-.903.2-1.806-.1-.601-.1-1.604-.2-2.005z" fill="#fff"/>
  <path d="M75.041 129.028c2.798 0 5.096 1.203 5.096 3.811 0 2.908-2.298 3.811-5.096 3.811s-5.096-1.204-5.096-3.811c0-2.909 2.298-3.811 5.096-3.811zm-.1 7.02c.8 0 1.1-1.404 1.1-3.209 0-1.805 0-3.209-1.1-3.209s-1.1 1.404-1.1 3.209c-.1 1.805-.1 3.209 1.1 3.209zm.1-9.026c-1.699 0-7.095.401-7.095 5.817 0 3.51 2.798 5.817 7.095 5.817 1.699 0 7.095-.401 7.095-5.817 0-3.41-2.798-5.817-7.095-5.817z" fill="#2E3B4E"/>
  <path d="M87.833 137.653c-3.698 0-6.096-1.905-6.096-4.814 0-1.805.8-4.814 6.096-4.814 3.697 0 6.096 1.906 6.096 4.814 0 1.806-.8 4.814-6.096 4.814zm-.2-6.819c-.1.401-.1 1.404-.1 2.005 0 .502 0 1.304.1 1.806.1-.402.2-.903.2-1.806 0-.601 0-1.604-.2-2.005z" fill="#fff"/>
  <path d="M87.832 129.028c2.798 0 5.097 1.203 5.097 3.811 0 2.908-2.299 3.811-5.097 3.811-2.798 0-5.096-1.204-5.096-3.811 0-2.909 2.298-3.811 5.096-3.811zm-.2 7.02c.8 0 1.1-1.404 1.1-3.209 0-1.805 0-3.209-1.1-3.209-1.099 0-1.099 1.404-1.099 3.209 0 1.805 0 3.209 1.1 3.209zm.2-9.026c-1.699 0-7.095.401-7.095 5.817 0 3.51 2.798 5.817 7.095 5.817 1.699 0 7.095-.401 7.095-5.817 0-3.41-2.898-5.817-7.095-5.817z" fill="#2E3B4E"/>
  <path d="M196.657 91.82H162.68c-.599 0-.999.401-.999 1.003v5.014c0 .602.4 1.003.999 1.003h33.977c.599 0 .999-.401.999-1.003v-5.014c0-.602-.4-1.003-.999-1.003z" stroke="#2E3B4E" stroke-width="2" stroke-miterlimit="10"/>
  <path d="M221.639 67.75H60.751c-1.1 0-1.999.903-1.999 2.006v66.192c0 1.103.9 2.005 1.999 2.005h160.888a2.008 2.008 0 0 0 1.999-2.005V69.756c0-1.103-.9-2.006-1.999-2.006z" fill="#fff" stroke="#3E4348" stroke-width="2" stroke-miterlimit="10" stroke-linecap="round" stroke-linejoin="round"/>
  <path d="M213.645 71.762h-144.9c-3.297 0-5.996 2.708-5.996 6.017v50.146c0 3.309 2.699 6.017 5.996 6.017h144.9c3.297 0 5.996-2.708 5.996-6.017V77.779c0-3.31-2.599-6.017-5.996-6.017z" stroke="#3E4348" stroke-width="2" stroke-miterlimit="10" stroke-linecap="round" stroke-linejoin="round"/>
  <path d="M211.746 126.922H70.744c-4.397 0-7.895-4.012-7.895-8.024v8.926c0 3.41 2.699 6.118 6.096 6.118h144.7c3.397 0 6.096-2.708 6.096-6.118v-8.926c-.1 4.413-3.598 8.024-7.995 8.024zM213.645 71.762h-144.8c-3.397 0-6.096 2.708-6.096 6.117v8.926c0-4.413 3.598-8.023 7.895-8.023h141.002c4.397 0 7.895 3.61 7.895 8.023V77.88a5.903 5.903 0 0 0-5.896-6.117z" fill="#006AFF" stroke="#3E4348" stroke-width="2" stroke-miterlimit="10" stroke-linecap="round" stroke-linejoin="round"/>
  <path d="M73.742 114.887h22.984M189.661 121.907h-22.984" stroke="#3E4348" stroke-width="2" stroke-miterlimit="10" stroke-linecap="round" stroke-linejoin="round"/>
  <path d="M212.645 121.907h-18.986" stroke="#006AFF" stroke-width="2" stroke-miterlimit="10" stroke-linecap="round" stroke-linejoin="round"/>
  <path d="M188.762 95.932l1.799-.803 1.199 1.605 1.999.2.199 2.006 1.599 1.104-.799 1.905.799 1.805-1.599 1.204-.199 1.905-1.999.301-1.199 1.505-1.799-.702-1.799.702-1.199-1.505-1.899-.301-.299-1.905-1.499-1.204.699-1.805-.699-1.905 1.499-1.104.299-2.005 1.899-.201 1.199-1.605 1.799.803z" fill="#006AFF" stroke="#3E4348" stroke-width="2" stroke-miterlimit="10" stroke-linecap="round" stroke-linejoin="round"/>
  <path d="M189.162 104.857a2.503 2.503 0 0 0 2.498-2.507 2.503 2.503 0 0 0-2.498-2.507 2.503 2.503 0 0 0-2.499 2.507 2.503 2.503 0 0 0 2.499 2.507zM131.702 133.942c17.109 0 30.978-13.92 30.978-31.09s-13.869-31.09-30.978-31.09-30.979 13.92-30.979 31.09 13.87 31.09 30.979 31.09z" fill="#006AFF" stroke="#3E4348" stroke-width="2" stroke-miterlimit="10" stroke-linecap="round" stroke-linejoin="round"/>
  <path d="M131.202 133.942c14.073 0 25.482-13.92 25.482-31.09s-11.409-31.09-25.482-31.09c-14.073 0-25.482 13.92-25.482 31.09s11.409 31.09 25.482 31.09z" fill="#fff" stroke="#3E4348" stroke-width="2" stroke-miterlimit="10" stroke-linecap="round" stroke-linejoin="round"/>
  <path d="M130.702 94.828c.552 0 1-.449 1-1.003 0-.554-.448-1.003-1-1.003a1 1 0 0 0-.999 1.003 1 1 0 0 0 .999 1.003z" fill="#2E3B4E"/>
  <path d="M150.888 122.408c-.599.602-2.498 3.109-2.498 3.109-.999 1.003-1.999-.401-2.998-1.003-.999-.601-3.398-4.312-3.997-5.616.999-.602 2.198-1.905 2.898-3.209.599-1.304 2.898-6.318 2.898-11.734s-.6-9.227-.6-10.23c0-1.003.6-4.814.3-6.318-.3-1.605-.3-1.304.3-.602.599.602 2.198 4.112 2.198 6.018 0 1.905-.599 5.114 1.299 7.321 1.899 2.206 4.098 5.416 2.898 8.926-1.299 3.51-3.197 4.112-2.198 5.415.999 1.304 1.899 2.508 1.599 4.814-1.199 1.204-2.099 3.109-2.099 3.109zM115.713 119.299c-1.799-.301-3.498-2.206-5.097 1.304-.599-1.003-1.299-1.605-1.898-3.209-.6-1.605-3.298-10.932-3.298-10.932s0-3.009 2.298-2.808c1.799.2 1.599-1.605 1.1-2.808-.5-1.304-2.399-4.413 1.399-6.018 2.997-1.303 4.097-1.905 4.097-1.905s-1-1.906.599-3.51c1-1.003 1.299-1.304 1.299-3.811 0-2.508 2.099-6.118 7.595-6.319-1.299 1.304-2.198 3.811-2.498 7.622-.3 3.811 1.998 7.422.3 8.224-3.198 1.605-1 5.115-4.797 7.622 0 0 0 3.21 2.498 4.814.3 0 .3 1.304.3 1.304s-1.399 7.722-1.399 9.728c.2-.1-.799.903-2.498.702z" fill="#006AFF"/>
  <path d="M141.295 118.898s-1.299 3.912-1.299 6.72c0 2.908-.999 3.811-2.898 4.112-1.899.3-4.397.601-7.895-2.207-3.497-2.808-9.793-8.224-10.193-11.734-.299-3.51.6-5.115.6-7.923" stroke="#3E4348" stroke-width="2" stroke-miterlimit="10" stroke-linecap="round" stroke-linejoin="round"/>
  <path d="M119.41 111.477s1.699.802 2.598 2.407c1 1.604 7.595 9.828 12.092 10.53 4.397.602 6.296-1.304 6.695-3.209M121.409 106.261s-1 1.906-2.199 1.003c-2.698-2.106-2.198-4.412-2.198-4.412" stroke="#3E4348" stroke-width="2" stroke-miterlimit="10" stroke-linecap="round" stroke-linejoin="round"/>
  <path d="M119.41 100.444s-2.098 2.608-4.397 2.909c-2.198.301-3.198 3.51-.599 5.115 2.598 1.604 3.197 3.209 2.198 4.814-.999 1.604-3.497 3.811-.999 6.017M111.516 116.692s-1.3-1.304 0-3.51M107.718 114.184s0-3.811 2.499-4.112M123.907 79.183c-1.998 0-6.495.2-7.294 4.413-.2 1.304-.1 4.413-1.2 4.814-2.298.702-1.898 2.808-.999 4.413-9.993 1.604-6.695 6.117-5.396 8.223.3.502 1.199 2.909-1 2.207-.999-.301-1.598-.1-1.998.301M112.215 100.445s-.3-2.207 1.899-2.507M121.709 86.203s-1.3.301-1.899 2.206M121.709 94.527s-1.3.301-1.899 2.207M147.391 118.497s2.998 0 2.998 4.012M140.995 110.674s-.999 1.605-4.797 0M142.394 108.468s-.999-2.006-2.298-.301c-.9 1.103-.9-1.304-2.698-.702-1.899.602-3.498.501-3.898.301-.799-.301-2.098-.301-2.298.501M135.3 101.447s-1 .803-.6 1.505c.3.802 1.3 1.003 1.3 1.003M138.797 103.955s2.498-1.304 1.898-3.209c-.599-1.906-2.498-7.02-.999-9.528 0 0 5.196-4.313 6.895 0M128.004 94.227s1.399-1.806 3.198-1.806 2.198 2.307 2.198 2.307" stroke="#3E4348" stroke-width="2" stroke-miterlimit="10" stroke-linecap="round" stroke-linejoin="round"/>
  <path d="M142.694 94.828a1 1 0 0 0 .999-1.003 1 1 0 0 0-.999-1.003 1 1 0 0 0-.999 1.003 1 1 0 0 0 .999 1.003z" fill="#2E3B4E"/>
  <path d="M139.996 94.227s1.399-1.806 3.198-1.806c1.798 0 2.198 2.307 2.198 2.307M134 89.212s-2.198-1.304-4.097-1.003c-1.899.301-2.898 1.906-2.898 1.906" stroke="#3E4348" stroke-width="2" stroke-miterlimit="10" stroke-linecap="round" stroke-linejoin="round"/>
  <path d="M121.409 82.994s1.898-7.02 11.692-7.02c6.995 0 10.193 2.507 12.191 7.12 2.099 4.814 1.699 6.218 1.399 8.425-.3 2.206 0 6.72.3 8.625.3 1.905-.7 11.333-3.198 15.846s-4.896 2.908-7.594 2.908c-3.398.1-9.094-3.711-9.394-4.914" stroke="#3E4348" stroke-width="2" stroke-miterlimit="10" stroke-linecap="round" stroke-linejoin="round"/>
  <path d="M152.887 117.394c-.1-.402-.2-.903-.4-1.405-.599-1.303-2.398-1.704-.999-3.209 1.899-1.905 3.497-7.02.599-10.53-1.998-2.407-2.997-3.21-2.898-6.319.3-7.622-2.898-10.23-2.898-10.23M141.395 118.999s1.699 4.513 5.496 7.12M121.409 106.261s.999 4.212 2.998 5.215M133.7 98.038s-.599 1.303-2.198 1.604M129.603 105.86s-1.599.602-1.599 2.207" stroke="#3E4348" stroke-width="2" stroke-miterlimit="10" stroke-linecap="round" stroke-linejoin="round"/>
  <path d="M131.202 133.942c14.073 0 25.482-13.92 25.482-31.09s-11.409-31.09-25.482-31.09c-14.073 0-25.482 13.92-25.482 31.09s11.409 31.09 25.482 31.09zM84.734 109.872c4.967 0 8.994-4.041 8.994-9.026 0-4.985-4.027-9.026-8.994-9.026s-8.993 4.041-8.993 9.026c0 4.985 4.026 9.026 8.993 9.026z" stroke="#3E4348" stroke-width="2" stroke-miterlimit="10" stroke-linecap="round" stroke-linejoin="round"/>
  <path d="M84.235 104.858c2.483 0 4.496-2.021 4.496-4.513 0-2.493-2.013-4.513-4.496-4.513-2.484 0-4.497 2.02-4.497 4.513 0 2.492 2.013 4.513 4.497 4.513z" fill="#006AFF" stroke="#2E3B4E" stroke-width="2" stroke-miterlimit="10"/>
  <path d="M70.244 85c0 .2.2.3.5.4.6.201 1.599.302 1.599 1.204 0 .602-.5 1.104-1.4 1.104-.699 0-1.198-.301-1.498-.702l.5-.301c.2.4.6.501.999.501.4 0 .7-.2.7-.501s-.4-.401-.8-.502c-.6-.1-1.3-.3-1.3-1.103 0-.702.6-1.003 1.3-1.003.5 0 1 .2 1.399.702l-.5.301c-.2-.3-.5-.401-.9-.401-.299-.1-.599 0-.599.3zM75.64 87.306l.3.301-.4.401-.3-.4c-.199.1-.499.2-.799.2-1.099 0-1.798-.802-1.798-1.906 0-1.002.7-1.805 1.798-1.805 1.1 0 1.8.803 1.8 1.805 0 .502-.2 1.003-.6 1.404zM74.442 84.6c-.7 0-1.099.501-1.099 1.203 0 .702.4 1.204 1.1 1.204.1 0 .2 0 .3-.1l-.4-.502.4-.301.399.501c.2-.2.3-.501.3-.902.1-.502-.3-1.103-1-1.103zM77.34 85.702l.799-1.003h-1.5v-.602h2.3v.401l-.7.903c.5.1.9.501.9 1.103s-.4 1.204-1.4 1.204c-.6 0-1-.301-1.299-.803l.5-.3c.1.3.4.5.7.5.399 0 .699-.2.699-.701 0-.301-.2-.602-.5-.602-.1 0-.2 0-.3.1l-.2-.2zM79.438 84.8l1-.703h.599v3.61h-.7V84.9l-.6.4-.3-.5zM83.935 86.905v.803h-.7v-.803h-1.499v-.501l1.5-2.307h.699v2.207h.4v.601h-.4zm-.7-.601V84.9l-.9 1.404h.9zM84.434 84.8l1-.703h.6v3.61h-.7V84.9l-.6.4-.3-.5zM86.833 87.006l.6-.301c.1.3.3.501.699.501.4 0 .7-.2.7-.702 0-.401-.3-.602-.7-.602-.3 0-.5.1-.7.301l-.5-.2.1-1.906h2.1v.602h-1.6l-.1.802c.2-.1.4-.2.7-.2.7 0 1.2.501 1.2 1.203 0 .602-.4 1.204-1.3 1.204-.6 0-1-.2-1.2-.702zM90.03 87.006c.2.1.4.2.6.2.6 0 .9-.4.9-1.002-.1.2-.4.3-.8.3-.7 0-1.1-.501-1.1-1.203 0-.702.5-1.304 1.3-1.304s1.3.602 1.3 1.805c0 .602-.1 1.003-.4 1.404-.3.401-.7.502-1.2.502-.3 0-.7-.1-.9-.2l.3-.502zm.9-2.407c-.4 0-.6.3-.6.702 0 .401.2.702.6.702.4 0 .6-.2.6-.602 0-.501-.2-.802-.6-.802zM92.529 87.708c0-.602.4-1.003 1-1.605.399-.401.699-.602.699-1.003 0-.3-.2-.501-.6-.501-.3 0-.6.2-.7.501l-.5-.3c.2-.402.7-.803 1.3-.803.7 0 1.2.401 1.2 1.103 0 .502-.2.803-.6 1.003-.4.301-.9.602-1.1.903h1.7v.602h-2.4v.1zM97.625 84.8c-.2-.101-.4-.201-.6-.201-.599 0-.899.4-.899 1.002.1-.2.4-.3.8-.3.7 0 1.199.501 1.199 1.203 0 .702-.5 1.304-1.3 1.304-.799 0-1.298-.602-1.298-1.805 0-.602.1-1.103.4-1.404.3-.301.699-.502 1.199-.502.3 0 .6.1.899.2l-.4.502zm-.9 2.406c.4 0 .6-.3.6-.702 0-.401-.2-.702-.6-.702-.399 0-.599.2-.599.602 0 .401.2.802.6.802zM98.325 87.006l.6-.301c.1.3.3.501.699.501.4 0 .699-.2.699-.702 0-.401-.299-.602-.699-.602-.3 0-.5.1-.7.301l-.4-.2.1-1.906h2.099v.602h-1.599l-.1.802c.2-.1.4-.2.7-.2.699 0 1.199.501 1.199 1.203 0 .602-.4 1.204-1.299 1.204-.7 0-1.1-.2-1.3-.702zM173.872 113.984c0 .2.2.301.5.401.6.201 1.599.301 1.599 1.204 0 .601-.5 1.103-1.399 1.103-.7 0-1.199-.301-1.499-.702l.5-.401c.199.401.599.501.999.501s.699-.201.699-.501c0-.301-.399-.402-.799-.502-.6-.1-1.299-.301-1.299-1.103 0-.702.599-1.003 1.299-1.003.5 0 .999.201 1.399.702l-.5.301c-.2-.301-.499-.401-.899-.401-.3 0-.6.2-.6.401zM179.269 116.29l.299.301-.399.401-.3-.401c-.2.101-.5.201-.8.201-1.099 0-1.798-.803-1.798-1.906 0-1.003.699-1.805 1.798-1.805 1.1 0 1.799.802 1.799 1.805-.1.502-.3 1.003-.599 1.404zm-1.2-2.607c-.699 0-1.099.501-1.099 1.203 0 .702.4 1.204 1.099 1.204.1 0 .2 0 .3-.101l-.399-.501.399-.301.4.502c.2-.201.3-.502.3-.903 0-.602-.4-1.103-1-1.103zM180.868 114.785l.799-1.003h-1.499v-.601h2.298v.401l-.699.902c.5.101.899.502.899 1.104 0 .601-.399 1.203-1.399 1.203-.599 0-.999-.301-1.299-.802l.5-.301c.1.301.4.501.699.501.4 0 .7-.2.7-.702 0-.301-.2-.601-.5-.601-.1 0-.2 0-.3.1l-.199-.201zM182.966 113.783l.999-.702h.6v3.611h-.7v-2.809l-.599.402-.3-.502zM187.463 115.889v.803h-.7v-.803h-1.499v-.501l1.499-2.307h.7v2.206h.4v.602h-.4zm-.6-.602v-1.404l-.999 1.404h.999zM188.063 113.783l.999-.702h.599v3.611h-.699v-2.809l-.6.402-.299-.502zM190.361 115.989l.599-.3c.1.3.3.501.7.501.4 0 .7-.201.7-.702 0-.401-.3-.602-.7-.602-.3 0-.5.101-.7.301l-.399-.2.1-1.906h2.098v.602h-1.599l-.1.802c.2-.1.4-.2.7-.2.699 0 1.199.501 1.199 1.203 0 .602-.4 1.304-1.299 1.304-.7-.1-1.099-.301-1.299-.803zM193.659 115.99c.2.1.399.2.599.2.6 0 .9-.401.9-1.003-.1.201-.4.301-.8.301-.699 0-1.099-.501-1.099-1.203 0-.702.5-1.304 1.299-1.304.799 0 1.299.602 1.299 1.805 0 .602-.1 1.003-.4 1.404-.299.401-.699.502-1.199.502-.3 0-.699-.101-.899-.201l.3-.501zm.799-2.407c-.4 0-.599.301-.599.702 0 .401.199.702.599.702.4 0 .6-.201.6-.602 0-.501-.2-.802-.6-.802zM196.157 116.692c0-.602.4-1.003.999-1.605.4-.401.7-.602.7-1.003 0-.301-.2-.501-.6-.501-.3 0-.599.2-.699.501l-.5-.301c.2-.401.699-.802 1.299-.802.7 0 1.199.401 1.199 1.103 0 .502-.2.802-.599 1.003-.4.301-.9.602-1.1.903h1.699v.601h-2.398v.101zM201.153 113.783c-.199-.1-.399-.2-.599-.2-.6 0-.9.401-.9 1.002.1-.2.4-.3.8-.3.699 0 1.199.501 1.199 1.203 0 .702-.5 1.304-1.299 1.304-.799 0-1.299-.602-1.299-1.805 0-.602.1-1.104.4-1.404a1.65 1.65 0 0 1 1.199-.502c.3 0 .599.1.899.201l-.4.501zm-.799 2.407c.4 0 .6-.301.6-.702 0-.401-.2-.702-.6-.702-.4 0-.6.201-.6.602-.1.401.1.802.6.802zM201.853 115.989l.6-.3c.099.3.299.501.699.501.4 0 .7-.201.7-.702 0-.401-.3-.602-.7-.602-.3 0-.5.101-.699.301l-.4-.2.1-1.906h2.098v.602h-1.599l-.1.802c.2-.1.4-.2.7-.2.699 0 1.199.501 1.199 1.203 0 .602-.4 1.304-1.299 1.304-.6-.1-.999-.301-1.299-.803z" fill="#006AFF"/>
  <path d="M69.745 129.93c-.6 0-.999-.401-.999-1.003v-.802c0-.602.4-1.003 1-1.003.799 0 .999-.1 1.099-.2l-.1-.101v-2.106h-1c-.6 0-.999-.401-.999-1.003v-1.003c0-.601.4-1.003 1-1.003 1.998 0 2.498-1.103 2.498-1.103.2-.401.5-.602.9-.602h2.597c.6 0 1 .402 1 1.003v4.012c0 1.203.3 2.006.899 2.006h.2c.2 0 .5.1.6.2.2.201.3.502.3.803v1.003c0 .601-.4 1.003-1 1.003h-7.995v-.101z" fill="#fff"/>
  <path d="M75.74 120.904v4.012c0 2.808 1.4 3.009 1.9 3.009h.1v1.003h-7.995v-.803c.6 0 2.198 0 1.998-1.304v-2.507c.2-.602-1.399-.602-1.998-.602v-1.003c2.798 0 3.397-1.805 3.397-1.805h2.599zm0-2.006h-2.598c-.899 0-1.698.402-1.898 1.304-.1.101-.5.502-1.6.502-1.099 0-1.998.902-1.998 2.005v1.003c0 1.104.9 2.006 1.999 2.006v.401c-1.1 0-1.999.903-1.999 2.006v.803c0 1.103.9 2.005 1.999 2.005h7.994c1.1 0 1.999-.902 1.999-2.005v-1.003c0-.602-.2-1.204-.7-1.605-.4-.301-.8-.401-1.199-.401-.1-.201-.1-.502-.1-1.003v-4.012c.1-1.103-.8-2.006-1.898-2.006z" fill="#2E3B4E"/>
  <path d="M84.035 129.63c-3.697 0-6.095-1.906-6.095-4.814 0-1.805.8-4.814 6.096-4.814 3.697 0 6.095 1.905 6.095 4.814 0 1.805-.8 4.814-6.096 4.814zm-.1-6.82c-.1.401-.1 1.404-.1 2.006 0 .501 0 1.304.1 1.805.1-.401.2-.902.2-1.805-.1-.602-.1-1.605-.2-2.006z" fill="#fff"/>
  <path d="M84.035 121.004c2.798 0 5.096 1.204 5.096 3.811 0 2.909-2.298 3.811-5.096 3.811s-5.097-1.203-5.097-3.811c0-2.908 2.299-3.811 5.097-3.811zm-.1 7.021c.8 0 1.1-1.404 1.1-3.21 0-1.805 0-3.209-1.1-3.209s-1.1 1.404-1.1 3.209c-.1 1.806-.1 3.21 1.1 3.21zm.1-9.026c-1.699 0-7.095.401-7.095 5.816 0 3.511 2.798 5.817 7.095 5.817 1.699 0 7.095-.401 7.095-5.817 0-3.409-2.798-5.816-7.095-5.816z" fill="#2E3B4E"/>
  <path d="M96.827 129.63c-3.698 0-6.096-1.906-6.096-4.814 0-1.805.8-4.814 6.096-4.814 3.697 0 6.095 1.905 6.095 4.814 0 1.805-.799 4.814-6.095 4.814zm-.2-6.82c-.1.401-.1 1.404-.1 2.006 0 .501 0 1.304.1 1.805.1-.401.2-.902.2-1.805 0-.602 0-1.605-.2-2.006z" fill="#fff"/>
  <path d="M96.826 121.004c2.798 0 5.096 1.204 5.096 3.811 0 2.909-2.298 3.811-5.096 3.811s-5.097-1.203-5.097-3.811c0-2.908 2.299-3.811 5.097-3.811zm-.2 7.021c.8 0 1.1-1.404 1.1-3.21 0-1.805 0-3.209-1.1-3.209s-1.1 1.404-1.1 3.209c0 1.806 0 3.21 1.1 3.21zm.2-9.026c-1.699 0-7.095.401-7.095 5.816 0 3.511 2.798 5.817 7.095 5.817 1.699 0 7.095-.401 7.095-5.817 0-3.409-2.898-5.816-7.095-5.816z" fill="#2E3B4E"/>
  <path d="M205.65 83.796h-33.976c-.6 0-.999.401-.999 1.003v5.015c0 .602.399 1.003.999 1.003h33.976c.6 0 1-.401 1-1.003v-5.015c0-.602-.4-1.003-1-1.003z" stroke="#2E3B4E" stroke-width="2" stroke-miterlimit="10"/>
  <path d="M230.633 59.727H69.745c-1.1 0-1.999.902-1.999 2.005v66.192c0 1.103.9 2.006 1.999 2.006h160.888a2.009 2.009 0 0 0 1.999-2.006V61.732c0-1.103-.9-2.005-1.999-2.005z" fill="#fff" stroke="#3E4348" stroke-width="2" stroke-miterlimit="10" stroke-linecap="round" stroke-linejoin="round"/>
  <path d="M222.639 63.738h-144.9c-3.298 0-5.996 2.708-5.996 6.018V119.9c0 3.31 2.698 6.018 5.996 6.018h144.9c3.297 0 5.995-2.708 5.995-6.018V69.756c0-3.31-2.598-6.018-5.995-6.018z" stroke="#3E4348" stroke-width="2" stroke-miterlimit="10" stroke-linecap="round" stroke-linejoin="round"/>
  <path d="M220.74 118.898H79.738c-4.397 0-7.895-4.011-7.895-8.023v8.926c0 3.41 2.698 6.118 6.096 6.118h144.7c3.397 0 6.095-2.708 6.095-6.118v-8.926c-.1 4.413-3.597 8.023-7.994 8.023zM222.639 63.738h-144.8c-3.398 0-6.096 2.708-6.096 6.118v8.926c0-4.413 3.598-8.023 7.895-8.023H220.64c4.397 0 7.894 3.61 7.894 8.023v-8.926a5.902 5.902 0 0 0-5.895-6.118z" fill="#006AFF" stroke="#3E4348" stroke-width="2" stroke-miterlimit="10" stroke-linecap="round" stroke-linejoin="round"/>
  <path d="M82.736 106.863h22.984M198.655 113.884h-22.984" stroke="#3E4348" stroke-width="2" stroke-miterlimit="10" stroke-linecap="round" stroke-linejoin="round"/>
  <path d="M221.639 113.884h-18.987" stroke="#006AFF" stroke-width="2" stroke-miterlimit="10" stroke-linecap="round" stroke-linejoin="round"/>
  <path d="M197.756 87.908l1.799-.802 1.199 1.605 1.998.2.2 2.006 1.599 1.103-.799 1.906.799 1.805-1.599 1.203-.2 1.906-1.998.3-1.199 1.505-1.799-.702-1.799.702-1.199-1.504-1.899-.301-.3-1.906-1.499-1.203.7-1.805-.7-1.906 1.499-1.103.3-2.006 1.899-.2 1.199-1.605 1.799.802z" fill="#006AFF" stroke="#3E4348" stroke-width="2" stroke-miterlimit="10" stroke-linecap="round" stroke-linejoin="round"/>
  <path d="M198.156 96.834a2.503 2.503 0 0 0 2.498-2.507 2.503 2.503 0 0 0-2.498-2.508 2.503 2.503 0 0 0-2.499 2.508 2.503 2.503 0 0 0 2.499 2.507zM140.695 125.919c17.109 0 30.979-13.92 30.979-31.09 0-17.171-13.87-31.09-30.979-31.09s-30.978 13.919-30.978 31.09c0 17.17 13.869 31.09 30.978 31.09z" fill="#006AFF" stroke="#3E4348" stroke-width="2" stroke-miterlimit="10" stroke-linecap="round" stroke-linejoin="round"/>
  <path d="M140.196 125.919c14.073 0 25.482-13.92 25.482-31.09 0-17.171-11.409-31.09-25.482-31.09-14.074 0-25.483 13.919-25.483 31.09 0 17.17 11.409 31.09 25.483 31.09z" fill="#fff" stroke="#3E4348" stroke-width="2" stroke-miterlimit="10" stroke-linecap="round" stroke-linejoin="round"/>
  <path d="M139.696 86.805a1 1 0 0 0 .999-1.003 1 1 0 0 0-.999-1.003 1 1 0 0 0-.999 1.003 1 1 0 0 0 .999 1.003z" fill="#2E3B4E"/>
  <path d="M159.882 114.385c-.599.601-2.498 3.109-2.498 3.109-.999 1.003-1.999-.401-2.998-1.003-.999-.602-3.398-4.313-3.997-5.616.999-.602 2.198-1.906 2.898-3.21.599-1.304 2.898-6.318 2.898-11.734 0-5.415-.6-9.227-.6-10.23 0-1.002.6-4.813.3-6.318-.3-1.504-.3-1.303.3-.602.599.602 2.198 4.112 2.198 6.018 0 1.905-.599 5.115 1.299 7.321 1.899 2.207 4.097 5.416 2.898 8.926-1.299 3.51-3.198 4.112-2.198 5.416.999 1.304 1.898 2.507 1.599 4.814-1.199 1.203-2.099 3.109-2.099 3.109zM124.707 111.276c-1.799-.301-3.498-2.207-5.097 1.304-.599-1.003-1.299-1.605-1.899-3.21-.599-1.604-3.297-10.931-3.297-10.931s0-3.01 2.298-2.809c1.799.201 1.599-1.604 1.099-2.808-.499-1.303-2.398-4.413 1.399-6.017 2.998-1.304 4.098-1.906 4.098-1.906s-1-1.905.599-3.51c.999-1.003 1.299-1.304 1.299-3.81 0-2.508 2.099-6.119 7.595-6.32-1.299 1.305-2.199 3.812-2.498 7.623-.3 3.81 1.998 7.421.299 8.224-3.197 1.604-.999 5.115-4.796 7.622 0 0 0 3.21 2.498 4.814.3 0 .3 1.304.3 1.304s-1.399 7.722-1.399 9.728c.2-.101-.8.902-2.498.702z" fill="#006AFF"/>
  <path d="M150.289 110.875s-1.299 3.911-1.299 6.719c0 2.909-1 3.811-2.898 4.112-1.899.301-4.397.602-7.895-2.206-3.497-2.808-9.793-8.224-10.193-11.734-.3-3.51.6-5.115.6-7.923" stroke="#3E4348" stroke-width="2" stroke-miterlimit="10" stroke-linecap="round" stroke-linejoin="round"/>
  <path d="M128.404 103.453s1.699.802 2.598 2.407c.999 1.605 7.595 9.829 12.092 10.531 4.397.601 6.295-1.304 6.695-3.21M130.403 98.238s-1 1.906-2.199 1.003c-2.698-2.106-2.198-4.413-2.198-4.413" stroke="#3E4348" stroke-width="2" stroke-miterlimit="10" stroke-linecap="round" stroke-linejoin="round"/>
  <path d="M128.404 92.42s-2.099 2.608-4.397 2.91c-2.198.3-3.198 3.51-.6 5.114 2.599 1.605 3.198 3.209 2.199 4.814-.999 1.605-3.498 3.811-.999 6.018M120.51 108.668s-1.3-1.303 0-3.51M116.712 106.161s0-3.811 2.498-4.112M132.901 71.16c-1.998 0-6.495.2-7.295 4.412-.2 1.304-.1 4.413-1.199 4.814-2.298.702-1.899 2.808-.999 4.413-9.993 1.604-6.696 6.117-5.396 8.224.299.501 1.199 2.908-1 2.206-.999-.3-1.599-.1-1.998.3M121.209 92.421s-.3-2.206 1.899-2.507M130.702 78.18s-1.299.3-1.898 2.206M130.702 86.504s-1.299.3-1.898 2.206M156.385 110.474s2.998 0 2.998 4.011M149.989 102.651s-.999 1.605-4.797 0M151.388 100.444s-.999-2.005-2.298-.301c-.9 1.104-.9-1.303-2.699-.702-1.898.602-3.497.502-3.897.301-.799-.3-2.098-.3-2.298.502M144.293 93.424s-1 .802-.6 1.504c.3.803 1.3 1.003 1.3 1.003M147.79 95.931s2.499-1.303 1.899-3.209c-.599-1.905-2.498-7.02-.999-9.527 0 0 5.196-4.313 6.895 0M136.998 86.203s1.399-1.805 3.198-1.805 2.198 2.307 2.198 2.307" stroke="#3E4348" stroke-width="2" stroke-miterlimit="10" stroke-linecap="round" stroke-linejoin="round"/>
  <path d="M151.688 86.805a1 1 0 0 0 .999-1.003 1 1 0 0 0-.999-1.003 1 1 0 0 0-.999 1.003 1 1 0 0 0 .999 1.003z" fill="#2E3B4E"/>
  <path d="M148.99 86.203s1.399-1.805 3.198-1.805c1.798 0 2.198 2.307 2.198 2.307M142.994 81.189s-2.199-1.304-4.097-1.003c-1.899.3-2.898 1.905-2.898 1.905" stroke="#3E4348" stroke-width="2" stroke-miterlimit="10" stroke-linecap="round" stroke-linejoin="round"/>
  <path d="M130.403 74.97s1.898-7.02 11.691-7.02c6.996 0 10.193 2.507 12.192 7.12 2.099 4.815 1.699 6.219 1.399 8.425-.3 2.207 0 6.72.3 8.625.3 1.906-.7 11.333-3.198 15.846s-4.897 2.909-7.595 2.909c-3.397.1-9.093-3.711-9.393-4.915" stroke="#3E4348" stroke-width="2" stroke-miterlimit="10" stroke-linecap="round" stroke-linejoin="round"/>
  <path d="M161.881 109.37c-.1-.401-.2-.903-.4-1.404-.6-1.304-2.398-1.705-.999-3.209 1.898-1.906 3.497-7.02.599-10.53-1.998-2.408-2.998-3.21-2.898-6.32.3-7.621-2.898-10.229-2.898-10.229M150.389 110.975s1.699 4.513 5.496 7.12M130.403 98.238s.999 4.212 2.998 5.215M142.694 90.014s-.599 1.304-2.198 1.605M138.597 97.837s-1.599.602-1.599 2.206" stroke="#3E4348" stroke-width="2" stroke-miterlimit="10" stroke-linecap="round" stroke-linejoin="round"/>
  <path d="M140.196 125.919c14.073 0 25.482-13.92 25.482-31.09 0-17.171-11.409-31.09-25.482-31.09-14.074 0-25.483 13.919-25.483 31.09 0 17.17 11.409 31.09 25.483 31.09zM93.728 101.849c4.967 0 8.994-4.041 8.994-9.026 0-4.985-4.027-9.027-8.994-9.027s-8.994 4.041-8.994 9.027c0 4.985 4.027 9.026 8.994 9.026z" stroke="#3E4348" stroke-width="2" stroke-miterlimit="10" stroke-linecap="round" stroke-linejoin="round"/>
  <path d="M93.228 96.834c2.484 0 4.497-2.02 4.497-4.513 0-2.492-2.013-4.513-4.497-4.513-2.483 0-4.496 2.02-4.496 4.513s2.013 4.513 4.496 4.513z" fill="#006AFF" stroke="#2E3B4E" stroke-width="2" stroke-miterlimit="10"/>
  <path d="M79.238 76.976c0 .2.2.301.5.401.6.201 1.599.301 1.599 1.204 0 .602-.5 1.103-1.4 1.103-.699 0-1.198-.3-1.498-.702l.5-.3c.2.4.599.5.999.5s.7-.2.7-.5c0-.302-.4-.402-.8-.502-.6-.1-1.3-.301-1.3-1.103 0-.702.6-1.003 1.3-1.003.5 0 .999.2 1.399.702l-.5.3c-.2-.3-.5-.4-.9-.4-.3-.1-.599 0-.599.3zM84.634 79.283l.3.3-.4.402-.3-.401c-.2.1-.499.2-.799.2-1.099 0-1.799-.802-1.799-1.905 0-1.003.7-1.805 1.8-1.805 1.098 0 1.798.802 1.798 1.805 0 .501-.2 1.003-.6 1.404zm-1.199-2.708c-.7 0-1.099.502-1.099 1.204s.4 1.203 1.1 1.203c.1 0 .2 0 .299-.1l-.4-.502.4-.3.4.501c.2-.2.3-.502.3-.903.1-.501-.3-1.103-1-1.103zM86.333 77.678l.8-1.002h-1.5v-.602h2.3v.4l-.7.903c.5.1.899.502.899 1.104 0 .601-.4 1.203-1.4 1.203-.599 0-.998-.3-1.298-.802l.5-.301c.1.3.4.501.699.501.4 0 .7-.2.7-.702 0-.3-.2-.601-.5-.601-.1 0-.2 0-.3.1l-.2-.2zM88.432 76.776l.999-.702h.6v3.61h-.7v-2.808l-.6.401-.3-.501zM92.929 78.882v.802h-.7v-.802H90.73v-.502l1.5-2.306h.699v2.206h.4v.602h-.4zm-.7-.602v-1.404l-.9 1.404h.9zM93.428 76.776l1-.702h.6v3.61h-.7v-2.808l-.6.401-.3-.501zM95.827 78.982l.6-.3c.1.3.299.5.699.5.4 0 .7-.2.7-.701 0-.401-.3-.602-.7-.602-.3 0-.5.1-.7.3l-.4-.2.1-1.905h2.099v.602h-1.599l-.1.802c.2-.1.4-.2.7-.2.7 0 1.199.5 1.199 1.203 0 .601-.4 1.203-1.3 1.203-.699 0-1.099-.2-1.298-.702zM99.024 78.982c.2.1.4.2.6.2.6 0 .899-.4.899-1.002-.1.2-.399.3-.8.3-.699 0-1.098-.5-1.098-1.203 0-.702.5-1.303 1.299-1.303.799 0 1.299.601 1.299 1.805 0 .602-.1 1.003-.4 1.404-.3.401-.699.501-1.199.501-.3 0-.7-.1-.9-.2l.3-.502zm.9-2.407c-.4 0-.6.301-.6.702 0 .402.2.702.6.702.399 0 .599-.2.599-.601 0-.502-.2-.803-.6-.803zM101.523 79.684c0-.601.399-1.002.999-1.604.4-.401.699-.602.699-1.003 0-.301-.199-.502-.599-.502-.3 0-.6.201-.7.502l-.499-.301c.2-.401.699-.802 1.299-.802.699 0 1.199.4 1.199 1.103 0 .501-.2.802-.6 1.003-.399.3-.899.602-1.099.902h1.699v.602h-2.398v.1zM106.619 76.776c-.2-.1-.4-.2-.6-.2-.599 0-.899.4-.899 1.002.1-.2.4-.3.8-.3.699 0 1.199.5 1.199 1.203 0 .702-.5 1.303-1.299 1.303-.8 0-1.299-.601-1.299-1.805 0-.602.099-1.103.399-1.404.3-.3.7-.501 1.199-.501.3 0 .6.1.9.2l-.4.502zm-.899 2.407c.399 0 .599-.301.599-.702 0-.401-.2-.702-.599-.702-.4 0-.6.2-.6.601 0 .402.2.803.6.803zM107.319 78.982l.599-.3c.1.3.3.5.7.5.399 0 .699-.2.699-.701 0-.401-.3-.602-.699-.602-.3 0-.5.1-.7.3l-.4-.2.1-1.905h2.099v.602h-1.599l-.1.802c.2-.1.4-.2.7-.2.699 0 1.199.5 1.199 1.203 0 .601-.4 1.203-1.299 1.203-.7 0-1.1-.2-1.299-.702zM182.866 105.96c0 .201.2.301.5.402.599.2 1.599.3 1.599 1.203 0 .602-.5 1.103-1.399 1.103-.7 0-1.199-.301-1.499-.702l.499-.401c.2.401.6.502 1 .502.399 0 .699-.201.699-.502s-.4-.401-.799-.501c-.6-.101-1.299-.301-1.299-1.104 0-.702.599-1.002 1.299-1.002.499 0 .999.2 1.399.702l-.5.3c-.2-.3-.5-.401-.899-.401-.3 0-.6.201-.6.401zM188.262 108.267l.3.301-.4.401-.299-.401c-.2.1-.5.2-.8.2-1.099 0-1.799-.802-1.799-1.905 0-1.003.7-1.805 1.799-1.805s1.799.802 1.799 1.805c-.1.501-.3 1.003-.6 1.404zm-1.199-2.608c-.699 0-1.099.502-1.099 1.204s.4 1.203 1.099 1.203c.1 0 .2 0 .3-.1l-.4-.501.4-.301.4.501c.2-.2.3-.501.3-.902 0-.602-.4-1.104-1-1.104zM189.861 106.762l.8-1.003h-1.499v-.602h2.298v.401l-.699.903c.499.1.899.501.899 1.103s-.4 1.204-1.399 1.204c-.6 0-.999-.301-1.299-.803l.5-.301a.75.75 0 0 0 .699.502c.4 0 .7-.201.7-.702 0-.301-.2-.602-.5-.602-.1 0-.2 0-.3.1l-.2-.2zM191.96 105.76l.999-.702h.6v3.61h-.7v-2.808l-.599.401-.3-.501zM196.457 107.866v.802h-.7v-.802h-1.499v-.502l1.499-2.306h.7v2.206h.399v.602h-.399zm-.6-.602v-1.404l-.999 1.404h.999zM197.056 105.76l1-.702h.599v3.61h-.699v-2.808l-.6.401-.3-.501zM199.355 107.966l.599-.301c.1.301.3.502.7.502.399 0 .699-.201.699-.702 0-.402-.3-.602-.699-.602-.3 0-.5.1-.7.301l-.399-.201.099-1.905h2.099v.601h-1.599l-.1.803c.2-.101.4-.201.7-.201.699 0 1.199.502 1.199 1.204 0 .601-.4 1.303-1.299 1.303-.7-.1-1.099-.301-1.299-.802zM202.652 107.966c.2.101.4.201.6.201.6 0 .899-.401.899-1.003-.1.201-.399.301-.799.301-.7 0-1.099-.502-1.099-1.204s.499-1.303 1.299-1.303c.799 0 1.299.601 1.299 1.805 0 .601-.1 1.003-.4 1.404-.3.401-.699.501-1.199.501-.3 0-.7-.1-.899-.2l.299-.502zm.8-2.407c-.4 0-.6.301-.6.702 0 .401.2.702.6.702.4 0 .599-.2.599-.601 0-.502-.199-.803-.599-.803zM205.151 108.668c0-.601.399-1.003.999-1.604.4-.402.699-.602.699-1.003 0-.301-.199-.502-.599-.502-.3 0-.6.201-.7.502l-.499-.301c.2-.401.699-.802 1.299-.802.699 0 1.199.401 1.199 1.103 0 .501-.2.802-.6 1.003-.399.301-.899.601-1.099.902h1.699v.602h-2.398v.1zM210.147 105.76c-.2-.101-.4-.201-.599-.201-.6 0-.9.401-.9 1.003.1-.201.4-.301.8-.301.699 0 1.199.502 1.199 1.204s-.5 1.303-1.299 1.303c-.8 0-1.299-.601-1.299-1.805 0-.602.1-1.103.399-1.404.3-.301.7-.501 1.2-.501.299 0 .599.1.899.2l-.4.502zm-.799 2.407c.399 0 .599-.301.599-.702 0-.402-.2-.702-.599-.702-.4 0-.6.2-.6.601-.1.401.1.803.6.803zM210.847 107.966l.599-.301c.1.301.3.502.7.502.4 0 .699-.201.699-.702 0-.402-.299-.602-.699-.602-.3 0-.5.1-.7.301l-.399-.201.099-1.905h2.099v.601h-1.599l-.1.803c.2-.101.4-.201.7-.201.699 0 1.199.502 1.199 1.204 0 .601-.4 1.303-1.299 1.303-.6-.1-1-.301-1.299-.802z" fill="#006AFF"/>
  <path d="M78.74 121.907c-.6 0-1-.401-1-1.003v-.802c0-.602.4-1.003 1-1.003.799 0 .999-.101 1.099-.201l-.1-.1v-2.106h-1c-.6 0-1-.401-1-1.003v-1.003c0-.602.4-1.003 1-1.003 1.999 0 2.498-1.103 2.498-1.103.2-.401.5-.602.9-.602h2.598c.6 0 1 .401 1 1.003v4.012c0 1.203.3 2.005.899 2.005h.2c.2 0 .5.101.6.201.199.201.299.501.299.802v1.003c0 .602-.4 1.003-1 1.003H78.74v-.1z" fill="#fff"/>
  <path d="M84.734 112.881v4.011c0 2.809 1.4 3.009 1.899 3.009h.1v1.003h-7.995v-.802c.6 0 2.199 0 2-1.304v-2.507c.199-.602-1.4-.602-2-.602v-1.003c2.799 0 3.398-1.805 3.398-1.805h2.598zm0-2.006h-2.598c-.9 0-1.699.401-1.899 1.304-.1.1-.5.501-1.598.501-1.1 0-2 .903-2 2.006v1.003c0 1.103.9 2.006 2 2.006v.401c-1.1 0-2 .903-2 2.006v.802c0 1.103.9 2.006 2 2.006h7.994c1.1 0 1.999-.903 1.999-2.006v-1.003c0-.602-.2-1.203-.7-1.604-.4-.301-.8-.402-1.2-.402-.099-.2-.099-.501-.099-1.003v-4.011c.1-1.103-.8-2.006-1.899-2.006z" fill="#2E3B4E"/>
  <path d="M93.03 121.606c-3.698 0-6.097-1.905-6.097-4.814 0-1.805.8-4.813 6.096-4.813 3.698 0 6.096 1.905 6.096 4.813 0 1.806-.8 4.814-6.096 4.814zm-.1-6.819c-.1.401-.1 1.404-.1 2.005 0 .502 0 1.304.1 1.806.1-.401.2-.903.2-1.806-.1-.601-.1-1.604-.2-2.005z" fill="#fff"/>
  <path d="M93.029 112.981c2.798 0 5.096 1.203 5.096 3.811 0 2.908-2.298 3.811-5.096 3.811s-5.097-1.203-5.097-3.811c0-2.908 2.299-3.811 5.097-3.811zm-.1 7.02c.8 0 1.099-1.404 1.099-3.209 0-1.805 0-3.209-1.1-3.209-1.099 0-1.099 1.404-1.099 3.209-.1 1.805-.1 3.209 1.1 3.209zm.1-9.026c-1.7 0-7.096.401-7.096 5.817 0 3.51 2.798 5.817 7.096 5.817 1.698 0 7.095-.401 7.095-5.817 0-3.41-2.798-5.817-7.095-5.817z" fill="#2E3B4E"/>
  <path d="M105.82 121.606c-3.697 0-6.095-1.905-6.095-4.814 0-1.805.799-4.813 6.095-4.813 3.698 0 6.096 1.905 6.096 4.813 0 1.806-.799 4.814-6.096 4.814zm-.2-6.819c-.099.401-.099 1.404-.099 2.005 0 .502 0 1.304.099 1.806.1-.401.2-.903.2-1.806 0-.601 0-1.604-.2-2.005z" fill="#fff"/>
  <path d="M105.82 112.981c2.798 0 5.096 1.203 5.096 3.811 0 2.908-2.298 3.811-5.096 3.811s-5.097-1.203-5.097-3.811c0-2.908 2.299-3.811 5.097-3.811zm-.2 7.02c.799 0 1.099-1.404 1.099-3.209 0-1.805 0-3.209-1.099-3.209s-1.099 1.404-1.099 3.209c0 1.805 0 3.209 1.099 3.209zm.2-9.026c-1.699 0-7.095.401-7.095 5.817 0 3.51 2.798 5.817 7.095 5.817 1.698 0 7.095-.401 7.095-5.817 0-3.41-2.898-5.817-7.095-5.817z" fill="#2E3B4E"/>
  <path d="M214.644 75.773h-33.976c-.6 0-1 .401-1 1.003v5.014c0 .602.4 1.003 1 1.003h33.976c.6 0 .999-.4.999-1.003v-5.014c0-.602-.399-1.003-.999-1.003z" stroke="#2E3B4E" stroke-width="2" stroke-miterlimit="10"/>
  <path d="M239.627 51.704H78.738c-1.099 0-1.998.902-1.998 2.005v66.192c0 1.104.9 2.006 1.998 2.006h160.889a2.007 2.007 0 0 0 1.998-2.006V53.709a2.008 2.008 0 0 0-1.998-2.005z" fill="#fff" stroke="#3E4348" stroke-width="2" stroke-miterlimit="10" stroke-linecap="round" stroke-linejoin="round"/>
  <path d="M231.632 55.715h-144.9c-3.297 0-5.995 2.708-5.995 6.018v50.145c0 3.31 2.698 6.018 5.996 6.018h144.899c3.298 0 5.996-2.708 5.996-6.018V61.733c0-3.31-2.598-6.018-5.996-6.018z" stroke="#3E4348" stroke-width="2" stroke-miterlimit="10" stroke-linecap="round" stroke-linejoin="round"/>
  <path d="M229.734 110.875H88.732c-4.397 0-7.895-4.011-7.895-8.023v8.926c0 3.41 2.698 6.118 6.096 6.118h144.699c3.398 0 6.096-2.708 6.096-6.118v-8.926c-.1 4.413-3.597 8.023-7.994 8.023zM231.632 55.715h-144.8c-3.397 0-6.095 2.708-6.095 6.118v8.926c0-4.413 3.598-8.023 7.895-8.023h141.002c4.397 0 7.894 3.61 7.894 8.023v-8.926a5.902 5.902 0 0 0-5.896-6.118z" fill="#006AFF" stroke="#3E4348" stroke-width="2" stroke-miterlimit="10" stroke-linecap="round" stroke-linejoin="round"/>
  <path d="M91.73 98.84h22.983M207.649 105.86h-22.984" stroke="#3E4348" stroke-width="2" stroke-miterlimit="10" stroke-linecap="round" stroke-linejoin="round"/>
  <path d="M230.633 105.86h-18.987" stroke="#006AFF" stroke-width="2" stroke-miterlimit="10" stroke-linecap="round" stroke-linejoin="round"/>
  <path d="M206.75 79.885l1.798-.802 1.199 1.605 1.999.2.2 2.006 1.599 1.103-.8 1.906.8 1.805-1.599 1.204-.2 1.905-1.999.3-1.199 1.505-1.798-.702-1.799.702-1.199-1.504-1.899-.301-.3-1.905-1.499-1.204.7-1.805-.7-1.906 1.499-1.103.3-2.006 1.899-.2 1.199-1.605 1.799.802z" fill="#006AFF" stroke="#3E4348" stroke-width="2" stroke-miterlimit="10" stroke-linecap="round" stroke-linejoin="round"/>
  <path d="M206.65 88.811a3.004 3.004 0 0 0 2.998-3.008 3.004 3.004 0 0 0-2.998-3.01 3.003 3.003 0 0 0-2.998 3.01 3.003 3.003 0 0 0 2.998 3.008zM149.689 117.896c17.109 0 30.979-13.92 30.979-31.09 0-17.171-13.87-31.09-30.979-31.09s-30.978 13.919-30.978 31.09c0 17.17 13.869 31.09 30.978 31.09z" fill="#006AFF" stroke="#3E4348" stroke-width="2" stroke-miterlimit="10" stroke-linecap="round" stroke-linejoin="round"/>
  <path d="M149.189 117.896c14.074 0 25.483-13.92 25.483-31.09 0-17.171-11.409-31.09-25.483-31.09-14.073 0-25.482 13.919-25.482 31.09 0 17.17 11.409 31.09 25.482 31.09z" fill="#fff" stroke="#3E4348" stroke-width="2" stroke-miterlimit="10" stroke-linecap="round" stroke-linejoin="round"/>
  <path d="M148.69 78.782a1 1 0 0 0 .999-1.003 1 1 0 0 0-.999-1.003c-.552 0-1 .45-1 1.003 0 .554.448 1.003 1 1.003z" fill="#2E3B4E"/>
  <path d="M168.876 106.362c-.6.602-2.498 3.109-2.498 3.109-1 1.003-1.999-.401-2.998-1.002-1-.602-3.398-4.313-3.998-5.617 1-.601 2.199-1.905 2.898-3.209.6-1.304 2.898-6.318 2.898-11.734s-.599-9.227-.599-10.23c0-1.003.599-4.814.3-6.318-.3-1.605-.3-1.304.299-.602.6.602 2.199 4.112 2.199 6.018 0 1.905-.6 5.114 1.299 7.32 1.899 2.207 4.097 5.417 2.898 8.927-1.299 3.51-3.198 4.112-2.199 5.415 1 1.304 1.899 2.508 1.599 4.814-1.199 1.204-2.098 3.109-2.098 3.109zM133.7 103.253c-1.799-.301-3.497-2.206-5.096 1.304-.6-1.003-1.299-1.605-1.899-3.209-.599-1.605-3.298-10.932-3.298-10.932s0-3.009 2.299-2.808c1.799.2 1.599-1.605 1.099-2.808-.5-1.304-2.398-4.413 1.399-6.018 2.998-1.303 4.097-1.905 4.097-1.905s-.999-1.906.6-3.51c.999-1.003 1.299-1.304 1.299-3.811 0-2.508 2.098-6.118 7.595-6.319-1.299 1.304-2.199 3.811-2.499 7.622-.299 3.811 1.999 7.422.3 8.224-3.198 1.605-.999 5.115-4.797 7.622 0 0 0 3.21 2.499 4.814.3 0 .3 1.304.3 1.304s-1.4 7.722-1.4 9.728c.2-.1-.799.903-2.498.702z" fill="#006AFF"/>
  <path d="M159.282 102.852s-1.299 3.912-1.299 6.72c0 2.908-.999 3.811-2.898 4.112-1.898.301-4.397.601-7.894-2.207-3.498-2.808-9.793-8.224-10.193-11.734-.3-3.51.599-5.114.599-7.923" stroke="#3E4348" stroke-width="2" stroke-miterlimit="10" stroke-linecap="round" stroke-linejoin="round"/>
  <path d="M137.398 95.43s1.699.803 2.598 2.408c.999 1.604 7.595 9.828 12.091 10.53 4.397.602 6.296-1.304 6.696-3.209M139.396 90.216s-.999 1.905-2.198 1.003c-2.698-2.107-2.199-4.413-2.199-4.413" stroke="#3E4348" stroke-width="2" stroke-miterlimit="10" stroke-linecap="round" stroke-linejoin="round"/>
  <path d="M137.398 84.398s-2.099 2.608-4.397 2.909c-2.199.3-3.198 3.51-.6 5.115 2.598 1.604 3.198 3.209 2.199 4.814-1 1.604-3.498 3.811-1 6.017M129.504 100.646s-1.3-1.304 0-3.51M125.706 98.138s0-3.81 2.498-4.112M141.895 63.137c-1.999 0-6.496.2-7.295 4.413-.2 1.304-.1 4.413-1.199 4.814-2.299.702-1.899 2.808-.999 4.413-9.993 1.604-6.696 6.117-5.397 8.224.3.501 1.2 2.908-.999 2.206-.999-.3-1.599-.1-1.999.3M130.203 84.399s-.3-2.207 1.898-2.507M139.696 70.157s-1.299.301-1.899 2.207M139.696 78.481s-1.299.301-1.899 2.207M165.378 102.451s2.998 0 2.998 4.012M158.983 94.628s-1 1.605-4.797 0M160.382 92.422s-1-2.006-2.299-.301c-.899 1.103-.899-1.304-2.698-.702-1.899.602-3.497.501-3.897.3-.8-.3-2.099-.3-2.299.502M153.287 85.401s-1 .803-.6 1.505c.3.802 1.3 1.003 1.3 1.003M156.784 87.909s2.498-1.304 1.899-3.21c-.6-1.905-2.498-7.02-.999-9.527 0 0 5.196-4.313 6.895 0M145.992 78.18s1.399-1.805 3.198-1.805c1.798 0 2.198 2.307 2.198 2.307" stroke="#3E4348" stroke-width="2" stroke-miterlimit="10" stroke-linecap="round" stroke-linejoin="round"/>
  <path d="M160.681 78.782c.552 0 1-.449 1-1.003 0-.554-.448-1.003-1-1.003-.551 0-.999.45-.999 1.003 0 .554.448 1.003.999 1.003z" fill="#2E3B4E"/>
  <path d="M157.983 78.18s1.399-1.805 3.198-1.805 2.199 2.307 2.199 2.307M151.988 73.166s-2.199-1.304-4.098-1.003c-1.898.301-2.898 1.906-2.898 1.906" stroke="#3E4348" stroke-width="2" stroke-miterlimit="10" stroke-linecap="round" stroke-linejoin="round"/>
  <path d="M139.396 66.948s1.899-7.02 11.692-7.02c6.995 0 10.193 2.507 12.192 7.12 2.098 4.814 1.699 6.218 1.399 8.425-.3 2.206 0 6.72.3 8.625.299 1.905-.7 11.333-3.198 15.846-2.499 4.513-4.897 2.908-7.595 2.908-3.398.1-9.094-3.71-9.393-4.914" stroke="#3E4348" stroke-width="2" stroke-miterlimit="10" stroke-linecap="round" stroke-linejoin="round"/>
  <path d="M170.874 101.348c-.1-.402-.199-.903-.399-1.404-.6-1.304-2.399-1.705-1-3.21 1.899-1.905 3.498-7.02.6-10.53-1.999-2.407-2.998-3.21-2.898-6.319.3-7.622-2.898-10.23-2.898-10.23M159.382 102.953s1.699 4.513 5.497 7.12M139.396 90.215s1 4.212 2.998 5.215M151.688 81.992s-.6 1.303-2.199 1.604M147.591 89.814s-1.599.602-1.599 2.207" stroke="#3E4348" stroke-width="2" stroke-miterlimit="10" stroke-linecap="round" stroke-linejoin="round"/>
  <path d="M149.189 117.896c14.074 0 25.483-13.92 25.483-31.09 0-17.171-11.409-31.09-25.483-31.09-14.073 0-25.482 13.919-25.482 31.09 0 17.17 11.409 31.09 25.482 31.09zM102.722 93.826c4.967 0 8.994-4.041 8.994-9.026 0-4.985-4.027-9.027-8.994-9.027s-8.994 4.042-8.994 9.027c0 4.985 4.027 9.026 8.994 9.026z" stroke="#3E4348" stroke-width="2" stroke-miterlimit="10" stroke-linecap="round" stroke-linejoin="round"/>
  <path d="M102.722 89.814c2.759 0 4.996-2.245 4.996-5.014 0-2.77-2.237-5.015-4.996-5.015-2.76 0-4.997 2.245-4.997 5.015 0 2.77 2.237 5.014 4.997 5.014z" fill="#006AFF" stroke="#2E3B4E" stroke-width="2" stroke-miterlimit="10"/>
  <path d="M88.232 68.953c0 .201.2.301.5.402.6.2 1.598.3 1.598 1.203 0 .602-.5 1.103-1.399 1.103-.7 0-1.199-.3-1.499-.702l.5-.3c.2.4.6.5 1 .5s.699-.2.699-.5c0-.302-.4-.402-.8-.502-.6-.1-1.299-.301-1.299-1.103 0-.702.6-1.003 1.3-1.003.5 0 .999.2 1.399.702l-.5.3c-.2-.3-.5-.4-.9-.4-.3-.1-.6 0-.6.3zM93.628 71.26l.3.301-.4.401-.3-.401c-.2.1-.5.2-.799.2-1.1 0-1.799-.802-1.799-1.905 0-1.003.7-1.805 1.799-1.805 1.1 0 1.799.802 1.799 1.805 0 .502-.2 1.003-.6 1.404zm-1.199-2.708c-.7 0-1.1.502-1.1 1.204s.4 1.203 1.1 1.203c.1 0 .2 0 .3-.1l-.4-.501.4-.301.4.501c.2-.2.3-.501.3-.903.1-.501-.3-1.103-1-1.103zM95.327 69.655l.8-1.002h-1.5v-.602h2.299v.4l-.7.904c.5.1.9.501.9 1.103s-.4 1.203-1.4 1.203c-.599 0-.999-.3-1.298-.802l.5-.301c.1.3.399.501.699.501.4 0 .7-.2.7-.701 0-.301-.2-.602-.5-.602-.1 0-.2 0-.3.1l-.2-.2zM97.425 68.753l1-.702h.6v3.61h-.7v-2.808l-.6.401-.3-.501zM101.922 70.859v.802h-.699v-.802h-1.5v-.501l1.5-2.307h.699v2.206h.4v.602h-.4zm-.699-.602v-1.404l-.9 1.404h.9zM102.422 68.753l.999-.702h.6v3.61h-.7v-2.808l-.599.401-.3-.501zM104.82 70.96l.6-.302c.1.301.3.502.699.502.4 0 .7-.2.7-.702 0-.401-.3-.602-.7-.602-.299 0-.499.1-.699.3l-.4-.2.1-1.905h2.099v.602h-1.599l-.1.802c.2-.1.4-.2.699-.2.7 0 1.2.5 1.2 1.203 0 .602-.4 1.203-1.3 1.203-.699 0-1.099-.2-1.299-.702zM108.018 70.96c.2.1.4.2.6.2.599 0 .899-.401.899-1.003-.1.2-.4.301-.799.301-.7 0-1.1-.501-1.1-1.204 0-.702.5-1.303 1.3-1.303.799 0 1.299.601 1.299 1.805 0 .602-.1 1.003-.4 1.404-.3.401-.7.501-1.199.501-.3 0-.7-.1-.9-.2l.3-.502zm.9-2.408c-.4 0-.6.301-.6.702 0 .402.2.703.6.703.399 0 .599-.201.599-.602 0-.502-.2-.803-.599-.803zM110.516 71.661c0-.601.4-1.002 1-1.604.399-.401.699-.602.699-1.003 0-.301-.2-.502-.599-.502-.3 0-.6.201-.7.502l-.5-.301c.2-.401.7-.802 1.3-.802.699 0 1.199.4 1.199 1.103 0 .501-.2.802-.6 1.003-.4.3-.899.602-1.099.902h1.699v.602h-2.399v.1zM115.613 68.753c-.2-.1-.4-.2-.6-.2-.599 0-.899.4-.899 1.002.1-.2.4-.3.799-.3.7 0 1.199.5 1.199 1.203 0 .702-.499 1.303-1.299 1.303-.799 0-1.299-.601-1.299-1.805 0-.601.1-1.103.4-1.404.3-.3.7-.501 1.199-.501.3 0 .6.1.9.2l-.4.502zm-.9 2.407c.4 0 .6-.301.6-.702 0-.401-.2-.702-.6-.702-.399 0-.599.2-.599.602 0 .4.2.802.599.802zM116.312 70.96l.6-.302c.1.301.3.502.699.502.4 0 .7-.2.7-.702 0-.401-.3-.602-.7-.602-.299 0-.499.1-.699.3l-.4-.2.1-1.905h2.099v.602h-1.599l-.1.802c.2-.1.4-.2.699-.2.7 0 1.2.5 1.2 1.203 0 .602-.4 1.203-1.3 1.203-.699 0-1.099-.2-1.299-.702zM191.86 97.938c0 .2.2.3.5.4.599.201 1.598.302 1.598 1.204 0 .602-.499 1.103-1.399 1.103-.699 0-1.199-.301-1.499-.702l.5-.4c.2.4.6.501.999.501.4 0 .7-.201.7-.502 0-.3-.4-.401-.8-.501-.599-.1-1.299-.301-1.299-1.103 0-.703.6-1.003 1.299-1.003.5 0 1 .2 1.399.702l-.499.3c-.2-.3-.5-.4-.9-.4-.299 0-.599.2-.599.4zM197.256 100.244l.3.301-.4.401-.3-.401c-.199.1-.499.2-.799.2-1.099 0-1.799-.802-1.799-1.905 0-1.003.7-1.805 1.799-1.805s1.799.802 1.799 1.805c-.1.501-.3 1.003-.6 1.404zm-1.199-2.608c-.7 0-1.099.502-1.099 1.204s.399 1.203 1.099 1.203c.1 0 .2 0 .3-.1l-.4-.501.4-.301.4.501c.199-.2.299-.501.299-.902 0-.602-.399-1.104-.999-1.104zM198.855 98.74l.8-1.003h-1.499v-.602h2.298v.4l-.7.904c.5.1.9.501.9 1.103 0 .601-.4 1.203-1.399 1.203-.6 0-1-.301-1.299-.802l.499-.301c.1.3.4.501.7.501.4 0 .699-.2.699-.702 0-.3-.199-.601-.499-.601-.1 0-.2 0-.3.1l-.2-.2zM200.954 97.737l.999-.702h.599v3.61h-.699v-2.808l-.6.401-.299-.501zM205.45 99.843v.802h-.699v-.802h-1.499v-.502l1.499-2.306h.699v2.206h.4v.602h-.4zm-.599-.602v-1.404l-.999 1.404h.999zM206.05 97.737l.999-.702h.6v3.61h-.7v-2.808l-.599.401-.3-.501zM208.348 99.943l.6-.3c.1.3.3.501.7.501.399 0 .699-.2.699-.702 0-.401-.3-.602-.699-.602-.3 0-.5.1-.7.3l-.4-.2.1-1.905h2.099v.601h-1.599l-.1.803c.2-.1.4-.2.699-.2.7 0 1.2.5 1.2 1.203 0 .601-.4 1.303-1.299 1.303-.7-.1-1.1-.3-1.3-.802zM211.646 99.943c.2.101.4.201.6.201.599 0 .899-.401.899-1.003-.1.2-.4.3-.799.3-.7 0-1.1-.5-1.1-1.203 0-.702.5-1.303 1.3-1.303.799 0 1.299.601 1.299 1.805 0 .602-.1 1.003-.4 1.404-.3.401-.7.501-1.199.501-.3 0-.7-.1-.9-.2l.3-.502zm.8-2.407c-.4 0-.6.301-.6.702 0 .401.2.702.6.702.399 0 .599-.2.599-.601 0-.502-.2-.803-.599-.803zM214.144 100.645c0-.601.4-1.003 1-1.604.399-.401.699-.602.699-1.003 0-.301-.2-.502-.599-.502-.3 0-.6.2-.7.502l-.5-.301c.2-.401.7-.802 1.3-.802.699 0 1.199.4 1.199 1.103 0 .501-.2.802-.6 1.003-.4.3-.899.601-1.099.902h1.699v.602h-2.399v.1zM219.141 97.737c-.2-.1-.4-.2-.6-.2-.599 0-.899.4-.899 1.002.1-.2.4-.3.799-.3.7 0 1.2.5 1.2 1.203 0 .702-.5 1.303-1.3 1.303-.799 0-1.299-.601-1.299-1.805 0-.602.1-1.103.4-1.404.3-.3.7-.501 1.199-.501.3 0 .6.1.9.2l-.4.502zm-.8 2.407c.4 0 .6-.301.6-.702 0-.401-.2-.702-.6-.702-.399 0-.599.2-.599.601-.1.402.1.803.599.803zM219.84 99.943l.6-.3c.1.3.3.501.7.501.399 0 .699-.2.699-.702 0-.401-.3-.602-.699-.602-.3 0-.5.1-.7.3l-.4-.2.1-1.905h2.099v.601h-1.599l-.1.803c.2-.1.4-.2.699-.2.7 0 1.2.5 1.2 1.203 0 .601-.4 1.303-1.299 1.303-.6-.1-1-.3-1.3-.802z" fill="#006AFF"/>
  <path d="M87.733 113.883c-.6 0-1-.401-1-1.003v-.802c0-.602.4-1.003 1-1.003.8 0 1-.1 1.1-.2l-.1-.101v-2.106h-1c-.6 0-1-.401-1-1.003v-1.003c0-.601.4-1.002 1-1.002 1.998 0 2.498-1.104 2.498-1.104.2-.401.5-.601.9-.601h2.598c.6 0 1 .401 1 1.002v4.012c0 1.204.299 2.006.898 2.006h.2c.2 0 .5.1.6.201.2.2.3.501.3.802v1.003c0 .601-.4 1.003-1 1.003h-7.994v-.101z" fill="#fff"/>
  <path d="M93.728 104.857v4.012c0 2.808 1.4 3.009 1.899 3.009h.1v1.003h-7.995v-.803c.6 0 2.199 0 1.999-1.303v-2.508c.2-.601-1.4-.601-1.999-.601v-1.003c2.798 0 3.398-1.806 3.398-1.806h2.598zm0-2.005H91.13c-.9 0-1.699.401-1.899 1.303-.1.101-.5.502-1.599.502s-1.998.902-1.998 2.006v1.003c0 1.103.899 2.005 1.998 2.005v.401c-1.099 0-1.998.903-1.998 2.006v.803c0 1.103.899 2.005 1.998 2.005h7.995c1.099 0 1.998-.902 1.998-2.005v-1.003c0-.602-.2-1.204-.7-1.605-.399-.301-.799-.401-1.198-.401-.1-.201-.1-.502-.1-1.003v-4.012c.1-1.103-.8-2.005-1.899-2.005z" fill="#2E3B4E"/>
  <path d="M102.023 113.583c-3.697 0-6.096-1.906-6.096-4.814 0-1.805.8-4.814 6.096-4.814 3.697 0 6.096 1.906 6.096 4.814 0 1.805-.8 4.814-6.096 4.814zm-.1-6.82c-.1.401-.1 1.404-.1 2.006 0 .501 0 1.304.1 1.805.1-.401.2-.902.2-1.805-.1-.602-.1-1.605-.2-2.006z" fill="#fff"/>
  <path d="M102.022 104.957c2.798 0 5.097 1.204 5.097 3.812 0 2.908-2.299 3.811-5.097 3.811-2.798 0-5.096-1.204-5.096-3.811 0-2.909 2.298-3.812 5.096-3.812zm-.1 7.021c.8 0 1.1-1.404 1.1-3.209 0-1.806 0-3.21-1.1-3.21-1.099 0-1.099 1.404-1.099 3.21-.1 1.805-.1 3.209 1.099 3.209zm.1-9.026c-1.699 0-7.095.401-7.095 5.817 0 3.51 2.798 5.816 7.095 5.816 1.699 0 7.095-.401 7.095-5.816 0-3.41-2.798-5.817-7.095-5.817z" fill="#2E3B4E"/>
  <path d="M114.814 113.583c-3.697 0-6.096-1.906-6.096-4.814 0-1.805.8-4.814 6.096-4.814 3.697 0 6.096 1.906 6.096 4.814 0 1.805-.8 4.814-6.096 4.814zm-.2-6.82c-.1.401-.1 1.404-.1 2.006 0 .501 0 1.304.1 1.805.1-.401.2-.902.2-1.805 0-.602 0-1.605-.2-2.006z" fill="#fff"/>
  <path d="M114.813 104.957c2.798 0 5.097 1.204 5.097 3.812 0 2.908-2.299 3.811-5.097 3.811-2.798 0-5.096-1.204-5.096-3.811 0-2.909 2.298-3.812 5.096-3.812zm-.2 7.021c.8 0 1.1-1.404 1.1-3.209 0-1.806 0-3.21-1.1-3.21-1.099 0-1.099 1.404-1.099 3.21 0 1.805 0 3.209 1.099 3.209zm.2-9.026c-1.698 0-7.095.401-7.095 5.817 0 3.51 2.798 5.816 7.095 5.816 1.699 0 7.095-.401 7.095-5.816 0-3.41-2.898-5.817-7.095-5.817z" fill="#2E3B4E"/>
  <path d="M223.638 67.75h-33.977c-.599 0-.999.401-.999 1.003v5.014c0 .602.4 1.003.999 1.003h33.977c.599 0 .999-.4.999-1.003v-5.014c0-.602-.4-1.003-.999-1.003z" stroke="#2E3B4E" stroke-width="2" stroke-miterlimit="10"/>
</svg>
