<svg width="280" height="168" viewBox="0 0 280 168" fill="none" xmlns="http://www.w3.org/2000/svg">
  <path d="M141.823 138C157.738 138 171.788 130.336 180.964 118.623C173.697 109.589 155.444 102.321 140.39 102.321C126.196 102.321 110.929 106.946 101.679 117.322C110.855 129.758 125.335 138 141.823 138Z" fill="#D8D8D8" stroke="#1A1A1A" stroke-width="2" stroke-miterlimit="10" stroke-linecap="round" stroke-linejoin="round"/>
  <path d="M51.4 61L54.4 63.4L58.1 62.4L56.6 66L58.8 69.2L54.9 68.9L52.6 71.9L51.6 68.2L48 66.9L51.3 64.8L51.4 61Z" fill="#006AFF"/>
  <path d="M99.1998 142L102.2 144.4L105.9 143.4L104.4 147L106.6 150.2L102.7 149.9L100.4 152.9L99.3998 149.2L95.7998 147.9L99.0998 145.8L99.1998 142Z" fill="#006AFF"/>
  <path d="M5.2 146L7.1 149.4L11 149.7L8.4 152.5L9.3 156.2L5.8 154.7L2.5 156.7L2.9 152.9L0 150.4L3.8 149.6L5.2 146Z" fill="#006AFF"/>
  <path d="M250.2 138L252.1 141.4L256 141.7L253.4 144.5L254.3 148.2L250.8 146.7L247.5 148.7L247.9 144.9L245 142.4L248.8 141.6L250.2 138Z" fill="#006AFF"/>
  <path d="M275.374 84L276.299 87.7339L280 89.0459L276.71 91.1651L276.505 95L273.523 92.578L269.72 93.5872L271.159 89.9541L269 86.7248L272.907 87.0275L275.374 84Z" fill="#006AFF"/>
  <path d="M251.2 28L252.1 31.7L255.7 33L252.5 35.1L252.3 38.9L249.4 36.5L245.7 37.5L247.1 33.9L245 30.7L248.8 31L251.2 28Z" fill="#006AFF"/>
  <path d="M22.2 37L23.1 40.7L26.7 42L23.5 44.1L23.3 47.9L20.4 45.5L16.7 46.5L18.1 42.9L16 39.7L19.8 40L22.2 37Z" fill="#006AFF"/>
  <path d="M235.4 124L235 127.8L238 130.3L234.2 131.1L232.8 134.7L230.8 131.3L227 131.1L229.5 128.2L228.6 124.5L232.1 126L235.4 124Z" fill="#006AFF"/>
  <path d="M184.9 154L186.2 157.6L189.9 158.6L186.9 160.9L187.1 164.8L183.9 162.6L180.3 164L181.4 160.3L179 157.3L182.8 157.2L184.9 154Z" fill="#006AFF"/>
  <path d="M141.982 138C169.35 138 191.536 115.814 191.536 88.4465C191.536 61.0788 169.35 38.8929 141.982 38.8929C114.615 38.8929 92.4287 61.0788 92.4287 88.4465C92.4287 115.814 114.615 138 141.982 138Z" stroke="#1A1A1A" stroke-width="2" stroke-miterlimit="10" stroke-linecap="round" stroke-linejoin="round"/>
  <g clip-path="url(#clip0)">
    <path d="M118.857 42.8572C113.749 42.8572 109.607 46.9985 109.607 52.1072V69.2857H109.64C109.639 69.5031 109.639 69.7233 109.639 69.9465C109.639 81.8393 113.437 91.7119 114.893 94.3929C116.349 97.0739 122.078 103.437 125.388 104.754C124.991 105.018 122.343 107.651 120.225 109.89C118.901 111.207 119.563 113.183 121.152 114.105C122.634 115.125 124.705 115.853 126.181 116.372C126.419 116.455 126.642 116.534 126.844 116.607C136.64 120.294 154.247 121.348 162.058 114.368C163.117 113.446 163.249 111.866 162.323 110.68L157.16 104.754C157.16 104.754 163.514 102.12 165.103 95.5355C167.091 87.4049 167.604 81.3827 167.72 69.2857H167.75V52.1072C167.75 46.9985 163.609 42.8572 158.5 42.8572H118.857Z" fill="white" stroke="#3E4348" stroke-width="2" stroke-miterlimit="10" stroke-linecap="round" stroke-linejoin="round"/>
  </g>
  <path d="M157.84 33.6071C145.037 21.0278 127.38 28.4151 120.435 37.3441C120.132 37.733 119.644 37.9326 119.152 37.9025C102.672 36.8932 92.7549 77.1742 112.911 115.536C116.748 120.404 119.501 119.802 124.268 120.401C125.331 120.535 126.211 119.46 125.827 118.459C119.503 101.975 118.947 81.1227 121.273 63.6294C121.603 61.1501 122.567 54.5812 126.452 51.6323C126.882 51.3058 127.474 51.3539 127.903 51.6814C140.931 61.6151 156.326 67.7425 163.988 66.2254C165.052 66.0146 166.301 66.8611 166.246 67.9446C165.29 86.7201 172.521 94.8456 164.889 117.632C164.426 119.014 166.109 120.046 167.005 118.897C191.099 88.0125 174.713 50.1868 157.84 33.6071Z" fill="#006AFF" stroke="#3E4348" stroke-width="2" stroke-miterlimit="10" stroke-linecap="round" stroke-linejoin="round"/>
  <path d="M155.857 74.5715C155.857 74.5715 155.857 82.5 155.857 83.8215C155.857 86.4643 154.535 87.7858 151.893 87.7858" stroke="#3E4348" stroke-width="2" stroke-miterlimit="10" stroke-linecap="round"/>
  <circle cx="140" cy="147" r="20" fill="white" stroke="#1A1A1A" stroke-width="2" stroke-miterlimit="10" stroke-linecap="round" stroke-linejoin="round"/>
  <path fill-rule="evenodd" clip-rule="evenodd" d="M140 136C138.958 136 137.947 136.39 137.193 137.1C136.437 137.813 136 138.793 136 139.828V142H132.655C132.424 141.995 132.197 142.041 131.989 142.133C131.773 142.228 131.586 142.368 131.435 142.537C131.285 142.705 131.172 142.9 131.1 143.107C131.029 143.308 130.996 143.519 131 143.729V154.224L131 154.228C131.002 154.641 131.141 155.056 131.414 155.387C131.689 155.721 132.089 155.952 132.546 155.996C132.578 155.999 132.609 156 132.64 156H147.36L147.378 156C147.844 155.991 148.263 155.78 148.555 155.453C148.844 155.129 148.993 154.714 149 154.298L149 154.284V143.729C149.004 143.519 148.971 143.308 148.9 143.107C148.828 142.9 148.715 142.705 148.565 142.537C148.414 142.368 148.227 142.228 148.011 142.133C147.803 142.041 147.576 141.995 147.345 142H144V139.828C144 138.793 143.563 137.813 142.807 137.1C142.053 136.39 141.042 136 140 136ZM142 142V139.828C142 139.363 141.805 138.904 141.435 138.556C141.064 138.206 140.549 138 140 138C139.451 138 138.936 138.206 138.565 138.556C138.195 138.904 138 139.363 138 139.828V142H142ZM133 154V144H147V154H133ZM141 149.732C141.598 149.387 142 148.74 142 148C142 146.895 141.105 146 140 146C138.895 146 138 146.895 138 148C138 148.74 138.402 149.387 139 149.732V151C139 151.552 139.448 152 140 152C140.552 152 141 151.552 141 151V149.732Z" fill="#006AFF"/>
  <defs>
    <clipPath id="clip0">
    <rect width="62.1071" height="89.8571" fill="white" transform="translate(108.286 38.8929)"/>
  </clipPath>
  </defs>
</svg>
