<svg width="352" height="249" fill="none" xmlns="http://www.w3.org/2000/svg">
    <title>Business buildings</title>
    <path d="M0 0h352v249H0z"/>
    <path fill-rule="evenodd" clip-rule="evenodd" d="M191 83h22a7 7 0 1 0-1.74-13.782A10.003 10.003 0 0 0 202 63c-5.523 0-10 4.477-10 10v.1a5 5 0 1 0-1 9.9z" fill="#D6D9DC"/>
    <path d="M160 92h-42v134h42V92zM160 85h-42v7h42v-7z" fill="#fff" stroke="#3E4348" stroke-width="2" stroke-miterlimit="10" stroke-linejoin="round"/>
    <path d="M145 115h-12v8h12v-8zM145 111h-12v4h12v-4z" fill="#fff" stroke="#3E4348" stroke-width="2" stroke-miterlimit="10" stroke-linejoin="round"/>
    <path d="M139 115v8" stroke="#3E4348" stroke-width="2" stroke-miterlimit="10" stroke-linejoin="round"/>
    <path d="M145 123h-12v6h12v-6zM147 107h-16v4h16v-4zM147 129h-16v4h16v-4z" fill="#fff" stroke="#3E4348" stroke-width="2" stroke-miterlimit="10" stroke-linejoin="round"/>
    <path d="M145 151h-12v8h12v-8zM145 147h-12v4h12v-4z" fill="#006AFF" stroke="#3E4348" stroke-width="2" stroke-miterlimit="10" stroke-linejoin="round"/>
    <path d="M139 151v8" stroke="#3E4348" stroke-width="2" stroke-miterlimit="10" stroke-linejoin="round"/>
    <path d="M145 159h-12v6h12v-6zM147 143h-16v4h16v-4zM147 165h-16v4h16v-4z" fill="#006AFF" stroke="#3E4348" stroke-width="2" stroke-miterlimit="10" stroke-linejoin="round"/>
    <path d="M145 187h-12v8h12v-8zM145 183h-12v4h12v-4z" fill="#fff" stroke="#3E4348" stroke-width="2" stroke-miterlimit="10" stroke-linejoin="round"/>
    <path d="M139 187v8" stroke="#3E4348" stroke-width="2" stroke-miterlimit="10" stroke-linejoin="round"/>
    <path d="M145 195h-12v6h12v-6zM147 179h-16v4h16v-4zM147 201h-16v4h16v-4zM142 71h4c.6 0 1 .4 1 1v5h-6v-5c0-.6.4-1 1-1zM147 77h-6v8h6v-8zM155 79h-4v6h4v-6zM156 144.2V122c0-2.2 1.8-4 4-4h36c2.2 0 4 1.8 4 4v42c0 2.2-1.8 4-4 4h-36c-2.2 0-4-1.8-4-4v-12.9h-4.5c-.9 0-1.3-1.1-.7-1.7l5.2-5.2z" fill="#fff" stroke="#3E4348" stroke-width="2" stroke-miterlimit="10" stroke-linejoin="round"/>
    <path d="M172 158h12c1.7 0 3-1.3 3-3v-24c0-1.7-1.3-3-3-3h-12c-1.7 0-3 1.3-3 3v24c0 1.7 1.3 3 3 3zM187 132h-18M169 152h18" stroke="#3E4348" stroke-width="2" stroke-miterlimit="10" stroke-linecap="round" stroke-linejoin="round"/>
    <path d="M176 144.1c.4.6 1.1 1 1.9 1h.2c1.1-.1 1.7-.7 1.7-1.6 0-1-.9-1.3-1.7-1.6l-.2-.1c-.9-.3-1.9-.5-1.9-1.6 0-1 .9-1.6 1.9-1.6h.2c.7.1 1.3.4 1.8 1M178 145.2v1.8M178 137v1" stroke="#006AFF" stroke-width="2" stroke-miterlimit="10" stroke-linecap="round" stroke-linejoin="round"/>
    <path d="M186.985 188h-1.999c-6.094.4-11.589 3.3-14.986 8 0 .5 2.198 3 3.996 3 1.799 0 3.397-1.4 3.997-3 .599 1.6 2.198 3 3.996 3 1.799 0 3.397-1.4 3.997-3 .599 1.6 2.198 3 3.996 3s3.397-1.4 3.996-3c.6 1.6 2.198 3 3.997 3 1.798 0 3.297-1.4 3.996-3-3.397-4.5-8.992-7.6-14.986-8z" fill="#006AFF"/>
    <path d="M187.013 188l.067-.998-.067-.002v1zm-1.998 0v-1l-.065.002.065.998zm-14.986 8l-.811-.586a1.004 1.004 0 0 0-.189.586h1zm7.993 0l.936-.351a1 1 0 0 0-1.873 0l.937.351zm7.992 0l.937-.351a1 1 0 0 0-1.873 0l.936.351zm7.993 0l.937-.351a1.002 1.002 0 0 0-1.873 0l.936.351zm7.993 0l.916.401a.998.998 0 0 0-.118-1.003L202 196zm-16-8l.707-.707a.999.999 0 0 0-1.414 0L186 188zm-3.707 2.293a.999.999 0 1 0 1.414 1.414l-1.414-1.414zm6 1.414a.999.999 0 1 0 1.414-1.414l-1.414 1.414zM172 205v-1a1 1 0 0 0-1 1h1zm28 0h1a1 1 0 0 0-1-1v1zm0 4v1a1 1 0 0 0 1-1h-1zm-28 0h-1a1 1 0 0 0 1 1v-1zm1 0v-1a1 1 0 0 0-1 1h1zm26 0h1a1 1 0 0 0-1-1v1zm-11.987-22h-1.998v2h1.998v-2zm-2.063.002c-6.368.418-12.146 3.452-15.732 8.412l1.621 1.172c3.209-4.44 8.42-7.206 14.242-7.588l-.131-1.996zM169.029 196c0 .338.152.627.221.753.096.175.221.358.357.536.276.359.651.764 1.082 1.146.43.382.939.762 1.486 1.051.54.285 1.179.514 1.85.514v-2c-.228 0-.538-.083-.916-.283a5.69 5.69 0 0 1-1.092-.777 6.563 6.563 0 0 1-.824-.87 2.284 2.284 0 0 1-.189-.278c-.059-.107.025-.005.025.208h-2zm4.996 4c2.309 0 4.223-1.754 4.933-3.649l-1.873-.702c-.489 1.305-1.772 2.351-3.06 2.351v2zm3.06-3.649c.71 1.895 2.624 3.649 4.933 3.649v-2c-1.288 0-2.571-1.046-3.06-2.351l-1.873.702zm4.933 3.649c2.309 0 4.223-1.754 4.933-3.649l-1.873-.702c-.489 1.305-1.772 2.351-3.06 2.351v2zm3.06-3.649c.71 1.895 2.624 3.649 4.933 3.649v-2c-1.288 0-2.571-1.046-3.06-2.351l-1.873.702zm4.933 3.649c2.309 0 4.223-1.754 4.933-3.649l-1.873-.702c-.489 1.305-1.772 2.351-3.06 2.351v2zm3.06-3.649c.71 1.895 2.624 3.649 4.933 3.649v-2c-1.288 0-2.571-1.046-3.06-2.351l-1.873.702zm4.933 3.649c2.337 0 4.119-1.785 4.912-3.599l-1.832-.802c-.606 1.386-1.821 2.401-3.08 2.401v2zm4.794-4.602c-3.572-4.733-9.435-7.977-15.718-8.396l-.133 1.996c5.706.381 11.034 3.337 14.255 7.604l1.596-1.204zm-17.505-8.105l-3 3 1.414 1.414 3-3-1.414-1.414zm0 1.414l3 3 1.414-1.414-3-3-1.414 1.414zM185 196v9h2v-9h-2zm-13 10h28v-2h-28v2zm27-1v4h2v-4h-2zm1 3h-28v2h28v-2zm-27 1v-4h-2v4h2zm-1-3h-4v2h4v-2zm-5 1a1 1 0 0 1-1 1v2a3 3 0 0 0 3-3h-2zm-1 1a1 1 0 0 1-1-1h-2a3 3 0 0 0 3 3v-2zm-1-1a1 1 0 0 1 1-1v-2a3 3 0 0 0-3 3h2zm1-1a1 1 0 0 1 1 1h2a3 3 0 0 0-3-3v2zm11 18a1 1 0 0 1-1 1v2a3 3 0 0 0 3-3h-2zm-1 1a1 1 0 0 1-1-1h-2a3 3 0 0 0 3 3v-2zm-1-1a1 1 0 0 1 1-1v-2a3 3 0 0 0-3 3h2zm1-1a1 1 0 0 1 1 1h2a3 3 0 0 0-3-3v2zm13.5-2H175v2h14.5v-2zm-14.5 0c-.548 0-1-.452-1-1h-2c0 1.652 1.348 3 3 3v-2zm-1-1v-11h-2v11h2zm-1-10h26v-2h-26v2zm25-1v5h2v-5h-2zm3 10.5a5.5 5.5 0 0 1-5.5 5.5v2a7.5 7.5 0 0 0 7.5-7.5h-2zm-5.5 5.5a5.5 5.5 0 0 1-5.5-5.5h-2a7.5 7.5 0 0 0 7.5 7.5v-2zm-5.5-5.5a5.5 5.5 0 0 1 5.5-5.5v-2a7.5 7.5 0 0 0-7.5 7.5h2zm5.5-5.5a5.5 5.5 0 0 1 5.5 5.5h2a7.5 7.5 0 0 0-7.5-7.5v2zm1.5 5.5a1.5 1.5 0 0 1-1.5 1.5v2a3.5 3.5 0 0 0 3.5-3.5h-2zm-1.5 1.5a1.5 1.5 0 0 1-1.5-1.5h-2a3.5 3.5 0 0 0 3.5 3.5v-2zm-1.5-1.5a1.5 1.5 0 0 1 1.5-1.5v-2a3.5 3.5 0 0 0-3.5 3.5h2zm1.5-1.5a1.5 1.5 0 0 1 1.5 1.5h2a3.5 3.5 0 0 0-3.5-3.5v2z" fill="#3E4348"/>
    <path d="M37 226h278" stroke="#3E4348" stroke-width="2" stroke-linecap="round" stroke-linejoin="round"/>
    <path fill="#fff" stroke="#3E4348" stroke-width="2" d="M208 131h100v32H208z"/>
    <path d="M208 131h100V49H208v82zM208 226h100v-47H208v47z" fill="#fff" stroke="#3E4348" stroke-width="2" stroke-miterlimit="10" stroke-linecap="round" stroke-linejoin="round"/>
    <path d="M208 114h100v-4H208v4zM208 71h100v-4H208v4zM206 49h104v-7H206v7z" fill="#fff" stroke="#3E4348" stroke-width="2" stroke-miterlimit="10" stroke-linecap="round" stroke-linejoin="round"/>
    <path d="M221 119h30V95h-30v24zM221 95l-4-4s8-6 19-6 19 6 19 6l-4 4h-30z" fill="#fff" stroke="#3E4348" stroke-width="2" stroke-miterlimit="10" stroke-linecap="round" stroke-linejoin="round"/>
    <path d="M231 119h10V95h-10v24z" fill="#fff" stroke="#3E4348" stroke-width="2" stroke-miterlimit="10" stroke-linecap="round" stroke-linejoin="round"/>
    <path d="M236 95v24M241 103h-10M241 111h-10" stroke="#3E4348" stroke-width="2" stroke-miterlimit="10" stroke-linecap="round" stroke-linejoin="round"/>
    <path d="M231 95h10v-4h-10v4zM266 119h30V95h-30v24zM266 95l-4-4s8-6 19-6 19 6 19 6l-4 4h-30z" fill="#fff" stroke="#3E4348" stroke-width="2" stroke-miterlimit="10" stroke-linecap="round" stroke-linejoin="round"/>
    <path d="M276 119h10V95h-10v24z" fill="#fff" stroke="#3E4348" stroke-width="2" stroke-miterlimit="10" stroke-linecap="round" stroke-linejoin="round"/>
    <path d="M281 95v24M286 103h-10M286 111h-10" stroke="#3E4348" stroke-width="2" stroke-miterlimit="10" stroke-linecap="round" stroke-linejoin="round"/>
    <path d="M276 95h10v-4h-10v4zM281 55c5.5 0 10 2.3 10 4v18h-20V59c0-1.7 4.5-4 10-4z" fill="#fff" stroke="#3E4348" stroke-width="2" stroke-miterlimit="10" stroke-linecap="round" stroke-linejoin="round"/>
    <path d="M276 72h10V62h-10v10z" fill="#fff" stroke="#3E4348" stroke-width="2" stroke-miterlimit="10" stroke-linecap="round" stroke-linejoin="round"/>
    <path d="M281 62v10M286 67h-10" stroke="#3E4348" stroke-width="2" stroke-miterlimit="10" stroke-linecap="round" stroke-linejoin="round"/>
    <path d="M236 55c5.5 0 10 2.3 10 4v18h-20V59c0-1.7 4.5-4 10-4z" fill="#fff" stroke="#3E4348" stroke-width="2" stroke-miterlimit="10" stroke-linecap="round" stroke-linejoin="round"/>
    <path d="M231 72h10V62h-10v10z" fill="#fff" stroke="#3E4348" stroke-width="2" stroke-miterlimit="10" stroke-linecap="round" stroke-linejoin="round"/>
    <path d="M236 62v10M241 67h-10" stroke="#3E4348" stroke-width="2" stroke-miterlimit="10" stroke-linecap="round" stroke-linejoin="round"/>
    <path d="M300 24h-4c-.6 0-1 .4-1 1v7c0 .6.4 1 1 1h4c.6 0 1-.4 1-1v-7c0-.6-.4-1-1-1z" fill="#fff" stroke="#3E4348" stroke-width="2" stroke-miterlimit="10" stroke-linecap="round" stroke-linejoin="round"/>
    <path d="M295 42h6V30h-6v12zM287 42h4v-6h-4v6z" fill="#fff" stroke="#3E4348" stroke-width="2" stroke-miterlimit="10" stroke-linecap="round" stroke-linejoin="round"/>
    <path fill-rule="evenodd" clip-rule="evenodd" d="M235 188a1 1 0 0 1 1 1v22h72v2h-72v12h72v2h-96a1 1 0 0 1-1-1v-35a1 1 0 0 1 2 0v28h21v-30a1 1 0 0 1 1-1zm-22 33v4h21v-4h-21zm4-19a1 1 0 0 1 1 1v4a1 1 0 0 1-2 0v-4a1 1 0 0 1 1-1z" fill="#3E4348"/>
    <path d="M251 199c0 1.1-.9 2-2 2s-2-.9-2-2h4z" fill="#3E4348"/>
    <path d="M245 199h-1a1 1 0 0 0 1 1v-1zm8 0v1a1 1 0 0 0 1-1h-1zm3 8a1 1 0 0 0 0-2v2zm-14-2a1 1 0 0 0 0 2v-2zm8-15a1 1 0 0 0-2 0h2zm-4 9c0-1.648 1.352-3 3-3v-2c-2.752 0-5 2.248-5 5h2zm3-3c1.648 0 3 1.352 3 3h2c0-2.752-2.248-5-5-5v2zm4 2h-8v2h8v-2zm-5 9v4h2v-4h-2zm8-2h-14v2h14v-2zm-6-10v-5h-2v5h2zM275 199c0 1.1-.9 2-2 2s-2-.9-2-2h4z" fill="#3E4348"/>
    <path d="M269 199h-1a1 1 0 0 0 1 1v-1zm8 0v1a1 1 0 0 0 1-1h-1zm3 8a1 1 0 0 0 0-2v2zm-14-2a1 1 0 0 0 0 2v-2zm8-16.5a1 1 0 0 0-2 0h2zm-4 10.5c0-1.648 1.352-3 3-3v-2c-2.752 0-5 2.248-5 5h2zm3-3c1.648 0 3 1.352 3 3h2c0-2.752-2.248-5-5-5v2zm4 2h-8v2h8v-2zm-5 9v4h2v-4h-2zm8-2h-14v2h14v-2zm-6-10v-6.5h-2v6.5h2zM299 199c0 1.1-.9 2-2 2s-2-.9-2-2h4z" fill="#3E4348"/>
    <path d="M293 199h-1a1 1 0 0 0 1 1v-1zm8 0v1a1 1 0 0 0 1-1h-1zm3 8a1 1 0 0 0 0-2v2zm-14-2a1 1 0 0 0 0 2v-2zm8-17.5a1 1 0 0 0-2 0h2zm-4 11.5c0-1.648 1.352-3 3-3v-2c-2.752 0-5 2.248-5 5h2zm3-3c1.648 0 3 1.352 3 3h2c0-2.752-2.248-5-5-5v2zm4 2h-8v2h8v-2zm-5 9v4h2v-4h-2zm8-2h-14v2h14v-2zm-6-10v-7.5h-2v7.5h2z" fill="#3E4348"/>
    <path d="M214.604 148.879a.999.999 0 1 0 .792 1.836l-.792-1.836zm10.121-6.063l.735.678.027-.031-.762-.647zm-4.209-1.71l.947.322.022-.075-.969-.247zm.29 7.694l-.726.687.001.002.725-.689zm14.805-4.275l.741.672a1.001 1.001 0 0 0-1.385-1.437l.644.765zm4.645 2.138l.947-.322a1.001 1.001 0 0 0-1.943.229l.996.093zm6.967 2.707l-.065-.998a8.896 8.896 0 0 0-.043.003l.108.995zm12.338-3.42l.649.761.008-.007-.657-.754zm-3.194-.285l.865-.503a1.265 1.265 0 0 0-.05-.077l-.815.58zm18.144 2.707l.986.168a1 1 0 0 0-1.643-.921l.657.753zm-.58 2.422l-.986-.167a1 1 0 0 0 .675 1.118l.311-.951zm.725-1.567l.508-.862a1 1 0 0 0-1.508.862h1zm8.709-3.562l.441.898c.028-.014.055-.029.082-.045l-.523-.853zm3.484.57l-.891.454a.372.372 0 0 0 .021.039l.87-.493zm-1.307 3.704l-.651-.758a.687.687 0 0 0-.049.045l.7.713zm-2.322 3.42l.996.092a.957.957 0 0 0 .004-.092h-1zm3.048 2.564l-.258-.966-.024.007.282.959zm1.597-3.704l.7-.714a.999.999 0 0 0-1.57 1.206l.87-.492zm7.693-6.269l.238-.971a.998.998 0 0 0-1.215.758l.977.213zm6.35-5.186a1 1 0 0 0-1.96.399l1.96-.399zm-86.512 9.951c3.766-1.626 7.218-4.134 10.064-7.221l-1.47-1.356c-2.67 2.896-5.895 5.233-9.386 6.741l.792 1.836zm10.091-7.252c.692-.815 1.579-1.834 1.94-3.075l-1.92-.559c-.22.755-.785 1.445-1.544 2.34l1.524 1.294zm1.94-3.075c.379-1.303.05-3.139-1.487-4.001l-.978 1.745c.494.277.746 1.006.545 1.697l1.92.559zm-1.487-4.001c-.783-.439-1.672-.462-2.444-.278a4.513 4.513 0 0 0-2.084 1.149l1.401 1.427a2.52 2.52 0 0 1 1.146-.631c.424-.101.77-.053 1.003.078l.978-1.745zm-4.528.871c-1.068 1.048-1.56 2.404-1.865 3.601l1.938.494c.275-1.082.654-2.006 1.328-2.668l-1.401-1.427zm-1.843 3.527c-.443 1.303-.881 2.839-.942 4.341-.061 1.517.262 3.102 1.453 4.361l1.452-1.375c-.696-.735-.954-1.715-.906-2.905.048-1.205.408-2.518.837-3.779l-1.894-.643zm.512 8.704c1.295 1.361 3.053 1.71 4.716 1.59 1.658-.119 3.346-.706 4.723-1.382l-.881-1.795c-1.236.606-2.668 1.088-3.986 1.182-1.313.095-2.385-.198-3.122-.973l-1.45 1.378zm9.439.208a33.078 33.078 0 0 0 6.735-4.406l-1.288-1.531a31.048 31.048 0 0 1-6.328 4.142l.881 1.795zm5.35-5.843c-.826.912-1.053 2.138-.838 3.218.215 1.081.9 2.131 2.043 2.641l.815-1.827c-.454-.202-.786-.648-.897-1.205-.111-.559.024-1.114.359-1.484l-1.482-1.343zm1.205 5.859c1.158.517 2.409.286 3.346-.265.926-.546 1.721-1.511 1.831-2.693l-1.992-.185c-.035.385-.329.845-.854 1.154-.515.303-1.079.358-1.516.162l-.815 1.827zm3.234-2.729c.572 1.685 2.056 2.708 3.539 3.193l.622-1.9c-1.13-.37-1.968-1.056-2.267-1.936l-1.894.643zm3.539 3.193c1.543.505 3.21.325 4.484.187l-.217-1.989c-1.34.146-2.576.251-3.645-.098l-.622 1.9zm4.44.19c4.269-.279 9.285-.552 12.922-3.656l-1.298-1.521c-3.04 2.594-7.314 2.891-11.754 3.182l.13 1.995zm12.93-3.663c1.438-1.255 2.665-3.075 2.665-5.313h-2c0 1.466-.805 2.781-1.98 3.806l1.315 1.507zm2.665-5.313c0-2.129-1.611-4.366-3.966-4.558l-.163 1.993c1.127.092 2.129 1.275 2.129 2.565h2zm-3.966-4.558c-2.385-.195-4.167 1.73-4.68 3.741l1.938.494c.359-1.408 1.48-2.332 2.579-2.242l.163-1.993zm-4.68 3.741c-.533 2.093.198 4.104 1.316 5.672l1.629-1.161c-.914-1.282-1.345-2.69-1.007-4.017l-1.938-.494zm1.266 5.594c1.911 3.283 5.383 5.429 9.122 6.041l.323-1.974c-3.229-.528-6.144-2.372-7.716-5.073l-1.729 1.006zm9.122 6.041c3.796.62 7.721-.62 10.544-3.083l-1.315-1.507c-2.403 2.096-5.735 3.135-8.906 2.616l-.323 1.974zm8.9-4.004c-.062.369-.157.713-.268 1.111-.107.385-.23.825-.312 1.311l1.971.335c.063-.369.158-.713.268-1.111.108-.386.231-.826.313-1.311l-1.972-.335zm.095 3.54c1.12.366 1.913-.437 2.189-1.067.262-.6.345-1.729-.645-2.313l-1.015 1.724a.38.38 0 0 1-.117-.113.296.296 0 0 1-.045-.107c-.003-.021-.001-.028-.002-.022a.178.178 0 0 1-.009.031.102.102 0 0 1-.012.021c-.001.001.008-.01.032-.025a.315.315 0 0 1 .246-.03l-.622 1.901zm.036-2.518c0 1.131.761 1.94 1.513 2.378.754.44 1.745.662 2.629.445l-.477-1.942c-.278.068-.738.006-1.145-.231-.41-.239-.52-.498-.52-.65h-2zm4.142 2.823c.807-.198 1.498-.674 2.068-1.193.575-.524 1.089-1.151 1.536-1.735l-1.589-1.214c-.425.555-.853 1.068-1.294 1.47-.446.407-.845.643-1.198.73l.477 1.942zm3.604-2.928c.471-.616.822-1.122 1.229-1.588.389-.446.759-.767 1.175-.971l-.881-1.795c-.746.365-1.319.899-1.801 1.451-.464.531-.911 1.165-1.311 1.689l1.589 1.214zm2.486-2.604c.378-.232.871-.33 1.302-.272.43.059.667.246.768.443l1.782-.908c-.48-.942-1.404-1.397-2.28-1.516a4.046 4.046 0 0 0-2.618.548l1.046 1.705zm2.091.21c.175.309.185.649.004 1.075-.193.453-.583.94-1.092 1.378l1.303 1.517c.652-.56 1.278-1.284 1.63-2.113.363-.856.446-1.869-.105-2.842l-1.74.985zm-1.137 2.498c-.44.432-1.116 1.021-1.614 1.628-.525.638-1.008 1.464-1.008 2.505h2c0-.384.17-.77.553-1.235.409-.498.894-.906 1.47-1.471l-1.401-1.427zm-2.618 4.04c-.11 1.187.494 2.235 1.281 2.891.785.653 1.92 1.057 3.046.725l-.565-1.918c-.326.096-.787.001-1.201-.344-.41-.341-.604-.789-.569-1.169l-1.992-.185zm4.303 3.623c1.152-.308 1.95-1.171 2.336-2.12.383-.939.413-2.086-.128-3.043l-1.74.985c.184.326.214.817.016 1.303-.193.476-.557.824-1.001.943l.517 1.932zm.637-3.956c1.008.989 2.373 1.235 3.615 1.039a5.875 5.875 0 0 0 3.335-1.786l-1.467-1.359a3.88 3.88 0 0 1-2.18 1.17c-.79.125-1.458-.056-1.902-.492l-1.401 1.428zm6.95-.747c1.68-1.814 2.01-4.143 2.421-6.023l-1.954-.426c-.461 2.11-.711 3.77-1.934 5.09l1.467 1.359zm1.205-5.265c1.843.452 3.665-.236 4.912-1.396 1.245-1.16 2.052-2.919 1.677-4.761l-1.96.399c.206 1.008-.221 2.098-1.08 2.898-.858.798-2.011 1.178-3.072.918l-.477 1.942z" fill="#006AFF"/>
    <path fill-rule="evenodd" clip-rule="evenodd" d="M307.574 163h-99.148l-5.625 9.966A10.954 10.954 0 0 0 201 179c0 6.075 4.925 11 11 11 3.72 0 7.009-1.847 9-4.674a10.988 10.988 0 0 0 9 4.674c4.051 0 7.591-2.19 9.5-5.451A10.996 10.996 0 0 0 249 190c3.72 0 7.009-1.847 9-4.674a10.988 10.988 0 0 0 9 4.674c3.72 0 7.009-1.847 9-4.674a10.988 10.988 0 0 0 9 4.674c4.051 0 7.591-2.19 9.5-5.451A10.996 10.996 0 0 0 304 190c6.075 0 11-4.925 11-11 0-2.23-.663-4.305-1.804-6.038L307.574 163z" fill="#006AFF"/>
    <path d="M208.426 163v-1a1 1 0 0 0-.871.508l.871.492zm99.148 0l.87-.492a.999.999 0 0 0-.87-.508v1zm-104.773 9.966l.836.549.035-.058-.871-.491zM221 185.326l.818-.576a1.002 1.002 0 0 0-1.636 0l.818.576zm18.5-.777l.863-.505a.999.999 0 0 0-1.726 0l.863.505zm18.5.777l.818-.576a1.002 1.002 0 0 0-1.636 0l.818.576zm18 0l.818-.576a1.002 1.002 0 0 0-1.636 0l.818.576zm18.5-.777l.863-.505a.999.999 0 0 0-1.726 0l.863.505zm18.696-11.587l-.871.492c.012.019.023.039.036.058l.835-.55zM208.426 164h99.148v-2h-99.148v2zm-4.754 9.457l5.625-9.965-1.742-.984-5.624 9.966 1.741.983zm-1.706-1.041A11.95 11.95 0 0 0 200 179h2c0-2.027.602-3.911 1.637-5.485l-1.671-1.099zM200 179c0 6.627 5.373 12 12 12v-2c-5.523 0-10-4.477-10-10h-2zm12 12a11.99 11.99 0 0 0 9.818-5.098l-1.636-1.152A9.985 9.985 0 0 1 212 189v2zm8.182-5.098A11.99 11.99 0 0 0 230 191v-2a9.985 9.985 0 0 1-8.182-4.25l-1.636 1.152zM230 191c4.421 0 8.282-2.391 10.363-5.946l-1.726-1.01A9.995 9.995 0 0 1 230 189v2zm8.637-5.946A11.995 11.995 0 0 0 249 191v-2a9.995 9.995 0 0 1-8.637-4.956l-1.726 1.01zM249 191a11.99 11.99 0 0 0 9.818-5.098l-1.636-1.152A9.985 9.985 0 0 1 249 189v2zm8.182-5.098A11.99 11.99 0 0 0 267 191v-2a9.985 9.985 0 0 1-8.182-4.25l-1.636 1.152zM267 191a11.99 11.99 0 0 0 9.818-5.098l-1.636-1.152A9.985 9.985 0 0 1 267 189v2zm8.182-5.098A11.99 11.99 0 0 0 285 191v-2a9.985 9.985 0 0 1-8.182-4.25l-1.636 1.152zM285 191c4.421 0 8.282-2.391 10.363-5.946l-1.726-1.01A9.995 9.995 0 0 1 285 189v2zm8.637-5.946A11.995 11.995 0 0 0 304 191v-2a9.995 9.995 0 0 1-8.637-4.956l-1.726 1.01zM304 191c6.627 0 12-5.373 12-12h-2c0 5.523-4.477 10-10 10v2zm12-12c0-2.431-.724-4.696-1.968-6.588l-1.671 1.1A9.948 9.948 0 0 1 314 179h2zm-9.297-15.508l5.622 9.962 1.742-.983-5.623-9.963-1.741.984z" fill="#3E4348"/>
    <path d="M258 163v11.5M244 163l-4 11m-10-11l-6 10M271 163l4 11m10-11l6 10" stroke="#3E4348" stroke-width="2" stroke-linecap="round" stroke-linejoin="round"/>
    <path d="M118 187v39H46v-39" fill="#fff"/>
    <path d="M118 187v39H46v-39" stroke="#3E4348" stroke-width="2" stroke-miterlimit="10" stroke-linecap="round" stroke-linejoin="round"/>
    <path d="M78 200v24c0 1.1-.9 2-2 2H60c-1.1 0-2-.9-2-2v-26" fill="#fff"/>
    <path d="M78 200v24c0 1.1-.9 2-2 2H60c-1.1 0-2-.9-2-2v-26" stroke="#3E4348" stroke-width="2" stroke-miterlimit="10" stroke-linecap="round" stroke-linejoin="round"/>
    <path d="M114 195H82v20h32v-20zM63 218h10c.6 0 1 .4 1 1v2c0 .6-.4 1-1 1H63c-.6 0-1-.4-1-1v-2c0-.6.4-1 1-1z" fill="#fff" stroke="#3E4348" stroke-width="2" stroke-miterlimit="10" stroke-linecap="round" stroke-linejoin="round"/>
    <path d="M74 201v12c0 .6-.4 1-1 1H63c-.6 0-1-.4-1-1v-16" fill="#fff"/>
    <path d="M74 201v12c0 .6-.4 1-1 1H63c-.6 0-1-.4-1-1v-16" stroke="#3E4348" stroke-width="2" stroke-miterlimit="10" stroke-linecap="round" stroke-linejoin="round"/>
    <path fill-rule="evenodd" clip-rule="evenodd" d="M46 180l-9 9.9c0 6.7 5.4 11.9 12.1 11.9 4.7 0 9.5-2.9 11.6-6.9 1.9 4 5.4 6.9 10.4 6.9 4.7 0 9-2.9 10.9-6.9 1.9 4 6.2 6.9 10.9 6.9s8.5-2.9 10.4-6.9c1.9 4 6.6 6.9 11.6 6.9 6.6 0 12.1-5.2 12.1-11.9l-9-9.9H46z" fill="#006AFF" stroke="#3E4348" stroke-width="2" stroke-miterlimit="10" stroke-linecap="round" stroke-linejoin="round"/>
    <path d="M61.7 186.9l2-6M102.7 186.9l-2-6M82 180v7" stroke="#3E4348" stroke-width="2" stroke-miterlimit="10" stroke-linecap="round" stroke-linejoin="round"/>
    <path d="M46 180v-4s.9-.1 2-.1h68c1.1 0 2 0 2 .1v3.9H46v.1z" fill="#fff" stroke="#3E4348" stroke-width="2" stroke-miterlimit="10" stroke-linecap="round" stroke-linejoin="round"/>
    <path d="M44 176v-5.9c0-.1 1-.1 2.1-.1h71.8c1.2 0 2.1 0 2.1.1v5.9H44zM118 122H46v48h72v-48z" fill="#fff" stroke="#3E4348" stroke-width="2" stroke-miterlimit="10" stroke-linecap="round" stroke-linejoin="round"/>
    <path d="M109 130H55v32h54v-32zM121 116H43v6h78v-6z" fill="#fff" stroke="#3E4348" stroke-width="2" stroke-miterlimit="10" stroke-linecap="round" stroke-linejoin="round"/>
    <path d="M102 152H90v10h12v-10zM82 154H62v8h20v-8zM82 146H62v8h20v-8zM82 138H62v8h20v-8zM100 146h-8v6h8v-6zM118 64H46v52h72V64z" fill="#fff" stroke="#3E4348" stroke-width="2" stroke-miterlimit="10" stroke-linecap="round" stroke-linejoin="round"/>
    <path d="M111 87H53v22h58V87z" fill="#fff" stroke="#3E4348" stroke-width="2" stroke-miterlimit="10" stroke-linecap="round" stroke-linejoin="round"/>
    <path d="M82 71v4" stroke="#3E4348" stroke-width="2" stroke-miterlimit="10" stroke-linecap="round" stroke-linejoin="round"/>
    <path d="M79 79l3-4 3 4h-6z" fill="#fff" stroke="#3E4348" stroke-width="2" stroke-miterlimit="10" stroke-linecap="round" stroke-linejoin="round"/>
    <path d="M58 71v4" stroke="#3E4348" stroke-width="2" stroke-miterlimit="10" stroke-linecap="round" stroke-linejoin="round"/>
    <path d="M55 79l3-4 3 4h-6z" fill="#fff" stroke="#3E4348" stroke-width="2" stroke-miterlimit="10" stroke-linecap="round" stroke-linejoin="round"/>
    <path d="M106 71v4" stroke="#3E4348" stroke-width="2" stroke-miterlimit="10" stroke-linecap="round" stroke-linejoin="round"/>
    <path d="M103 79l3-4 3 4h-6z" fill="#fff" stroke="#3E4348" stroke-width="2" stroke-miterlimit="10" stroke-linecap="round" stroke-linejoin="round"/>
    <path d="M57.4 100.7c2.8-1 4.9-1.3 7.4-2.7 2.2-1.2 2.9-1.9 2.9-3.8s-2.9-1.9-3.8-1c-1.9 1.9-2.4 4.3-2.2 5.4.3 1.4 1.9 2.1 3.3 2.4 1.8.4 3.8.6 5.6.2 1.9-.4 3.6-1.5 5.4-2.3 1.8-.8 3.8-1.4 5.7-.7 1.8.6 3.1 2.3 4.8 3.4 1.7 1 3.8 1.3 5.8 1.3 4.7.1 9.5-1 13.7-3" stroke="#006AFF" stroke-width="2" stroke-miterlimit="10" stroke-linecap="round" stroke-linejoin="round"/>
    <path d="M61 109v7M103 109v7" stroke="#3E4348" stroke-width="2" stroke-miterlimit="10" stroke-linecap="round" stroke-linejoin="round"/>
    <path fill-rule="evenodd" clip-rule="evenodd" d="M42 50h22v-.016a7.5 7.5 0 1 0-2.947-14.576A9 9 0 0 0 45 41a5 5 0 1 0-3 9zM157 27.5c0 .19.01.38.029.566A8 8 0 1 0 156 44h29v-.022a5.5 5.5 0 0 0-1-10.956V33c0-6.075-4.925-11-11-11-2.336 0-4.501.728-6.283 1.97A5.5 5.5 0 0 0 157 27.5z" fill="#D6D9DC"/>
</svg>
