<svg width="280" height="188" viewBox="0 0 280 188" fill="none" xmlns="http://www.w3.org/2000/svg">
  <rect width="280" height="188" fill="white"/>
  <path d="M14 24L51 61" stroke="#D8D8D8" stroke-width="2" stroke-miterlimit="10" stroke-linecap="round" stroke-linejoin="round"/>
  <path d="M51 43L32 24" stroke="#D8D8D8" stroke-width="2" stroke-miterlimit="10" stroke-linecap="round" stroke-linejoin="round"/>
  <path d="M34.3 59.7L15.3 40.7" stroke="#D8D8D8" stroke-width="2" stroke-miterlimit="10" stroke-linecap="round" stroke-linejoin="round"/>
  <path d="M157 24L194 61" stroke="#D8D8D8" stroke-width="2" stroke-miterlimit="10" stroke-linecap="round" stroke-linejoin="round"/>
  <path d="M194 43L175 24" stroke="#D8D8D8" stroke-width="2" stroke-miterlimit="10" stroke-linecap="round" stroke-linejoin="round"/>
  <path d="M177.3 59.7L158.3 40.7" stroke="#D8D8D8" stroke-width="2" stroke-miterlimit="10" stroke-linecap="round" stroke-linejoin="round"/>
  <path d="M91 70C97.9036 70 103.5 64.4036 103.5 57.5C103.5 50.5964 97.9036 45 91 45C84.0964 45 78.5 50.5964 78.5 57.5C78.5 64.4036 84.0964 70 91 70Z" stroke="#D8D8D8" stroke-width="2" stroke-miterlimit="10" stroke-linecap="round" stroke-linejoin="round"/>
  <path d="M90.5 32C97.4036 32 103 26.4036 103 19.5C103 12.5964 97.4036 7 90.5 7C83.5964 7 78 12.5964 78 19.5C78 26.4036 83.5964 32 90.5 32Z" stroke="#D8D8D8" stroke-width="2" stroke-miterlimit="10" stroke-linecap="round" stroke-linejoin="round"/>
  <path d="M91 107.5C97.9036 107.5 103.5 101.904 103.5 95C103.5 88.0964 97.9036 82.5 91 82.5C84.0964 82.5 78.5 88.0964 78.5 95C78.5 101.904 84.0964 107.5 91 107.5Z" stroke="#D8D8D8" stroke-width="2" stroke-miterlimit="10" stroke-linecap="round" stroke-linejoin="round"/>
  <path d="M91 146C97.9036 146 103.5 140.404 103.5 133.5C103.5 126.596 97.9036 121 91 121C84.0964 121 78.5 126.596 78.5 133.5C78.5 140.404 84.0964 146 91 146Z" stroke="#D8D8D8" stroke-width="2" stroke-miterlimit="10" stroke-linecap="round" stroke-linejoin="round"/>
  <path d="M111 166V2" stroke="#D8D8D8" stroke-width="2" stroke-miterlimit="10" stroke-linecap="round" stroke-linejoin="round"/>
  <path d="M70 166V2" stroke="#D8D8D8" stroke-width="2" stroke-miterlimit="10" stroke-linecap="round" stroke-linejoin="round"/>
  <path d="M279 186H1" stroke="#3E4348" stroke-width="2" stroke-miterlimit="10" stroke-linecap="round" stroke-linejoin="round"/>
  <path d="M139.659 137C139.759 137.5 140.659 140 141.159 140.5C148.659 147.5 154.159 136 157.759 131.1L148.459 120.6C148.459 120.6 146.459 115.5 145.059 111.3C145.059 111.3 126.659 102.9 128.659 116.4C130.659 129.9 139.659 137 139.659 137Z" fill="#C8946C" stroke="#3E4348" stroke-width="2" stroke-miterlimit="10" stroke-linecap="round" stroke-linejoin="round"/>
  <path d="M85.6585 102.5C90.8585 95.4 101.659 94 101.659 94L126.458 93C126.458 93 141.158 96.3 143.758 107.3C143.958 108.3 144.458 109.7 144.958 111.4V112.3C144.958 112.3 143.759 117.9 139.059 118.1L136.359 110.2C136.359 110.2 141.559 124.1 141.559 128.1C141.559 132.6 133.359 154.5 133.359 154.5C130.286 155.865 140 161 140 166C127.242 166 92.9415 166 84 166C84 161.5 90.2585 157.5 90.2585 154.4C90.2585 154.4 84.0585 140.6 82.5585 126.6C81.8585 118.8 80.1585 110 85.6585 102.5Z" fill="#006AFF" stroke="#3E4348" stroke-width="2" stroke-miterlimit="10" stroke-linecap="round" stroke-linejoin="round"/>
  <path d="M127.955 129.847C127.109 133.003 123.337 138.581 115.013 135.644" stroke="#3E4348" stroke-width="2" stroke-linecap="round" stroke-linejoin="round"/>
  <path d="M147.759 138.8L160.059 140.2C160.959 140.3 161.859 139.6 161.959 138.7L164.959 116.9C165.059 115.9 164.359 115 163.459 114.9L151.159 113.5C150.259 113.4 149.359 114.1 149.259 115L146.259 136.8C146.059 137.8 146.759 138.7 147.759 138.8Z" fill="white" stroke="#3E4348" stroke-width="2" stroke-miterlimit="10" stroke-linecap="round" stroke-linejoin="round"/>
  <path d="M167.659 119.1C168.959 119.3 169.859 120.4 169.659 121.7C169.659 121.9 169.558 122.1 169.458 122.3C169.058 123.3 168.959 124.3 169.059 125.3C169.059 125.5 169.059 125.7 169.059 125.9C169.059 126.1 168.959 126.4 168.859 126.6C168.459 127.5 168.258 128.5 168.458 129.5C168.458 129.7 168.458 130 168.458 130.2C168.458 130.5 168.358 130.7 168.258 130.9C167.758 131.8 167.659 132.8 167.859 133.8C167.959 134.1 167.959 134.5 167.859 134.8C167.659 135.6 167.058 136.3 166.258 136.5C165.958 136.6 165.558 136.6 165.258 136.6L162.659 136.3C156.559 135.5 151.458 128.6 152.258 122.8C152.758 119.1 156.959 117.6 160.659 118.1L167.659 119.1Z" fill="#C8946C" stroke="#3E4348" stroke-width="2" stroke-miterlimit="10" stroke-linecap="round" stroke-linejoin="round"/>
  <path d="M152.958 122L162.758 123.3" stroke="#3E4348" stroke-width="2" stroke-miterlimit="10" stroke-linecap="round" stroke-linejoin="round"/>
  <path d="M152.958 126.6L162.258 128" stroke="#3E4348" stroke-width="2" stroke-miterlimit="10" stroke-linecap="round" stroke-linejoin="round"/>
  <path d="M155.259 131.5L161.659 132.5" stroke="#3E4348" stroke-width="2" stroke-miterlimit="10" stroke-linecap="round" stroke-linejoin="round"/>
  <path d="M126.259 96.5999L124.259 94.0999C124.259 94.0999 129.059 90.8999 130.259 86.0999C132.059 78.9999 132.759 74.5999 132.759 61.5999C132.759 51.5999 128.459 45.9999 114.059 45.2999C105.159 44.8999 81.0585 55.9999 96.0585 87.8999C97.2585 90.4999 99.2586 93.1999 101.759 94.0999C98.1586 95.9999 98.7585 98.7999 100.059 99.5999C106.359 103.8 122.859 108.9 122.859 108.9C124.259 109.3 125.759 108.7 126.459 107.3C126.559 107.4 127.659 97.9999 126.259 96.5999Z" fill="#C8946C" stroke="#3E4348" stroke-width="2" stroke-miterlimit="10" stroke-linecap="round" stroke-linejoin="round"/>
  <path d="M114.259 60.1C113.659 59.3 112.559 58.6 111.259 58.6C109.959 58.6 108.359 59.3 107.759 60.1" stroke="#3E4348" stroke-width="2" stroke-miterlimit="10" stroke-linecap="round"/>
  <g clip-path="url(#clip0)">
    <path d="M127.5 40C117.812 30.4805 104.45 36.0709 99.1935 42.828C98.9646 43.1222 98.5951 43.2733 98.2229 43.2505C85.7512 42.4868 78.2467 72.9697 93.5 102C96.4038 105.684 98.4869 105.229 102.095 105.682C102.899 105.783 103.565 104.969 103.274 104.212C98.4888 91.7376 98.068 75.9577 99.828 62.7195C100.077 60.8433 100.807 55.8723 103.747 53.6407C104.073 53.3936 104.521 53.43 104.846 53.6778C114.704 61.1953 126.354 65.8321 132.153 64.6841C132.958 64.5246 133.903 65.1652 133.862 65.9851C133.138 80.1936 138.61 86.3427 132.835 103.587C132.485 104.632 133.758 105.413 134.436 104.544C152.669 81.1716 140.269 52.5468 127.5 40Z" fill="#3E4348"/>
  </g>
  <path d="M131.259 60.1C130.659 59.3 129.559 58.6 128.259 58.6C126.959 58.6 125.359 59.3 124.759 60.1" stroke="#3E4348" stroke-width="2" stroke-miterlimit="10" stroke-linecap="round"/>
  <path d="M103.759 97.6C104.311 97.6 104.759 97.1523 104.759 96.6C104.759 96.0477 104.311 95.6 103.759 95.6C103.206 95.6 102.759 96.0477 102.759 96.6C102.759 97.1523 103.206 97.6 103.759 97.6Z" fill="white"/>
  <path d="M107.759 99.6C108.311 99.6 108.759 99.1523 108.759 98.6C108.759 98.0477 108.311 97.6 107.759 97.6C107.206 97.6 106.759 98.0477 106.759 98.6C106.759 99.1523 107.206 99.6 107.759 99.6Z" fill="white"/>
  <path d="M112.259 101.1C112.811 101.1 113.259 100.652 113.259 100.1C113.259 99.5477 112.811 99.1 112.259 99.1C111.706 99.1 111.259 99.5477 111.259 100.1C111.259 100.652 111.706 101.1 112.259 101.1Z" fill="white"/>
  <path d="M116.759 102.1C117.311 102.1 117.759 101.652 117.759 101.1C117.759 100.548 117.311 100.1 116.759 100.1C116.206 100.1 115.759 100.548 115.759 101.1C115.759 101.652 116.206 102.1 116.759 102.1Z" fill="white"/>
  <path d="M120.759 101.6C121.311 101.6 121.759 101.152 121.759 100.6C121.759 100.048 121.311 99.6 120.759 99.6C120.206 99.6 119.759 100.048 119.759 100.6C119.759 101.152 120.206 101.6 120.759 101.6Z" fill="white"/>
  <path d="M121.759 98.1C122.311 98.1 122.759 97.6523 122.759 97.1C122.759 96.5477 122.311 96.1 121.759 96.1C121.206 96.1 120.759 96.5477 120.759 97.1C120.759 97.6523 121.206 98.1 121.759 98.1Z" fill="white"/>
  <path d="M153.313 117.135C153.381 116.309 152.901 115.596 152.24 115.541C151.58 115.487 150.989 116.112 150.921 116.937C150.853 117.763 151.333 118.476 151.994 118.531C152.654 118.585 153.245 117.96 153.313 117.135Z" fill="#3E4348"/>
  <path d="M112.259 82.1C112.259 85.7 116.259 85.6 117.259 85.6" stroke="#3E4348" stroke-width="2" stroke-miterlimit="10" stroke-linecap="round"/>
  <path d="M127.258 70.6H127.358C127.858 70.6 128.258 70.2 128.258 69.7V66.6C128.258 66.1 127.858 65.7 127.358 65.7H127.258C126.758 65.7 126.358 66.1 126.358 66.6V69.7C126.258 70.2 126.758 70.6 127.258 70.6Z" fill="#3E4348"/>
  <path d="M127.058 67.5V67.8C127.058 68.3 127.458 68.7 127.958 68.7H128.958C129.458 68.7 129.858 68.3 129.858 67.8V67.5C129.858 67 129.458 66.6 128.958 66.6H127.958C127.458 66.6 127.058 67 127.058 67.5Z" fill="#3E4348"/>
  <path d="M111.358 70.6H111.258C110.758 70.6 110.358 70.2 110.358 69.7V66.6C110.358 66.1 110.758 65.7 111.258 65.7H111.358C111.858 65.7 112.258 66.1 112.258 66.6V69.7C112.258 70.2 111.858 70.6 111.358 70.6Z" fill="#3E4348"/>
  <path d="M111.559 67.5V67.8C111.559 68.3 111.159 68.7 110.659 68.7H109.659C109.159 68.7 108.759 68.3 108.759 67.8V67.5C108.759 67 109.159 66.6 109.659 66.6H110.659C111.159 66.6 111.559 67 111.559 67.5Z" fill="#3E4348"/>
  <path d="M123.259 69.1C123.259 69.1 123.259 75.1 123.259 76.1C123.259 77.1 122.459 78.6 119.759 78.6" stroke="#3E4348" stroke-width="2" stroke-miterlimit="10" stroke-linecap="round"/>
  <path d="M106.158 131.5L107.658 122" stroke="#3E4348" stroke-width="2" stroke-miterlimit="10" stroke-linecap="round" stroke-linejoin="round"/>
  <path d="M87.1584 131.5C87.1584 131.5 85.6584 125.5 85.6584 120.5" stroke="#3E4348" stroke-width="2" stroke-miterlimit="10" stroke-linecap="round" stroke-linejoin="round"/>
  <path d="M87.1584 132C89.1584 143 92.0584 153.1 96.4584 158.7C102.758 166.9 121.058 159.3 125.758 158C128.658 157.2 127.358 165.2 133.458 163.6C139.558 162 143.458 155.6 139.258 150.1C134.358 143.8 129.758 144.8 126.258 147.5C124.058 149.2 109.558 148.9 108.658 148C104.658 144 106.158 131.5 106.158 131.5C106.158 131.5 96.6584 136 87.1584 132Z" fill="#C8946C" stroke="#3E4348" stroke-width="2" stroke-miterlimit="10" stroke-linecap="round" stroke-linejoin="round"/>
  <path d="M126.658 157.8C126.658 157.8 131.158 155.2 133.158 159.7" stroke="#3E4348" stroke-width="2" stroke-miterlimit="10" stroke-linecap="round" stroke-linejoin="round"/>
  <path d="M279 166H1" stroke="#3E4348" stroke-width="2" stroke-miterlimit="10" stroke-linecap="round" stroke-linejoin="round"/>
  <path d="M26.8635 120.4C27.7635 123.5 31.3635 124.3 34.2635 122.7C36.6635 121.5 37.3635 118.8 35.9635 116.8C34.7635 115.2 32.3635 114.7 30.4635 115.7C28.9635 116.5 28.4635 118.2 29.3635 119.5C30.0635 120.5 31.6635 120.9 32.8635 120.2C33.8635 119.7 33.9635 117.7 32.4635 117.7M14.1635 129.9C16.7635 131.6 20.3635 129.6 22.0635 126.4C23.4635 123.8 22.5635 121.4 20.0635 120.9C18.0635 120.5 15.6635 121.9 14.5635 123.9C13.6635 125.5 14.2635 127.1 15.8635 127.4C17.1635 127.6 18.6635 126.8 19.3635 125.5C19.7635 124.7 19.2635 123.6 18.4635 123.6M40.3635 120.9C40.3635 123.8 43.0635 125.2 45.7635 124.6C47.9635 124.1 49.2635 122 48.5635 120C48.0635 118.4 46.1635 117.3 44.3635 117.7C42.9635 118 42.1635 118.8 42.6635 120.1C42.9635 121.2 44.0635 122 45.1635 121.8C45.5635 121.7 46.0635 121.6 46.1635 121.1M16.1635 134.2C9.06352 134.6 9.66351 125.7 10.4635 123C11.7635 118.5 18.8635 114.8 23.8635 118C23.5635 111.5 36.4635 108 39.3635 115.6C41.4635 112 50.7635 113.5 51.9635 118C53.1635 122.5 50.4635 126.5 50.4635 126.5C50.4635 126.5 43.9635 138 37.9635 138.5C31.9635 139 16.1635 134.2 16.1635 134.2Z" stroke="#3E4348" stroke-width="2" stroke-miterlimit="10" stroke-linecap="round" stroke-linejoin="round"/>
  <path d="M14.9635 134H47.9635L42.9635 166H19.9635L14.9635 134Z" fill="white" stroke="#3E4348" stroke-width="2" stroke-miterlimit="10" stroke-linecap="round" stroke-linejoin="round"/>
  <path d="M24.5636 133.8C24.5636 133.8 18.9636 135.5 17.9636 145.5C16.9636 155.5 20.3636 158.1 25.4636 159.3C30.4636 160.5 24.5636 133.8 24.5636 133.8Z" fill="white" stroke="#3E4348" stroke-width="2" stroke-miterlimit="10" stroke-linecap="round" stroke-linejoin="round"/>
  <path d="M47.9635 132C51.3635 130.3 54.8635 130.3 57.3635 130.6C58.6635 130.8 59.3635 129 58.2635 128.3C56.6635 127.1 54.0635 126 49.9635 125.5C40.4635 124.5 36.4635 131.5 36.4635 131.5C36.4635 131.5 46.9635 132.5 47.9635 132Z" fill="white" stroke="#3E4348" stroke-width="2" stroke-miterlimit="10" stroke-linecap="round" stroke-linejoin="round"/>
  <path d="M36.4635 131.5C36.4635 131.5 45.9635 129.5 52.9635 132.5C59.9635 135.5 60.4635 139.5 60.4635 146.5C60.4635 153.5 60.9635 162 57.4635 164C53.9635 166 47.2635 158.6 46.9635 154.5C46.4635 148 34.4635 134.5 36.4635 131.5Z" fill="white" stroke="#3E4348" stroke-width="2" stroke-miterlimit="10" stroke-linecap="round" stroke-linejoin="round"/>
  <path d="M34.9636 130C37.9636 130.6 38.0636 127.3 41.9636 129C45.4636 130.5 45.9636 139 42.4636 149.5C38.9636 160 36.4636 166 29.4636 166C22.7636 166 22.4636 151 23.4636 143C24.4636 135 22.9636 127.5 28.4636 127C33.0636 126.6 32.4636 129.5 34.9636 130Z" fill="white" stroke="#3E4348" stroke-width="2" stroke-miterlimit="10" stroke-linecap="round" stroke-linejoin="round"/>
  <path d="M175 166L209 166L209 162L175 162L175 166Z" stroke="#3E4348" stroke-width="2" stroke-linecap="round" stroke-linejoin="round"/>
  <path d="M173 162H211V153L179 140L178 142L179 146L176 145L173 147V162Z" stroke="#3E4348" stroke-width="2" stroke-linecap="round" stroke-linejoin="round"/>
  <path d="M173 148L184 153L188.4 144" stroke="#3E4348" stroke-width="2" stroke-linecap="round" stroke-linejoin="round"/>
  <path fill-rule="evenodd" clip-rule="evenodd" d="M248 109C241.373 109 236 114.373 236 121V123H227C226.448 123 226 123.448 226 124V166C226 166.552 226.448 167 227 167H269C269.552 167 270 166.552 270 166V124C270 123.448 269.552 123 269 123H260V121C260 114.373 254.627 109 248 109ZM258 123V121C258 115.477 253.523 111 248 111C242.477 111 238 115.477 238 121V123H258ZM236 125H228V165H268V125H260H259H237H236ZM260 130C260 130.552 259.552 131 259 131C258.448 131 258 130.552 258 130C258 129.448 258.448 129 259 129C259.552 129 260 129.448 260 130ZM237 131C237.552 131 238 130.552 238 130C238 129.448 237.552 129 237 129C236.448 129 236 129.448 236 130C236 130.552 236.448 131 237 131Z" fill="#3E4348"/>
  <path d="M117 66.4819C117 65.2275 116.241 64.098 115.079 63.6247C112.47 62.5619 109.62 62.2337 106.838 62.6757L104.018 63.1238C102.911 63.2998 102.164 64.3517 102.364 65.4551L103.199 70.0683C103.715 72.9236 106.201 75 109.103 75H113C115.209 75 117 73.2091 117 71V66.4819Z" fill="white"/>
  <path d="M124 66.2273C124 65.1219 124.655 64.1216 125.668 63.6793C128.177 62.5842 130.953 62.2542 133.649 62.7308L136.044 63.1542C137.126 63.3456 137.852 64.3746 137.668 65.4583L136.896 70.0038C136.407 72.8889 133.907 75 130.981 75H128C125.791 75 124 73.2091 124 71V66.2273Z" fill="white"/>
  <path d="M103 69H92M124 69H117M117 66.4819C117 65.2275 116.241 64.098 115.079 63.6247C112.47 62.5619 109.62 62.2337 106.838 62.6757L104.018 63.1238C102.911 63.2998 102.164 64.3517 102.364 65.4551L103.199 70.0683C103.715 72.9236 106.201 75 109.103 75H113C115.209 75 117 73.2091 117 71V66.4819ZM124 66.2273C124 65.1219 124.655 64.1216 125.668 63.6793C128.177 62.5842 130.953 62.2542 133.649 62.7308L136.044 63.1542C137.126 63.3456 137.852 64.3746 137.668 65.4583L136.896 70.0038C136.407 72.8889 133.907 75 130.981 75H128C125.791 75 124 73.2091 124 71V66.2273Z" stroke="#3E4348" stroke-width="2" stroke-miterlimit="10" stroke-linecap="round" stroke-linejoin="round"/>
  <path d="M128 67V70M112 67V70M110 68H112M128 68H130" stroke="#3E4348" stroke-width="2" stroke-miterlimit="10" stroke-linecap="round" stroke-linejoin="round"/>
  <defs>
    <clipPath id="clip0">
      <rect width="72" height="92" fill="white" transform="translate(78 15)"/>
    </clipPath>
  </defs>
</svg>