<svg width="280" height="188" fill="none" xmlns="http://www.w3.org/2000/svg">
    <title>Merchant using Square</title>
    <path d="M7 16h266v170H7z"/>
    <path d="M14 25l37 37M51 44L32 25M34.3 60.7l-19-19M157 25l37 37M194 44l-19-19M177.3 60.7l-19-19M91 81c6.904 0 12.5-5.596 12.5-12.5S97.904 56 91 56s-12.5 5.596-12.5 12.5S84.096 81 91 81zM90.5 43c6.904 0 12.5-5.596 12.5-12.5S97.404 18 90.5 18 78 23.596 78 30.5 83.596 43 90.5 43zM91 118.5c6.904 0 12.5-5.596 12.5-12.5S97.904 93.5 91 93.5 78.5 99.096 78.5 106s5.596 12.5 12.5 12.5zM111 167V18M70 167V18" stroke="#D8D8D8" stroke-width="2" stroke-miterlimit="10" stroke-linecap="round" stroke-linejoin="round"/>
    <path d="M273 187H7" stroke="#D6D9DC" stroke-width="2" stroke-miterlimit="10" stroke-linecap="round" stroke-linejoin="round"/>
    <path d="M139.659 138c.1.5 1 3 1.5 3.5 7.5 7 13-4.5 16.6-9.4l-9.3-10.5s-2-5.1-3.4-9.3c0 0-18.4-8.4-16.4 5.1s11 20.6 11 20.6z" fill="#C8946C" stroke="#3E4348" stroke-width="2" stroke-miterlimit="10" stroke-linecap="round" stroke-linejoin="round"/>
    <path d="M85.659 103.5c5.2-7.1 16-8.5 16-8.5l24.799-1s14.7 3.3 17.3 14.3c.2 1 .7 2.4 1.2 4.1v.9s-1.199 5.6-5.899 5.8l-2.7-7.9s5.2 13.9 5.2 17.9c0 4.5-8.2 26.4-8.2 26.4C130.286 156.865 140 162 140 167H84c0-4.5 6.258-8.5 6.258-11.6 0 0-6.2-13.8-7.7-27.8-.7-7.8-2.4-16.6 3.1-24.1z" fill="#006AFF" stroke="#3E4348" stroke-width="2" stroke-miterlimit="10" stroke-linecap="round" stroke-linejoin="round"/>
    <path d="M127.955 130.847c-.846 3.156-4.618 8.734-12.942 5.797" stroke="#3E4348" stroke-width="2" stroke-linecap="round" stroke-linejoin="round"/>
    <path d="M147.759 139.8l12.3 1.4c.9.1 1.8-.6 1.9-1.5l3-21.8c.1-1-.6-1.9-1.5-2l-12.3-1.4c-.9-.1-1.8.6-1.9 1.5l-3 21.8c-.2 1 .5 1.9 1.5 2z" fill="#fff" stroke="#3E4348" stroke-width="2" stroke-miterlimit="10" stroke-linecap="round" stroke-linejoin="round"/>
    <path d="M167.659 120.1c1.3.2 2.2 1.3 2 2.6 0 .2-.1.4-.201.6-.399 1-.499 2-.399 3v.6c0 .2-.1.5-.2.7-.4.9-.601 1.9-.401 2.9v.7c0 .3-.1.5-.2.7-.5.9-.599 1.9-.399 2.9.1.3.1.7 0 1-.2.8-.801 1.5-1.601 1.7-.3.1-.7.1-1 .1l-2.599-.3c-6.1-.8-11.201-7.7-10.401-13.5.5-3.7 4.701-5.2 8.401-4.7l7 1z" fill="#C8946C" stroke="#3E4348" stroke-width="2" stroke-miterlimit="10" stroke-linecap="round" stroke-linejoin="round"/>
    <path d="M152.958 123l9.8 1.3M152.958 127.6l9.3 1.4M155.259 132.5l6.4 1" stroke="#3E4348" stroke-width="2" stroke-miterlimit="10" stroke-linecap="round" stroke-linejoin="round"/>
    <path d="M126.259 97.6l-2-2.5s4.8-3.2 6-8c1.8-7.1 2.5-11.5 2.5-24.5 0-10-4.3-15.6-18.7-16.3-8.9-.4-33 10.7-18 42.6 1.2 2.6 3.2 5.3 5.7 6.2-3.6 1.9-3 4.7-1.7 5.5 6.3 4.2 22.8 9.3 22.8 9.3 1.4.4 2.9-.2 3.6-1.6.1.1 1.2-9.3-.2-10.7z" fill="#C8946C" stroke="#3E4348" stroke-width="2" stroke-miterlimit="10" stroke-linecap="round" stroke-linejoin="round"/>
    <path d="M114.259 61.1c-.6-.8-1.7-1.5-3-1.5s-2.9.7-3.5 1.5" stroke="#3E4348" stroke-width="2" stroke-miterlimit="10" stroke-linecap="round"/>
    <g clip-path="url(#clip0)">
        <path d="M127.5 41c-9.688-9.52-23.05-3.929-28.306 2.828a1.139 1.139 0 0 1-.971.423C85.75 43.487 78.247 73.97 93.5 103c2.904 3.684 4.987 3.229 8.594 3.682.805.101 1.471-.712 1.18-1.47-4.785-12.474-5.206-28.254-3.446-41.492.249-1.877.979-6.848 3.919-9.08.326-.246.774-.21 1.099.038 9.858 7.517 21.508 12.154 27.306 11.006.806-.16 1.751.481 1.71 1.301-.724 14.209 4.748 20.358-1.027 37.602-.35 1.045.923 1.826 1.601.957C152.669 82.172 140.269 53.547 127.5 41z" fill="#3E4348"/>
    </g>
    <path d="M131.259 61.1c-.6-.8-1.7-1.5-3-1.5s-2.9.7-3.5 1.5" stroke="#3E4348" stroke-width="2" stroke-miterlimit="10" stroke-linecap="round"/>
    <path d="M103.759 98.6a1 1 0 1 0 0-2 1 1 0 0 0 0 2zM107.759 100.6a1 1 0 1 0 0-2 1 1 0 0 0 0 2zM112.259 102.1a1 1 0 1 0 0-2 1 1 0 0 0 0 2zM116.759 103.1a1 1 0 1 0 0-2 1 1 0 0 0 0 2zM120.759 102.6a1 1 0 1 0 0-2 1 1 0 0 0 0 2zM121.759 99.1a1 1 0 1 0 0-2 1 1 0 0 0 0 2z" fill="#fff"/>
    <path d="M153.313 118.134c.068-.825-.412-1.539-1.073-1.593-.66-.055-1.251.571-1.319 1.396-.068.826.412 1.539 1.073 1.594.66.054 1.251-.571 1.319-1.397z" fill="#3E4348"/>
    <path d="M162.281 112.475l-.307 2.506m5.378-13.087l-7.438-.911c-.96-.117-1.902.62-2.087 1.632l-.844 7.385c-.118.96.619 1.902 1.579 2.02l7.438.911c.959.117 1.902-.619 2.087-1.632l.896-7.317c.065-1.027-.672-1.97-1.631-2.088zm-6.257 2.682l4.241.52-.52 4.241-4.241-.519.52-4.242z" stroke="#3E4348" stroke-width="2" stroke-miterlimit="10" stroke-linecap="round" stroke-linejoin="round"/>
    <path d="M112.259 83.1c0 3.6 4 3.5 5 3.5" stroke="#3E4348" stroke-width="2" stroke-miterlimit="10" stroke-linecap="round"/>
    <path d="M127.258 71.6h.1c.5 0 .9-.4.9-.9v-3.1c0-.5-.4-.9-.9-.9h-.1c-.5 0-.9.4-.9.9v3.1c-.1.5.4.9.9.9z" fill="#3E4348"/>
    <path d="M127.058 68.5v.3c0 .5.4.9.9.9h1c.5 0 .9-.4.9-.9v-.3c0-.5-.4-.9-.9-.9h-1c-.5 0-.9.4-.9.9zM111.358 71.6h-.1c-.5 0-.9-.4-.9-.9v-3.1c0-.5.4-.9.9-.9h.1c.5 0 .9.4.9.9v3.1c0 .5-.4.9-.9.9z" fill="#3E4348"/>
    <path d="M111.559 68.5v.3c0 .5-.4.9-.9.9h-1c-.5 0-.9-.4-.9-.9v-.3c0-.5.4-.9.9-.9h1c.5 0 .9.4.9.9z" fill="#3E4348"/>
    <path d="M123.259 70.1v7c0 1-.8 2.5-3.5 2.5" stroke="#3E4348" stroke-width="2" stroke-miterlimit="10" stroke-linecap="round"/>
    <path d="M106.158 132.5l1.5-9.5M87.158 132.5s-1.5-6-1.5-11" stroke="#3E4348" stroke-width="2" stroke-miterlimit="10" stroke-linecap="round" stroke-linejoin="round"/>
    <path d="M87.158 133c2 11 4.9 21.1 9.3 26.7 6.3 8.2 24.6.6 29.3-.7 2.9-.8 1.6 7.2 7.7 5.6 6.1-1.6 10-8 5.8-13.5-4.9-6.3-9.5-5.3-13-2.6-2.2 1.7-16.7 1.4-17.6.5-4-4-2.5-16.5-2.5-16.5s-9.5 4.5-19 .5z" fill="#C8946C" stroke="#3E4348" stroke-width="2" stroke-miterlimit="10" stroke-linecap="round" stroke-linejoin="round"/>
    <path d="M126.658 158.8s4.5-2.6 6.5 1.9" stroke="#3E4348" stroke-width="2" stroke-miterlimit="10" stroke-linecap="round" stroke-linejoin="round"/>
    <path d="M273 167H7" stroke="#D6D9DC" stroke-width="2" stroke-miterlimit="10" stroke-linecap="round" stroke-linejoin="round"/>
    <path d="M16.163 135.2l.291-.957a.993.993 0 0 0-.347-.041l.056.998zm-5.7-11.2l.96.284.001-.006-.96-.278zm13.4-5l-.538.842a.999.999 0 0 0 1.538-.888l-1 .046zm15.5-2.4l-.934.356a1.001 1.001 0 0 0 1.798.148l-.863-.504zm11.1 10.9l-.828-.56a1.033 1.033 0 0 0-.042.068l.87.492zm-22.64-6.379a1 1 0 0 0-1.92.558l1.92-.558zm6.44 2.579l-.447-.894a3.998 3.998 0 0 0-.036.018l.483.876zm1.7-5.9l.82-.573a1.122 1.122 0 0 0-.02-.027l-.8.6zm-5.5-1.1l-.465-.885-.005.003.47.882zm-1.1 3.8l-.822.569.003.004.82-.573zm3.5.7l-.447-.894a.653.653 0 0 0-.056.03l.504.864zm-.4-3.5a1 1 0 0 0 0 2v-2zm-17.752 12.363a1 1 0 1 0-1.095 1.674l1.095-1.674zm7.353-2.663l-.881-.474-.003.005.884.469zm-2-5.5l-.197.981.197-.981zm-5.5 3l.871.49.005-.008-.877-.482zm1.3 3.5l-.185.983.032.005.152-.988zm3.5-1.9l.88.474.014-.027-.895-.447zm-.9-2.9a1 1 0 0 0 0 2v-2zm22.9-1.7a1 1 0 0 0-2 0h2zm4.4 3.7l.216.976.005-.001-.221-.975zm2.8-4.6l-.955.298a.632.632 0 0 0 .01.032l.944-.33zm-4.2-2.3l.21.978.007-.002-.218-.976zm-1.7 2.4l.964-.263a.954.954 0 0 0-.031-.096l-.934.359zm2.5 1.7l.178.984a1.33 1.33 0 0 0 .064-.014l-.242-.97zm1.98-.504a1 1 0 0 0-1.961-.392l1.961.392zm-31.037 11.906c-1.55.087-2.575-.331-3.28-.953-.73-.644-1.218-1.595-1.507-2.732-.584-2.303-.258-5.016.102-6.233l-1.917-.568c-.44 1.483-.814 4.57-.123 7.292.349 1.376.991 2.743 2.122 3.74 1.153 1.018 2.716 1.563 4.716 1.45l-.113-1.996zm-4.683-9.924c.544-1.884 2.373-3.739 4.743-4.745 2.347-.996 5.008-1.067 7.157.309l1.079-1.684c-2.85-1.824-6.24-1.645-9.018-.466-2.755 1.169-5.126 3.414-5.882 6.03l1.921.556zm13.439-5.324c-.059-1.262.515-2.431 1.568-3.406 1.06-.982 2.561-1.719 4.186-2.056 3.296-.685 6.608.31 7.812 3.464l1.869-.713c-1.697-4.445-6.284-5.5-10.088-4.71-1.925.4-3.773 1.283-5.139 2.548-1.372 1.271-2.298 2.977-2.206 4.965l1.998-.092zm15.364-1.85c.342-.586 1.032-1.053 2.064-1.31 1.024-.255 2.275-.271 3.535-.047 1.258.224 2.463.677 3.402 1.305.942.629 1.55 1.386 1.77 2.206l1.932-.516c-.382-1.43-1.386-2.548-2.59-3.353-1.209-.807-2.684-1.348-4.164-1.611-1.478-.263-3.02-.261-4.368.075-1.34.334-2.6 1.029-3.308 2.243l1.727 1.008zm10.77 2.154c.533 1.996.206 3.91-.281 5.361-.243.721-.52 1.312-.734 1.72a9.42 9.42 0 0 1-.33.575l-.016.025a.012.012 0 0 1-.003.003c0 .001 0 0 0 0l.001-.001.83.559.829.559v-.001l.001-.002.004-.004.008-.014.03-.044.097-.157c.08-.134.191-.325.319-.567.254-.482.577-1.172.86-2.014.562-1.674.985-4.01.318-6.514l-1.933.516zm-.533 8.242l-.871-.492v.001l-.003.005-.013.022-.052.09a44.684 44.684 0 0 1-1.01 1.635 46.815 46.815 0 0 1-2.83 3.923c-1.162 1.438-2.484 2.86-3.857 3.945-1.388 1.098-2.733 1.773-3.948 1.874l.167 1.994c1.785-.149 3.503-1.099 5.02-2.298 1.534-1.212 2.962-2.758 4.174-4.258a48.719 48.719 0 0 0 2.953-4.093 45.805 45.805 0 0 0 1.118-1.818l.016-.027.004-.008.001-.002v-.001l-.87-.492zM37.88 138.503c-1.37.115-3.381-.073-5.693-.451-2.29-.374-4.801-.921-7.138-1.486a177.514 177.514 0 0 1-7.913-2.12l-.507-.15-.131-.04-.033-.01-.008-.002-.002-.001-.291.957-.29.957.002.001.01.003.034.01.136.041.517.153a177.959 177.959 0 0 0 8.006 2.144c2.362.572 4.927 1.132 7.286 1.517 2.338.382 4.552.606 6.182.471l-.166-1.994zm-11.977-16.824c.555 1.91 1.961 3.123 3.64 3.596 1.652.466 3.547.215 5.204-.699l-.967-1.752c-1.243.686-2.598.835-3.695.526-1.072-.302-1.916-1.039-2.261-2.229l-1.92.558zm8.808 2.915c2.902-1.451 3.85-4.828 2.072-7.367l-1.639 1.146c1.022 1.461.57 3.484-1.328 4.433l.895 1.788zm2.053-7.394c-1.518-2.023-4.466-2.596-6.766-1.385l.931 1.77c1.5-.789 3.352-.362 4.235.815l1.6-1.2zm-6.771-1.382c-1.946 1.037-2.743 3.386-1.452 5.251l1.645-1.138c-.51-.735-.306-1.786.748-2.349l-.941-1.764zm-1.449 5.255c1.002 1.432 3.18 1.95 4.823.991l-1.007-1.728c-.756.441-1.78.159-2.177-.409l-1.639 1.146zm4.767 1.021c.947-.473 1.345-1.541 1.288-2.398a2.175 2.175 0 0 0-.575-1.365c-.398-.418-.947-.631-1.56-.631v2c.136 0 .137.037.111.01-.01-.01.021.016.028.119a.677.677 0 0 1-.067.329c-.05.103-.104.14-.12.148l.895 1.788zm-19.695 9.643c1.67 1.092 3.608.946 5.267.153 1.65-.79 3.124-2.252 4.064-4.021l-1.767-.938c-.76 1.431-1.936 2.569-3.16 3.154-1.217.582-2.38.586-3.31-.022l-1.094 1.674zm9.328-3.863c.798-1.483 1.006-3.034.52-4.356-.495-1.352-1.654-2.288-3.204-2.599l-.393 1.962c.95.189 1.491.703 1.72 1.326.24.653.198 1.601-.404 2.719l1.76.948zm-2.684-6.955c-1.292-.258-2.635.075-3.77.707-1.142.636-2.157 1.617-2.803 2.792l1.753.964a5.268 5.268 0 0 1 2.023-2.008c.838-.468 1.696-.635 2.404-.493l.393-1.962zm-6.568 3.491c-.564 1.002-.713 2.109-.353 3.077.369.99 1.222 1.686 2.34 1.896l.369-1.966c-.482-.09-.729-.344-.835-.629-.115-.308-.114-.8.222-1.398l-1.743-.98zm2.02 4.978c1.77.273 3.657-.79 4.532-2.414l-1.76-.948c-.526.976-1.639 1.513-2.468 1.386l-.304 1.976zm4.546-2.441c.355-.709.298-1.507.012-2.12-.283-.606-.9-1.227-1.806-1.227v2a.16.16 0 0 1-.05-.008c-.014-.005-.02-.01-.019-.01a.267.267 0 0 1 .062.091.462.462 0 0 1 .012.38l1.789.894zm19.106-5.047c0 1.8.856 3.191 2.154 4.009 1.267.798 2.894 1.016 4.462.667l-.433-1.952c-1.132.251-2.205.069-2.963-.408-.727-.458-1.22-1.216-1.22-2.316h-2zm6.621 4.675c2.695-.612 4.448-3.261 3.522-5.905l-1.887.66c.474 1.356-.373 2.907-2.078 3.295l.443 1.95zm3.533-5.873c-.664-2.124-3.093-3.485-5.371-2.978l.434 1.952c1.32-.294 2.692.546 3.028 1.622l1.909-.596zm-5.364-2.98c-.808.173-1.623.524-2.141 1.187-.571.732-.632 1.642-.283 2.55l1.867-.718c-.151-.392-.062-.532-.008-.6.107-.137.392-.336.984-.463l-.419-1.956zm-2.455 3.641c.415 1.521 1.955 2.728 3.643 2.421l-.357-1.968c-.512.093-1.172-.3-1.357-.979l-1.93.526zm3.707 2.407c.147-.037.518-.116.84-.288a1.7 1.7 0 0 0 .898-1.186l-1.961-.392a.327.327 0 0 1 .068-.135c.035-.043.064-.056.054-.051a.75.75 0 0 1-.117.042c-.076.023-.149.04-.267.07l.485 1.94z" fill="#3E4348"/>
    <path d="M14.963 135h33l-5 32h-23l-5-32z" fill="#fff" stroke="#3E4348" stroke-width="2" stroke-miterlimit="10" stroke-linecap="round" stroke-linejoin="round"/>
    <path d="M24.564 134.8s-5.6 1.7-6.6 11.7 2.4 12.6 7.5 13.8c5 1.2-.9-25.5-.9-25.5zM47.964 133c3.4-1.7 6.9-1.7 9.4-1.4 1.3.2 2-1.6.9-2.3-1.6-1.2-4.2-2.3-8.3-2.8-9.5-1-13.5 6-13.5 6s10.5 1 11.5.5z" fill="#fff" stroke="#3E4348" stroke-width="2" stroke-miterlimit="10" stroke-linecap="round" stroke-linejoin="round"/>
    <path d="M36.464 132.5s9.5-2 16.5 1 7.5 7 7.5 14 .5 15.5-3 17.5-10.2-5.4-10.5-9.5c-.5-6.5-12.5-20-10.5-23z" fill="#fff" stroke="#3E4348" stroke-width="2" stroke-miterlimit="10" stroke-linecap="round" stroke-linejoin="round"/>
    <path d="M34.964 131c3 .6 3.1-2.7 7-1 3.5 1.5 4 10 .5 20.5s-6 16.5-13 16.5c-6.7 0-7-15-6-23s-.5-15.5 5-16c4.6-.4 4 2.5 6.5 3z" fill="#fff" stroke="#3E4348" stroke-width="2" stroke-miterlimit="10" stroke-linecap="round" stroke-linejoin="round"/>
    <path d="M175 167h34v-4h-34v4zM173 163h38v-9l-32-13-1 2 1 4-3-1-3 2v15z" stroke="#3E4348" stroke-width="2" stroke-linecap="round" stroke-linejoin="round"/>
    <path d="M173 149l11 5 4.4-9" stroke="#3E4348" stroke-width="2" stroke-linecap="round" stroke-linejoin="round"/>
    <path fill-rule="evenodd" clip-rule="evenodd" d="M248 110c-6.627 0-12 5.373-12 12v2h-9a1 1 0 0 0-1 1v42a1 1 0 0 0 1 1h42a1 1 0 0 0 1-1v-42a1 1 0 0 0-1-1h-9v-2c0-6.627-5.373-12-12-12zm10 14v-2c0-5.523-4.477-10-10-10s-10 4.477-10 10v2h20zm-22 2h-8v40h40v-40h-32zm24 5a1 1 0 1 1-2 0 1 1 0 0 1 2 0zm-23 1a1 1 0 1 0 0-2 1 1 0 0 0 0 2z" fill="#3E4348"/>
    <path d="M117 67.482a3.084 3.084 0 0 0-1.921-2.858 15.427 15.427 0 0 0-8.241-.948l-2.82.448a2 2 0 0 0-1.654 2.33l.835 4.614A6 6 0 0 0 109.103 76H113a4 4 0 0 0 4-4v-4.518zM124 67.227a2.78 2.78 0 0 1 1.668-2.548 13.902 13.902 0 0 1 7.981-.949l2.395.424a2 2 0 0 1 1.624 2.304l-.772 4.546A6 6 0 0 1 130.981 76H128a4 4 0 0 1-4-4v-4.773z" fill="#fff"/>
    <path d="M103 71a1 1 0 0 0 0-2v2zm-11-2a1 1 0 1 0 0 2v-2zm23.079-4.376l.377-.926-.377.926zm-8.241-.948l.157.987-.157-.987zm-2.82.448l-.157-.988.157.988zm-1.654 2.33l.984-.177-.984.178zm.835 4.614l.984-.178-.984.178zm22.469-6.389l.4.917-.4-.917zm7.981-.949l.174-.984-.174.984zm2.395.424l.174-.985-.174.985zm1.624 2.304l.986.167-.986-.167zm-.772 4.546l-.986-.168.986.168zM124 71a1 1 0 0 0 0-2v2zm-7-2a1 1 0 0 0 0 2v-2zm-14 0H92v2h11v-2zm15-1.518a4.086 4.086 0 0 0-2.544-3.784l-.754 1.853A2.085 2.085 0 0 1 116 67.48h2zm-2.544-3.784a16.426 16.426 0 0 0-8.775-1.01l.314 1.975a14.427 14.427 0 0 1 7.707.888l.754-1.853zm-8.775-1.01l-2.82.448.314 1.975 2.82-.448-.314-1.975zm-2.82.448a3 3 0 0 0-2.481 3.497l1.968-.356a1 1 0 0 1 .827-1.166l-.314-1.975zm-2.481 3.497l.835 4.613 1.968-.356-.835-4.613-1.968.356zm.835 4.613A6.999 6.999 0 0 0 109.103 77v-2a5 5 0 0 1-4.92-4.11l-1.968.356zM109.103 77H113v-2h-3.897v2zM113 77a5 5 0 0 0 5-5h-2a3 3 0 0 1-3 3v2zm5-5v-4.518h-2V72h2zm7-4.773a1.78 1.78 0 0 1 1.068-1.631l-.8-1.833A3.78 3.78 0 0 0 123 67.227h2zm1.068-1.631a12.9 12.9 0 0 1 7.407-.88l.348-1.97a14.9 14.9 0 0 0-8.555 1.017l.8 1.833zm7.407-.88l2.395.423.348-1.97-2.395-.423-.348 1.97zm2.395.423a1 1 0 0 1 .812 1.152l1.972.334a3 3 0 0 0-2.436-3.456l-.348 1.97zm.812 1.152l-.772 4.545 1.972.335.772-4.546-1.972-.334zm-.772 4.545A5 5 0 0 1 130.981 75v2a7 7 0 0 0 6.901-5.83l-1.972-.334zM130.981 75H128v2h2.981v-2zM128 75a3 3 0 0 1-3-3h-2a5 5 0 0 0 5 5v-2zm-3-3v-4.773h-2V72h2zm-1-3h-7v2h7v-2zM129 68a1 1 0 0 0-2 0h2zm-2 3a1 1 0 0 0 2 0h-2zm-14-3a1 1 0 0 0-2 0h2zm-2 3a1 1 0 0 0 2 0h-2zm-1-3a1 1 0 0 0 0 2v-2zm2 2a1 1 0 0 0 0-2v2zm16-2a1 1 0 0 0 0 2v-2zm2 2a1 1 0 0 0 0-2v2zm-3-2v3h2v-3h-2zm-16 0v3h2v-3h-2zm-1 2h2v-2h-2v2zm18 0h2v-2h-2v2z" fill="#3E4348"/>
    <defs>
        <clipPath id="clip0">
            <path fill="#fff" transform="translate(78 16)" d="M0 0h72v92H0z"/>
        </clipPath>
    </defs>
</svg>
