<svg width="240" height="124" viewBox="0 0 240 124" fill="none" xmlns="http://www.w3.org/2000/svg">
<g clip-path="url(#clip0)">
<path d="M174.1 126L176.8 70.0781L194.4 73.6781L183.6 126H174.1Z" fill="#D7B396" stroke="#1A1A1A" stroke-width="2" stroke-miterlimit="10" stroke-linecap="round" stroke-linejoin="round"/>
<path d="M220.1 107.078C220.1 107.078 227.9 110.878 230.8 141.278C218.4 148.378 204 148.078 198.2 148.078C192.4 148.078 179.9 145.478 176.4 141.978C176.4 134.978 182.8 109.278 182.8 109.278L220.1 107.078Z" fill="white" stroke="#1A1A1A" stroke-width="2" stroke-miterlimit="10" stroke-linecap="round" stroke-linejoin="round"/>
<path d="M182.699 17.5783C177.199 19.7783 176.499 23.5783 180.599 28.1783C178.499 30.7783 180.299 33.6783 181.699 35.3783C182.099 35.7783 181.999 36.5783 182.199 37.1783C182.399 37.8783 182.299 38.8783 182.699 39.3783C184.799 41.7783 183.599 44.1783 185.899 46.3783C186.599 46.9783 188.299 46.9783 189.299 46.5783C189.899 46.2783 190.199 44.7783 190.199 43.8783C190.299 41.9783 189.899 40.0783 189.999 38.2783C190.099 35.7783 190.599 33.4783 193.999 33.3783C194.699 33.3783 195.499 32.4783 196.099 31.9783C198.599 29.8783 201.199 29.1783 204.199 30.7783C206.199 31.8783 208.599 32.5783 210.299 33.9783C211.399 34.8783 211.899 36.7783 212.199 38.2783C212.499 39.9783 212.999 43.5783 213.199 45.3783C213.299 46.5783 212.599 47.5783 212.999 48.6783C214.399 48.0783 217.699 50.1783 218.799 46.8783C219.299 45.2783 223.199 46.0783 223.599 42.4783C225.099 42.4783 226.899 40.2783 226.099 37.7783C228.299 38.1783 228.599 34.3783 228.999 33.3783C229.499 31.9783 228.999 29.9783 228.299 27.9783C232.199 23.4783 231.499 19.9783 225.999 17.6783C226.499 13.8783 225.699 10.6783 221.199 9.77825C220.799 9.67825 220.499 8.57825 220.199 7.87825C219.199 5.07825 216.999 3.77825 214.299 4.17825C212.299 4.47825 211.099 3.87825 209.699 2.67825C206.699 0.278253 201.999 0.578253 198.799 2.77825C197.699 3.57825 196.199 3.97825 194.799 3.97825C191.799 4.17825 189.399 4.87825 188.499 8.17825C188.299 8.77825 187.899 9.57825 187.299 9.87825C182.699 12.1783 182.599 12.2783 182.699 17.5783Z" fill="#A6735B" stroke="#A6735B" stroke-width="2" stroke-miterlimit="10" stroke-linecap="round"/>
<path d="M225.8 62.0782C220.8 53.4782 211.3 51.9782 211.3 51.9782L192 51.1782C192 51.1782 179.2 54.1782 177.1 62.7782C176.9 63.5782 176.1 68.8782 176.1 68.8782C176.1 68.8782 176.6 71.2782 180.2 71.4782L184.2 64.4782C184.2 64.4782 177.8 74.0782 177.4 79.9782C177.1 84.6782 180.1 88.2782 180.9 93.5782C181.9 100.778 182.6 106.378 182.8 109.178C193.3 113.878 210.3 112.178 220.1 107.478C220.1 107.478 226.4 90.5782 227.6 79.6782C228.3 73.5782 229.4 68.3782 225.8 62.0782Z" fill="white" stroke="#1A1A1A" stroke-width="2" stroke-miterlimit="10" stroke-linecap="round" stroke-linejoin="round"/>
<path d="M192.201 54.0784L193.801 52.1784C193.801 52.1784 188.601 50.7784 187.701 46.9784C186.301 41.4784 187.201 38.3784 187.201 26.8784C187.201 19.0784 190.501 14.6784 201.701 14.1784C208.601 13.8784 227.401 22.4785 215.701 47.2785C214.701 49.2785 213.201 51.3784 211.301 52.0784C214.101 53.4785 213.701 55.6784 212.601 56.3784C207.701 59.6784 201.801 59.3784 198.101 59.3784C191.101 59.3784 191.101 55.0784 192.201 54.0784Z" fill="#D7B396" stroke="#1A1A1A" stroke-width="2" stroke-miterlimit="10" stroke-linecap="round" stroke-linejoin="round"/>
<path d="M210 19.5783C210 19.5783 205.2 27.1783 186.1 27.1783C186.1 25.3783 185.1 22.7783 186.2 19.0783C187.5 14.6783 194.8 9.77832 204.2 9.77832C217.2 9.77832 222.5 16.0783 222.5 25.5783C222.5 30.2783 219.7 33.6783 219.7 33.6783C219.7 33.6783 210 28.4783 210 19.5783Z" fill="#A6735B" stroke="#A6735B" stroke-width="2" stroke-miterlimit="10" stroke-linecap="round"/>
<path d="M201.5 28.3782C202 27.7782 202.8 27.1782 203.8 27.1782C204.8 27.1782 206 27.6782 206.5 28.3782" stroke="#1A1A1A" stroke-width="2" stroke-miterlimit="10" stroke-linecap="round"/>
<path d="M188.301 28.3782C188.801 27.7782 189.601 27.1782 190.601 27.1782C191.601 27.1782 192.801 27.6782 193.301 28.3782" stroke="#1A1A1A" stroke-width="2" stroke-miterlimit="10" stroke-linecap="round"/>
<path d="M203.502 44.1782C202.302 45.3782 199.902 45.4782 199.102 45.4782" stroke="#1A1A1A" stroke-width="2" stroke-miterlimit="10" stroke-linecap="round"/>
<path d="M194.501 33.4785C194.501 33.4785 194.501 34.2785 194.501 35.7785C194.501 38.0785 192.601 40.7785 196.801 40.7785" stroke="#1A1A1A" stroke-width="2" stroke-miterlimit="10" stroke-linecap="round" stroke-linejoin="round"/>
<path d="M203.9 32.2783V34.6783" stroke="#1A1A1A" stroke-width="2" stroke-miterlimit="10" stroke-linecap="round" stroke-linejoin="round"/>
<path d="M205.1 32.9785H203.9" stroke="#1A1A1A" stroke-width="2" stroke-miterlimit="10" stroke-linecap="round" stroke-linejoin="round"/>
<path d="M191.602 32.2783V34.6783" stroke="#1A1A1A" stroke-width="2" stroke-miterlimit="10" stroke-linecap="round" stroke-linejoin="round"/>
<path d="M190.301 32.9785H191.601" stroke="#1A1A1A" stroke-width="2" stroke-miterlimit="10" stroke-linecap="round" stroke-linejoin="round"/>
<path d="M216.5 35.3783C216.5 35.3783 218.1 32.7783 220.7 34.3783C223.5 36.1783 220.8 43.6783 216.6 41.3783" fill="#D7B396"/>
<path d="M216.5 35.3783C216.5 35.3783 218.1 32.7783 220.7 34.3783C223.5 36.1783 220.8 43.6783 216.6 41.3783" stroke="#1A1A1A" stroke-width="2" stroke-miterlimit="10" stroke-linecap="round" stroke-linejoin="round"/>
<path d="M201.301 78.8782L203.301 71.6782" stroke="#1A1A1A" stroke-width="2" stroke-miterlimit="10" stroke-linecap="round" stroke-linejoin="round"/>
<path d="M181.9 83.778C181.9 83.778 180.5 80.778 179.4 79.078C178.2 77.478 176.5 73.878 176.5 72.978C175.1 73.478 173.4 74.578 174.3 76.378C175.2 78.178 174.4 82.378 174.4 82.378" fill="#D7B396"/>
<path d="M181.9 83.778C181.9 83.778 180.5 80.778 179.4 79.078C178.2 77.478 176.5 73.878 176.5 72.978C175.1 73.478 173.4 74.578 174.3 76.378C175.2 78.178 174.4 82.378 174.4 82.378" stroke="#1A1A1A" stroke-width="2" stroke-miterlimit="10" stroke-linecap="round" stroke-linejoin="round"/>
<path d="M160 83.878C160.3 82.978 162.6 82.178 164 82.678C165.7 83.378 167.9 83.278 170.2 83.978C167.8 82.978 164.8 81.378 163.4 80.978C160.7 80.078 159.6 77.378 160.5 76.578C163.5 76.978 172 81.478 172 81.478C172 81.478 168.2 78.378 166.3 76.978C164.4 75.578 165.8 73.978 165.8 73.978C167.4 74.378 175.1 78.578 178 80.178C179.1 80.778 180.2 81.678 181 82.478C181.3 82.878 181.6 83.378 181.9 83.778C182.9 85.678 193.3 90.078 194.3 89.778C198.4 88.178 201.4 78.878 201.4 78.878C201.4 78.878 206.7 85.078 214.7 85.278C209.8 92.478 204.5 98.578 199.6 101.278C192.5 105.078 182 93.778 179 91.378C178.8 91.278 178.7 91.178 178.5 91.178C175.6 92.178 166.9 89.978 165.1 90.278C162.9 90.678 161.4 88.678 161.1 88.378C161.7 87.578 163.8 87.278 164.5 87.178C166.1 87.078 168.1 87.578 169.8 87.178C167.4 86.878 164.9 85.978 162.6 85.678C161.4 85.578 160.3 84.478 160 83.878Z" fill="#D7B396" stroke="#1A1A1A" stroke-width="2" stroke-miterlimit="10" stroke-linecap="round" stroke-linejoin="round"/>
<path d="M214.801 84.9782C214.801 84.9782 217.801 81.1782 219.401 77.6782" stroke="#1A1A1A" stroke-width="2" stroke-miterlimit="10" stroke-linecap="round" stroke-linejoin="round"/>
<rect x="48" y="78" width="11" height="44" stroke="#1A1A1A" stroke-width="2"/>
<path d="M32.9007 9.97832C32.9007 9.97832 16.8007 3.27832 16.8007 20.0783C16.8007 36.8783 8.8007 44.9783 13.4007 51.1783C18.0007 57.3783 31.3007 58.1783 39.1007 53.4783C50.4007 56.9783 60.3007 55.5783 61.2007 48.6783C61.6007 45.5783 58.8007 36.1783 59.0007 24.8783C59.2007 11.1783 48.8007 2.07832 32.9007 9.97832Z" fill="#6D4C43"/>
<path d="M25.0008 47.2782C13.3008 22.4782 32.1008 13.7782 39.0008 14.1782C50.2008 14.7782 53.5008 19.0782 53.5008 26.8782C53.5008 38.4782 54.4008 38.7782 53.0008 44.2782C52.3008 46.9782 49.4008 49.8782 47.8008 51.3782H48.5008C48.5008 51.3782 51.2008 51.9782 54.2008 53.5782C50.1008 63.8782 45.7008 81.7782 45.2008 82.4781C44.6008 83.2782 30.4008 61.1782 25.7008 52.8782C27.4008 52.3782 28.7008 52.1782 29.1008 52.0782C27.4008 51.1782 25.9008 49.1782 25.0008 47.2782Z" fill="#A6735B" stroke="#1A1A1A" stroke-width="2" stroke-miterlimit="10" stroke-linecap="round" stroke-linejoin="round"/>
<path d="M30.5992 19.5783C30.5992 19.5783 37.8992 28.0783 54.6992 28.0783C54.6992 26.2783 55.0992 22.6783 53.9992 18.9783C52.6992 14.5783 45.8992 9.77832 36.4992 9.77832C23.4992 9.77832 18.1992 16.0783 18.1992 25.5783C18.1992 30.2783 20.9992 34.6783 20.9992 34.6783C20.9992 34.6783 30.5992 28.4783 30.5992 19.5783Z" fill="#6D4C43"/>
<path d="M39.1992 28.3782C38.6992 27.7782 37.8992 27.1782 36.8992 27.1782C35.8992 27.1782 34.6992 27.6782 34.1992 28.3782" stroke="#1A1A1A" stroke-width="2" stroke-miterlimit="10" stroke-linecap="round"/>
<path d="M52.4004 28.3782C51.9004 27.7782 51.1004 27.1782 50.1004 27.1782C49.1004 27.1782 47.9004 27.6782 47.4004 28.3782" stroke="#1A1A1A" stroke-width="2" stroke-miterlimit="10" stroke-linecap="round"/>
<path d="M37.0996 44.1782C38.2996 45.3782 40.6996 45.4782 41.4996 45.4782" stroke="#1A1A1A" stroke-width="2" stroke-miterlimit="10" stroke-linecap="round"/>
<path d="M46.2 33.4785V34.8785C46.2 35.7785 46.7 36.6785 47.5 37.0785C48 37.2785 48.8 37.7785 48.8 38.7785C48.8 40.6785 48 40.8785 44.5 40.8785" stroke="#1A1A1A" stroke-width="2" stroke-miterlimit="10" stroke-linecap="round" stroke-linejoin="round"/>
<path d="M49.5 31.7783V34.1783" stroke="#1A1A1A" stroke-width="2" stroke-miterlimit="10" stroke-linecap="round" stroke-linejoin="round"/>
<path d="M50.7 32.5781H49.5" stroke="#1A1A1A" stroke-width="2" stroke-miterlimit="10" stroke-linecap="round" stroke-linejoin="round"/>
<path d="M37.2012 31.7783V34.1783" stroke="#1A1A1A" stroke-width="2" stroke-miterlimit="10" stroke-linecap="round" stroke-linejoin="round"/>
<path d="M35.9004 32.5781H37.2004" stroke="#1A1A1A" stroke-width="2" stroke-miterlimit="10" stroke-linecap="round" stroke-linejoin="round"/>
<path d="M24.0992 37.4782C24.0992 37.4782 22.1992 32.2782 19.4992 34.2782C16.7992 36.1782 19.3992 43.5782 23.5992 41.2782" fill="#A6735B"/>
<path d="M24.0992 37.4782C24.0992 37.4782 22.1992 32.2782 19.4992 34.2782C16.7992 36.1782 19.3992 43.5782 23.5992 41.2782" stroke="#1A1A1A" stroke-width="2" stroke-miterlimit="10" stroke-linecap="round" stroke-linejoin="round"/>
<path d="M66 168.678C66 168.678 58 174.778 37.5 174.778C13.6 174.778 9 168.678 9 168.678C9 135.978 12 111.478 18.3 104.878C20.1 102.978 20.7 100.278 19.8 97.8784C18.1 92.6784 15.3 84.4784 14.5 77.2784C13.9 71.2784 12.6 64.4784 16.8 58.5784C19.2 55.3784 24 53.3784 26.8 52.4784C36.8 63.2784 44.4 65.5784 44.4 65.5784C44.4 65.5784 48.6 61.1784 51.1 51.8784C57.9 52.9784 61.2 63.5784 62.2 77.5784C62.2 77.5784 57.9 91.1784 55.7 98.2784C55.1 100.378 55.4 102.678 56.8 104.478C60.2 109.078 66 137.278 66 168.678Z" fill="white" stroke="#1A1A1A" stroke-width="2" stroke-miterlimit="10" stroke-linecap="round" stroke-linejoin="round"/>
<path d="M75.6996 65.2783L70.5996 84.4783" stroke="#1A1A1A" stroke-width="2" stroke-miterlimit="10" stroke-linecap="round" stroke-linejoin="round"/>
<path d="M80.3012 55.3782C74.2012 53.9782 72.0012 56.9782 71.2012 60.1782C71.1012 60.3782 71.0012 60.6782 70.7012 61.0782C72.3012 62.1782 73.1012 66.9782 74.1012 69.7782C74.2012 69.6782 76.0012 66.7782 76.1012 66.7782C77.5012 64.8782 80.6012 70.2782 83.5012 66.3782C86.4012 62.3782 85.6012 56.5782 80.3012 55.3782Z" fill="#A6735B" stroke="#1A1A1A" stroke-width="2" stroke-miterlimit="10" stroke-linecap="round" stroke-linejoin="round"/>
<path d="M28.8008 84.4783C57.4008 91.0783 73.9008 73.3783 76.3008 69.7783C75.4008 66.9783 71.8008 61.3783 70.2008 60.2783C68.3008 62.9783 61.3008 69.4783 54.0008 70.7783C46.0008 72.1783 33.6008 66.6783 33.6008 66.6783" fill="white"/>
<path d="M28.8008 84.4783C57.4008 91.0783 73.9008 73.3783 76.3008 69.7783C75.4008 66.9783 71.8008 61.3783 70.2008 60.2783C68.3008 62.9783 61.3008 69.4783 54.0008 70.7783C46.0008 72.1783 33.6008 66.6783 33.6008 66.6783" stroke="#1A1A1A" stroke-width="2" stroke-miterlimit="10" stroke-linecap="round" stroke-linejoin="round"/>
<path d="M76.5 66.278C76.5 66.278 77.9 62.478 81.4 64.178" stroke="#1A1A1A" stroke-width="2" stroke-miterlimit="10" stroke-linecap="round" stroke-linejoin="round"/>
<path d="M64.2461 109.492L91.7461 109.492L91.7461 84.6917L64.2461 84.6917L64.2461 109.492Z" fill="white" stroke="#1A1A1A" stroke-width="2" stroke-miterlimit="10" stroke-linecap="round" stroke-linejoin="round"/>
<path d="M85.3008 88.8784C85.8531 88.8784 86.3008 88.4307 86.3008 87.8784C86.3008 87.3261 85.8531 86.8784 85.3008 86.8784C84.7485 86.8784 84.3008 87.3261 84.3008 87.8784C84.3008 88.4307 84.7485 88.8784 85.3008 88.8784Z" fill="#1A1A1A"/>
<path d="M70.0996 88.8784C70.6519 88.8784 71.0996 88.4307 71.0996 87.8784C71.0996 87.3261 70.6519 86.8784 70.0996 86.8784C69.5473 86.8784 69.0996 87.3261 69.0996 87.8784C69.0996 88.4307 69.5473 88.8784 70.0996 88.8784Z" fill="#1A1A1A"/>
<path d="M79.5996 63.8784L85.0996 84.4784" stroke="#1A1A1A" stroke-width="2" stroke-miterlimit="10" stroke-linecap="round" stroke-linejoin="round"/>
<path d="M1 123H239" stroke="#1A1A1A" stroke-width="2" stroke-linecap="round"/>
<path d="M140.3 90.3135C142.6 90.3135 144.2 92.0135 144.2 93.8135V119.613C144.2 121.513 142.7 122.913 140.9 122.913H114.3C112.4 122.913 111 121.413 111 119.613V114.213C111 113.113 111.9 112.213 113 112.213C114.1 112.213 115 113.113 115 114.213V118.913H140.3V94.5135H135.9" fill="white"/>
<path d="M140.3 90.3135C142.6 90.3135 144.2 92.0135 144.2 93.8135V119.613C144.2 121.513 142.7 122.913 140.9 122.913H114.3C112.4 122.913 111 121.413 111 119.613V114.213C111 113.113 111.9 112.213 113 112.213C114.1 112.213 115 113.113 115 114.213V118.913H140.3V94.5135H135.9" stroke="#1A1A1A" stroke-width="2" stroke-miterlimit="10" stroke-linejoin="round"/>
<path d="M151.799 71.4133C151.199 70.8133 150.299 70.9133 149.799 71.4133L120.699 100.513C120.199 101.013 120.199 102.013 120.699 102.513C121.199 103.013 122.199 103.013 122.899 102.713C129.099 100.213 135.599 95.0133 140.999 89.6133C145.399 85.2133 152.299 75.7133 152.299 72.4133C152.299 72.1133 152.199 71.8133 151.799 71.4133Z" fill="white" stroke="#1A1A1A" stroke-width="2" stroke-miterlimit="10" stroke-linecap="round" stroke-linejoin="round"/>
<path d="M105.2 122.9H83V117.6L101.7 110L102.3 111.2L101.7 113.5L103.4 112.9L105.2 114.1V122.9Z" fill="white" stroke="#1A1A1A" stroke-width="2" stroke-miterlimit="10" stroke-linejoin="round"/>
<path d="M105.199 114.7L98.7992 117.6L96.1992 112.3" stroke="#1A1A1A" stroke-width="2" stroke-miterlimit="10" stroke-linejoin="round"/>
<circle cx="134" cy="31" r="11" stroke="#49A4D5" stroke-width="2" stroke-miterlimit="10" stroke-linecap="round" stroke-linejoin="round"/>
<path d="M134 37V38" stroke="#49A4D5" stroke-width="2" stroke-miterlimit="10" stroke-linecap="round" stroke-linejoin="round"/>
<path d="M134 24V25" stroke="#49A4D5" stroke-width="2" stroke-miterlimit="10" stroke-linecap="round" stroke-linejoin="round"/>
<path d="M136.7 27.4286C136.1 26.6349 134.9 26 134 26C133.1 26 131.3 26.4762 131.3 28.381C131.3 29.9683 132.2 30.127 134 30.7619C135.95 31.3968 137 32.0317 137 33.4603C137 35.0476 135.5 36 134 36C132.5 36 131.45 34.8889 131 34.0952" stroke="#49A4D5" stroke-width="1.92" stroke-miterlimit="10" stroke-linecap="round" stroke-linejoin="round"/>
<circle cx="134" cy="48" r="1" fill="#49A4D5"/>
<circle cx="134" cy="54" r="1" fill="#49A4D5"/>
<circle cx="134" cy="60" r="1" fill="#49A4D5"/>
<circle cx="134" cy="66" r="1" fill="#49A4D5"/>
<circle cx="134" cy="72" r="1" fill="#49A4D5"/>
<circle cx="134" cy="78" r="1" fill="#49A4D5"/>
</g>
<defs>
<clipPath id="clip0">
<rect width="240" height="124" fill="white"/>
</clipPath>
</defs>
</svg>
