<svg width="223" height="163" viewBox="0 0 223 163" fill="none" xmlns="http://www.w3.org/2000/svg">
<g clip-path="url(#clip0)">
<path d="M131.711 40.0001L108.553 45.2106C107.829 45.3553 107.25 46.079 107.395 46.9475L116.948 93.2632C117.092 93.9869 117.961 94.5659 118.684 94.4211L141.842 89.2106C142.566 89.0659 143.145 88.3422 143 87.4738L133.448 41.158C133.303 40.2896 132.579 39.8553 131.711 40.0001Z" fill="#69D169" stroke="#2E3B4E" stroke-width="2" stroke-miterlimit="10"/>
<path d="M124.764 72.8551C129.16 72.8551 132.724 69.2911 132.724 64.8946C132.724 60.4981 129.16 56.9341 124.764 56.9341C120.367 56.9341 116.803 60.4981 116.803 64.8946C116.803 69.2911 120.367 72.8551 124.764 72.8551Z" fill="white"/>
<path d="M92.6316 45.7896L115.79 51.0002C116.513 51.1449 117.092 51.8686 116.947 52.737L107.395 99.0528C107.25 99.7765 106.382 100.355 105.658 100.211L82.5 95.0002C81.7764 94.8554 81.1974 94.1317 81.3422 93.2633L90.8948 46.9475C91.0395 46.0791 91.7632 45.6449 92.6316 45.7896Z" fill="#69D169" stroke="#2E3B4E" stroke-width="2" stroke-miterlimit="10"/>
<path d="M99.5792 78.6447C103.976 78.6447 107.54 75.0806 107.54 70.6842C107.54 66.2877 103.976 62.7236 99.5792 62.7236C95.1827 62.7236 91.6187 66.2877 91.6187 70.6842C91.6187 75.0806 95.1827 78.6447 99.5792 78.6447Z" fill="white"/>
<path d="M68.0264 72.7105L92.6317 68.8026C93.3554 68.6579 94.079 69.2368 94.2238 69.9605L102.474 116.276C102.619 117.145 102.04 117.868 101.316 118.013L76.7106 121.921C75.9869 122.066 75.2633 121.487 75.1185 120.763L66.8685 74.4473C66.7238 73.7237 67.3027 72.8552 68.0264 72.7105Z" fill="#69D169" stroke="#2E3B4E" stroke-width="2" stroke-miterlimit="10"/>
<path d="M84.5274 101.657C88.9239 101.657 92.4879 98.0933 92.4879 93.6969C92.4879 89.3004 88.9239 85.7363 84.5274 85.7363C80.1309 85.7363 76.5669 89.3004 76.5669 93.6969C76.5669 98.0933 80.1309 101.657 84.5274 101.657Z" fill="white"/>
<path d="M133.303 69.2372L156.316 72.7109C157.04 72.8556 157.619 73.5793 157.474 74.303L150.672 122.066C150.527 122.935 149.803 123.369 148.935 123.224L125.777 119.316C125.053 119.171 124.474 118.448 124.619 117.724L131.711 70.3951C131.711 69.6714 132.58 69.0924 133.303 69.2372Z" fill="#69D169" stroke="#2E3B4E" stroke-width="2" stroke-miterlimit="10"/>
<path d="M141.554 101.803C145.95 101.803 149.514 98.2393 149.514 93.8429C149.514 89.4464 145.95 85.8823 141.554 85.8823C137.157 85.8823 133.593 89.4464 133.593 93.8429C133.593 98.2393 137.157 101.803 141.554 101.803Z" fill="white"/>
<path d="M99.8683 77.3423H124.474C125.342 77.3423 125.921 77.9212 125.921 78.7897V126.553C125.921 127.421 125.342 128 124.474 128H99.8683C98.9998 128 98.4209 127.421 98.4209 126.553V78.7897C98.4209 77.9212 98.9998 77.3423 99.8683 77.3423Z" fill="#69D169" stroke="#2E3B4E" stroke-width="2" stroke-miterlimit="10"/>
<path d="M112.315 109.039C116.711 109.039 120.276 105.475 120.276 101.079C120.276 96.6822 116.711 93.1182 112.315 93.1182C107.919 93.1182 104.354 96.6822 104.354 101.079C104.354 105.475 107.919 109.039 112.315 109.039Z" fill="white"/>
<path d="M112.895 123.658L62.2373 100.5V144.934H163.553V99.7764L112.895 123.658Z" fill="white"/>
<path d="M69.4741 91.5259L64.9873 93.5522C63.2505 94.2759 62.2373 95.868 62.2373 97.6048V143.921C62.2373 146.381 64.1189 148.263 66.5794 148.263H159.211C161.672 148.263 163.553 146.381 163.553 143.921V97.6048C163.553 95.868 162.54 94.2759 160.803 93.5522L156.316 91.5259" stroke="#1A1A1A" stroke-width="2" stroke-miterlimit="10" stroke-linecap="round" stroke-linejoin="round"/>
<path d="M163.553 97.6055C163.553 99.3423 162.54 100.934 160.803 101.658L114.487 123.079C113.474 123.513 112.316 123.513 111.158 123.079L64.8426 101.658C63.2505 100.934 62.2373 99.3423 62.2373 97.6055" stroke="#1A1A1A" stroke-width="2" stroke-miterlimit="10" stroke-linecap="round" stroke-linejoin="round"/>
<path d="M162.25 145.658L114.487 123.658C113.473 123.223 112.316 123.223 111.158 123.658L63.3945 145.802" stroke="#1A1A1A" stroke-width="2" stroke-miterlimit="10" stroke-linecap="round" stroke-linejoin="round"/>
<path d="M157.763 58.5265L165 57.0791" stroke="#1A1A1A" stroke-width="2" stroke-miterlimit="10" stroke-linecap="round" stroke-linejoin="round"/>
<path d="M151.974 45.4998L157.763 41.1577" stroke="#1A1A1A" stroke-width="2" stroke-miterlimit="10" stroke-linecap="round" stroke-linejoin="round"/>
<path d="M62.2368 58.5261L55 55.6313" stroke="#1A1A1A" stroke-width="2" stroke-miterlimit="10" stroke-linecap="round" stroke-linejoin="round"/>
<path d="M72.3682 41.158L65.1313 36.8159" stroke="#1A1A1A" stroke-width="2" stroke-miterlimit="10" stroke-linecap="round" stroke-linejoin="round"/>
<path d="M86.8421 31.0264L82.5 23.7896" stroke="#1A1A1A" stroke-width="2" stroke-miterlimit="10" stroke-linecap="round" stroke-linejoin="round"/>
<path d="M105.658 26.6842L104.21 18" stroke="#1A1A1A" stroke-width="2" stroke-miterlimit="10" stroke-linecap="round" stroke-linejoin="round"/>
<path d="M126.5 18.4341L124.474 26.6841" stroke="#1A1A1A" stroke-width="2" stroke-miterlimit="10" stroke-linecap="round" stroke-linejoin="round"/>
<path d="M147.632 28.1313L141.842 33.9208" stroke="#1A1A1A" stroke-width="2" stroke-miterlimit="10" stroke-linecap="round" stroke-linejoin="round"/>
</g>
<defs>
<clipPath id="clip0">
<rect width="127" height="127" fill="white" transform="translate(47.5 18)"/>
</clipPath>
</defs>
</svg>
