<svg width="223" height="163" viewBox="0 0 223 163" fill="none" xmlns="http://www.w3.org/2000/svg">
<path d="M81.834 109.128C80.9728 101.189 79.2505 92.1661 84.93 84.4526C88.0466 80.2173 94.5257 77.5779 98.1959 76.4321C111.482 90.7748 121.488 93.803 121.488 93.803C121.488 93.803 127.045 88.0127 130.346 75.716C137.112 76.8004 141.295 85.0868 143.509 97.0152C144.883 104.36 144.37 111.931 142.135 119.072C140.372 124.657 138.199 131.593 136.702 136.483C157.226 127.133 171.497 106.468 171.497 82.4884C171.497 49.7109 144.883 23.1533 112.036 23.1533C79.189 23.1533 52.5752 49.7109 52.5752 82.4884C52.5752 107.123 67.6249 128.258 89.0513 137.22C88.9897 136.913 88.9077 136.606 88.8052 136.299C86.5088 129.486 82.8591 118.601 81.834 109.128Z" fill="#DDDDDD" stroke="#2E3B4E" stroke-width="2" stroke-miterlimit="10" stroke-linecap="round" stroke-linejoin="round"/>
<path d="M106.377 22.724C106.377 22.724 85.8942 14.1715 85.8942 35.5935C85.8942 57.0155 75.7654 67.3071 81.5474 75.1843C87.3295 83.0616 104.389 84.0641 114.333 78.1306C128.747 82.591 141.398 80.77 142.505 72.0335C142.997 68.0641 139.45 56.1767 139.655 41.7726C139.921 24.2176 126.615 12.6984 106.377 22.724Z" fill="#2E3B4E"/>
<path d="M140.824 118.212C141.685 120.647 141.336 119.542 142.566 122.652C144.35 127.112 150.358 127.89 153.228 124.023L160.22 114.57L150.44 103.828C150.44 103.828 148.533 95.6238 146.77 88.5036C145.375 82.9179 138.876 75.7363 130.264 75.7363" fill="white"/>
<path d="M140.824 118.212C141.685 120.647 141.336 119.542 142.566 122.652C144.35 127.112 150.358 127.89 153.228 124.023L160.22 114.57L150.44 103.828C150.44 103.828 148.533 95.6238 146.77 88.5036C145.375 82.9179 138.876 75.7363 130.264 75.7363" stroke="#2E3B4F" stroke-width="2" stroke-miterlimit="10" stroke-linecap="round" stroke-linejoin="round"/>
<path d="M132.54 76.3506C129.239 88.6473 121.489 93.8033 121.489 93.8033C121.489 93.8033 111.483 90.7547 98.1964 76.4324C94.5057 77.5782 88.0471 80.2176 84.9305 84.4529C79.2715 92.1664 80.9938 101.189 81.8344 109.128C82.8596 118.601 86.5093 129.486 88.8057 136.299C88.9082 136.606 88.9902 136.913 89.0517 137.22C96.1255 140.187 103.896 141.824 112.036 141.824C120.832 141.824 129.198 139.921 136.702 136.484C138.199 131.594 140.372 124.658 142.136 119.072C144.391 111.931 144.883 104.361 143.51 97.0156" fill="white"/>
<path d="M132.54 76.3506C129.239 88.6473 121.489 93.8033 121.489 93.8033C121.489 93.8033 111.483 90.7547 98.1964 76.4324C94.5057 77.5782 88.0471 80.2176 84.9305 84.4529C79.2715 92.1664 80.9938 101.189 81.8344 109.128C82.8596 118.601 86.5093 129.486 88.8057 136.299C88.9082 136.606 88.9902 136.913 89.0517 137.22C96.1255 140.187 103.896 141.824 112.036 141.824C120.832 141.824 129.198 139.921 136.702 136.484C138.199 131.594 140.372 124.658 142.136 119.072C144.391 111.931 144.883 104.361 143.51 97.0156" stroke="#2E3B4E" stroke-width="2" stroke-miterlimit="10" stroke-linecap="round" stroke-linejoin="round"/>
<path d="M71.1931 94.376C71.1931 94.376 50.3613 107.675 50.3613 115C50.3613 125.558 70.0039 130.857 74.6172 132.719C77.5287 133.905 71.1111 139.512 77.0981 142.069C83.0647 144.627 90.5075 141.824 90.5075 134.765C90.5075 126.581 86.0583 124.535 81.6295 124.535C78.8204 124.535 67.6254 116.862 67.6254 115.512C67.6254 114.141 78.2053 110.744 78.2053 110.744" fill="#9F755F"/>
<path d="M71.1931 94.376C71.1931 94.376 50.3613 107.675 50.3613 115C50.3613 125.558 70.0039 130.857 74.6172 132.719C77.5287 133.905 71.1111 139.512 77.0981 142.069C83.0647 144.627 90.5075 141.824 90.5075 134.765C90.5075 126.581 86.0582 124.535 81.6295 124.535C78.8204 124.535 67.6254 116.862 67.6254 115.512C67.6254 114.141 78.2053 110.744 78.2053 110.744" stroke="#2E3B4E" stroke-width="2" stroke-miterlimit="10" stroke-linecap="round" stroke-linejoin="round"/>
<path d="M76.4624 132.616C76.4624 132.616 81.1783 132.944 79.4354 137.322" stroke="#2E3B4E" stroke-width="2.0482" stroke-miterlimit="10" stroke-linecap="round" stroke-linejoin="round"/>
<path d="M149.948 122.448L162.598 123.86C163.562 123.962 164.444 123.287 164.587 122.325L167.704 99.9827C167.847 98.9801 167.13 98.0594 166.125 97.9367L153.474 96.5249C152.511 96.4226 151.629 97.0978 151.485 98.0594L148.369 120.402C148.225 121.405 148.943 122.325 149.948 122.448Z" fill="white" stroke="#2E3B4F" stroke-width="2" stroke-miterlimit="10" stroke-linecap="round" stroke-linejoin="round"/>
<path d="M170.41 102.253C171.722 102.417 172.645 103.624 172.481 104.934C172.461 105.159 172.399 105.363 172.317 105.568C171.907 106.55 171.763 107.635 171.907 108.678C171.948 108.883 171.948 109.108 171.907 109.333C171.866 109.578 171.804 109.803 171.702 110.028C171.271 110.97 171.128 112.013 171.312 113.016C171.353 113.241 171.353 113.486 171.333 113.732C171.292 113.998 171.21 114.264 171.107 114.489C170.636 115.409 170.472 116.453 170.718 117.456C170.8 117.783 170.8 118.131 170.718 118.499C170.533 119.338 169.898 120.013 169.077 120.279C168.729 120.381 168.401 120.402 168.073 120.361L165.428 120.013C159.215 119.215 153.966 112.136 154.766 106.223C155.278 102.479 159.584 100.883 163.377 101.374L170.41 102.253Z" fill="#9F755F" stroke="#2E3B4E" stroke-width="2" stroke-miterlimit="10" stroke-linecap="round" stroke-linejoin="round"/>
<path d="M155.278 105.199L165.366 106.55" stroke="#2E3B4F" stroke-width="2" stroke-miterlimit="10" stroke-linecap="round" stroke-linejoin="round"/>
<path d="M155.278 109.967L164.813 111.419" stroke="#2E3B4F" stroke-width="2" stroke-miterlimit="10" stroke-linecap="round" stroke-linejoin="round"/>
<path d="M157.677 114.918L164.238 116.023" stroke="#2E3B4F" stroke-width="2" stroke-miterlimit="10" stroke-linecap="round" stroke-linejoin="round"/>
<path d="M119.5 116.535C119.5 116.535 112.467 122.059 103.179 118.52" stroke="#2E3B4F" stroke-width="2" stroke-miterlimit="10" stroke-linecap="round" stroke-linejoin="round"/>
<path d="M155.72 100.271C155.789 99.438 155.287 98.7166 154.598 98.6599C153.91 98.6033 153.296 99.2329 153.227 100.066C153.158 100.9 153.661 101.621 154.349 101.678C155.037 101.734 155.651 101.105 155.72 100.271Z" fill="#2E3B4F"/>
<path d="M170.164 61.0459H150.481C149.907 61.0459 149.456 61.496 149.456 62.0689V80.9948C149.456 81.5676 149.968 82.0178 150.481 82.0178H156.222L160.323 86.1098L164.423 82.0178H170.164C170.738 82.0178 171.189 81.5676 171.189 80.9948V62.0689C171.189 61.496 170.718 61.0459 170.164 61.0459Z" fill="white" stroke="#2E3B4F" stroke-width="2.0482" stroke-miterlimit="10" stroke-linecap="round" stroke-linejoin="round"/>
<path d="M164.075 66.1201H156.57C155.525 66.1201 154.684 66.959 154.684 68.0025V75.491C154.684 76.5344 155.525 77.3733 156.57 77.3733H164.075C165.12 77.3733 165.961 76.5344 165.961 75.491V68.0025C165.961 66.959 165.12 66.1201 164.075 66.1201ZM163.911 74.7339C163.911 75.0613 163.644 75.3273 163.316 75.3273H157.329C157.001 75.3273 156.734 75.0613 156.734 74.7339V68.7595C156.734 68.4321 157.001 68.1662 157.329 68.1662H163.316C163.644 68.1662 163.911 68.4321 163.911 68.7595V74.7339Z" fill="#2E3B4E"/>
<path d="M159.134 73.3014C158.949 73.3014 158.785 73.1582 158.785 72.9536V70.5597C158.785 70.3756 158.929 70.2119 159.134 70.2119H161.533C161.717 70.2119 161.881 70.3551 161.881 70.5597V72.9536C161.881 73.1377 161.738 73.3014 161.533 73.3014H159.134Z" fill="#2E3B4E"/>
<path d="M96.3304 70.1311C81.4652 38.6016 105.352 27.553 114.189 27.9827C128.439 28.6784 132.683 34.2436 132.683 44.1464C132.683 58.8369 133.811 59.2461 132.068 66.264C131.207 69.7218 127.475 73.4456 125.507 75.2257L126.409 75.1848C126.409 75.1848 131.125 75.5326 132.56 76.351C131.74 81.6707 127.434 89.241 121.488 93.7423C116.157 92.7193 104.675 87.8088 97.3761 77.2103C99.5084 76.5351 101.19 76.2692 101.682 76.1873C99.3649 75.1643 97.4786 72.5863 96.3304 70.1311Z" fill="#9F755F" stroke="#2E3B4E" stroke-width="2" stroke-miterlimit="10" stroke-linecap="round" stroke-linejoin="round"/>
<path d="M103.445 34.9594C103.445 34.9594 112.713 45.7829 134.119 45.7829C134.119 43.5527 134.59 38.8878 133.237 34.1819C131.597 28.5348 122.862 22.499 110.867 22.499C94.2799 22.499 87.5957 30.5195 87.5957 42.6525C87.5957 48.586 91.2044 54.1921 91.2044 54.1921C91.2044 54.1921 103.445 46.233 103.445 34.9594Z" fill="#2E3B4E"/>
<path d="M114.333 46.1098C113.718 45.3119 112.672 44.6162 111.36 44.6162C110.047 44.6162 108.51 45.3119 107.895 46.1098" stroke="#2E3B4E" stroke-width="2" stroke-miterlimit="10" stroke-linecap="round"/>
<path d="M131.187 46.1098C130.572 45.3119 129.526 44.6162 128.214 44.6162C126.901 44.6162 125.364 45.3119 124.749 46.1098" stroke="#2E3B4E" stroke-width="2" stroke-miterlimit="10" stroke-linecap="round"/>
<path d="M111.832 65.0977C112.242 68.1667 114.292 69.3943 117.368 69.3943" stroke="#2E3B4E" stroke-width="2" stroke-miterlimit="10" stroke-linecap="round"/>
<path d="M123.273 52.5557V54.3562C123.273 55.5224 123.888 56.6682 124.974 57.1388C125.61 57.4252 126.615 58.039 126.615 59.328C126.615 61.8037 125.548 61.947 121.161 61.947" stroke="#2E3B4E" stroke-width="2" stroke-miterlimit="10" stroke-linecap="round" stroke-linejoin="round"/>
<path d="M127.476 51.6553V54.7243" stroke="#2E3B4E" stroke-width="2" stroke-miterlimit="10" stroke-linecap="round" stroke-linejoin="round"/>
<path d="M129.075 52.6377H127.476" stroke="#2E3B4E" stroke-width="2" stroke-miterlimit="10" stroke-linecap="round" stroke-linejoin="round"/>
<path d="M111.811 51.6553V54.7243" stroke="#2E3B4E" stroke-width="2" stroke-miterlimit="10" stroke-linecap="round" stroke-linejoin="round"/>
<path d="M110.232 52.6377H111.811" stroke="#2E3B4E" stroke-width="2" stroke-miterlimit="10" stroke-linecap="round" stroke-linejoin="round"/>
<path d="M95.1209 57.6698C95.1209 57.6698 92.7014 51.1225 89.2363 53.5982C85.7712 56.0739 89.0518 65.4652 94.5057 62.5599" fill="#9F755F"/>
<path d="M95.1209 57.6698C95.1209 57.6698 92.7014 51.1225 89.2363 53.5982C85.7712 56.0739 89.0518 65.4652 94.5057 62.5599" stroke="#2E3B4E" stroke-width="2" stroke-miterlimit="10" stroke-linecap="round" stroke-linejoin="round"/>
<path d="M95.4283 77.374C83.7412 82.8983 53.6007 98.6528 49.5 113.998C50.3201 128.525 72.4641 134.663 72.4641 134.663C72.4641 134.663 83.126 129.343 83.3311 121.978C81.2807 118.704 74.9246 120.545 67.5432 115.43C75.3346 113.384 84.3563 108.269 84.3563 108.269" fill="white"/>
<path d="M95.4283 77.374C83.7412 82.8983 53.6007 98.6528 49.5 113.998C50.3201 128.525 72.4641 134.663 72.4641 134.663C72.4641 134.663 83.126 129.343 83.3311 121.978C81.2807 118.704 74.9246 120.545 67.5432 115.43C75.3346 113.384 84.3563 108.269 84.3563 108.269" stroke="#2E3B4E" stroke-width="2" stroke-miterlimit="10" stroke-linecap="round" stroke-linejoin="round"/>
</svg>
